<?xml version="1.0" encoding="UTF-8" standalone="no"?>
<svg width="19px" height="22px" viewBox="0 0 19 22" version="1.1" xmlns="http://www.w3.org/2000/svg" xmlns:xlink="http://www.w3.org/1999/xlink">
    <!-- Generator: Sketch 44.1 (41455) - http://www.bohemiancoding.com/sketch -->
    <title>amp</title>
    <desc>Created with Sketch.</desc>
    <defs></defs>
    <g id="Desktop" stroke="none" stroke-width="1" fill="none" fill-rule="evenodd">
        <g id="amp" fill="#545454">
            <path d="M3.73535156,10.4003906 C3.11034844,9.52147998 2.64404451,8.71582397 2.33642578,7.98339844 C2.02880706,7.2509729 1.875,6.50879282 1.875,5.75683594 C1.875,4.05760869 2.42675229,2.67334519 3.53027344,1.60400391 C4.63379458,0.534662622 6.09374092,0 7.91015625,0 C9.46289839,0 10.7250928,0.498041895 11.6967773,1.49414062 C12.6684619,2.49023936 13.1542969,3.70116475 13.1542969,5.12695312 C13.1542969,6.08398916 12.9321311,6.97265215 12.487793,7.79296875 C12.0434548,8.61328535 11.4404335,9.29687227 10.6787109,9.84375 L9.40429688,10.7373047 L12.9785156,14.8388672 C13.3203142,14.2919895 13.5839834,13.6914095 13.7695312,13.0371094 C13.9550791,12.3828092 14.0478516,11.6943396 14.0478516,10.9716797 L17.5341797,10.9716797 C17.5341797,12.3584054 17.3803726,13.6279239 17.0727539,14.7802734 C16.7651352,15.9326229 16.2744174,16.9580033 15.6005859,17.8564453 L18.8232422,21.5625 L18.7939453,21.6357422 L13.3886719,21.6357422 L12.3046875,20.4052734 C11.4550739,20.9326198 10.6079144,21.3207995 9.76318359,21.5698242 C8.91845281,21.8188489 7.98828633,21.9433594 6.97265625,21.9433594 C4.84373936,21.9433594 3.14942036,21.3867243 1.88964844,20.2734375 C0.629876514,19.1601507 0,17.7050871 0,15.9082031 C0,14.775385 0.300289966,13.8110391 0.900878906,13.0151367 C1.50146785,12.2192343 2.43163433,11.3574265 3.69140625,10.4296875 L3.73535156,10.4003906 Z M7.30957031,18.1347656 C7.72949429,18.1347656 8.15185334,18.0908208 8.57666016,18.0029297 C9.00146697,17.9150386 9.41894326,17.7783212 9.82910156,17.5927734 L5.91796875,13.1689453 L5.78613281,13.2568359 C5.48339692,13.6279315 5.2709967,13.9965802 5.14892578,14.362793 C5.02685486,14.7290057 4.96582031,15.1318337 4.96582031,15.5712891 C4.96582031,16.3232459 5.19286882,16.9384742 5.64697266,17.4169922 C6.10107649,17.8955102 6.65527017,18.1347656 7.30957031,18.1347656 Z M6.15234375,5.69824219 C6.15234375,6.07910347 6.24511626,6.46728318 6.43066406,6.86279297 C6.61621187,7.25830276 6.89452939,7.69042734 7.265625,8.15917969 L8.14453125,7.60253906 C8.69140898,7.2509748 9.05761626,6.90918135 9.24316406,6.57714844 C9.42871187,6.24511553 9.52148438,5.87890825 9.52148438,5.47851562 C9.52148438,5.04882598 9.37256008,4.66308765 9.07470703,4.32128906 C8.77685398,3.97949048 8.3837915,3.80859375 7.89550781,3.80859375 C7.3388644,3.80859375 6.9091812,3.98925601 6.60644531,4.35058594 C6.30370942,4.71191587 6.15234375,5.16113013 6.15234375,5.69824219 Z" id="&amp;"></path>
        </g>
    </g>
</svg>