<?xml version="1.0" encoding="UTF-8" standalone="no"?>
<svg width="103px" height="102px" viewBox="0 0 103 102" version="1.1" xmlns="http://www.w3.org/2000/svg" xmlns:xlink="http://www.w3.org/1999/xlink">
    <!-- Generator: Sketch 45.1 (43504) - http://www.bohemiancoding.com/sketch -->
    <title>btn-life-single-selected</title>
    <desc>Created with Sketch.</desc>
    <defs>
        <ellipse id="path-1" cx="51.5" cy="51" rx="49.5192308" ry="49.0384615"></ellipse>
    </defs>
    <g id="Symbols" stroke="none" stroke-width="1" fill="none" fill-rule="evenodd">
        <g id="btn-life-single-selected">
            <g id="Group-6">
                <g id="Event-Circle-Selected">
                    <g id="Group-6">
                        <g id="Oval-3">
                            <use fill="#FFFFFF" fill-rule="evenodd" xlink:href="#path-1"></use>
                            <ellipse stroke="#00A5AB" stroke-width="2" cx="51.5" cy="51" rx="50.5192308" ry="50.0384615"></ellipse>
                        </g>
                        <g id="Group-7">
                            <g id="Group">
                                <ellipse id="Oval" fill="#00A5AB" cx="14.3605769" cy="14.2211538" rx="14.3605769" ry="14.2211538"></ellipse>
                                <polygon id="Shape" fill="#FFFFFF" points="12.4026266 20.659919 6.40262664 14.8906883 8.08262664 13.2753036 12.4026266 17.4291498 21.5226266 8.65991903 23.2026266 10.2753036"></polygon>
                            </g>
                        </g>
                    </g>
                </g>
                <path d="M43.4906809,80.2158203 C43.4906809,80.7959013 43.2819427,81.252928 42.8644602,81.5869141 C42.4469776,81.9209001 41.8661729,82.0878906 41.1220285,82.0878906 C40.4364782,82.0878906 39.830039,81.9589857 39.3026926,81.7011719 L39.3026926,80.4355469 C39.7362885,80.6289072 40.1032282,80.7651363 40.4035227,80.8442383 C40.7038171,80.9233402 40.9784726,80.9628906 41.2274973,80.9628906 C41.5263269,80.9628906 41.7555726,80.9057623 41.9152414,80.7915039 C42.0749102,80.6772455 42.1547434,80.5073253 42.1547434,80.2817383 C42.1547434,80.1557611 42.1195875,80.0437017 42.0492746,79.9455566 C41.9789618,79.8474116 41.8756913,79.7529301 41.7394602,79.6621094 C41.603229,79.5712886 41.3256439,79.4262705 40.9066965,79.2270508 C40.5141164,79.0424795 40.2196857,78.8652352 40.0233957,78.6953125 C39.8271057,78.5253898 39.6703689,78.3276378 39.5531809,78.1020508 C39.4359928,77.8764637 39.3773996,77.6127945 39.3773996,77.3110352 C39.3773996,76.7426729 39.5700246,76.2959001 39.9552805,75.9707031 C40.3405363,75.6455062 40.8730017,75.4829102 41.5526926,75.4829102 C41.8866786,75.4829102 42.205279,75.5224605 42.5085031,75.6015625 C42.8117273,75.6806645 43.1288628,75.7919915 43.4599191,75.9355469 L43.020466,76.9946289 C42.6776909,76.8540032 42.3942464,76.7558597 42.1701242,76.7001953 C41.946002,76.644531 41.7255452,76.6166992 41.5087473,76.6166992 C41.2509335,76.6166992 41.0531815,76.6767572 40.9154855,76.796875 C40.7777895,76.9169928 40.7089426,77.0737295 40.7089426,77.2670898 C40.7089426,77.3872076 40.7367743,77.4919429 40.7924387,77.5812988 C40.848103,77.6706547 40.9367252,77.7570797 41.0583078,77.8405762 C41.1798905,77.9240727 41.4677294,78.0742177 41.9218332,78.2910156 C42.5224221,78.5781264 42.9340391,78.8659654 43.1566965,79.154541 C43.3793538,79.4431167 43.4906809,79.7968729 43.4906809,80.2158203 Z M44.2997768,75.8168945 C44.2997768,75.3803689 44.5429385,75.1621094 45.029269,75.1621094 C45.5155996,75.1621094 45.7587612,75.3803689 45.7587612,75.8168945 C45.7587612,76.0249034 45.6979708,76.186767 45.5763882,76.3024902 C45.4548055,76.4182135 45.2724343,76.4760742 45.029269,76.4760742 C44.5429385,76.4760742 44.2997768,76.2563499 44.2997768,75.8168945 Z M45.6972378,82 L44.3569057,82 L44.3569057,77.0869141 L45.6972378,77.0869141 L45.6972378,82 Z M51.4457868,82 L50.1054548,82 L50.1054548,79.1303711 C50.1054548,78.7758771 50.0424672,78.5100107 49.91649,78.3327637 C49.7905128,78.1555167 49.5898312,78.0668945 49.3144392,78.0668945 C48.9394373,78.0668945 48.6684439,78.1921374 48.5014509,78.442627 C48.3344579,78.6931165 48.2509626,79.1083955 48.2509626,79.6884766 L48.2509626,82 L46.9106306,82 L46.9106306,77.0869141 L47.9345564,77.0869141 L48.1147322,77.715332 L48.1894392,77.715332 C48.338854,77.4780262 48.5446625,77.2985846 48.8068708,77.177002 C49.0690792,77.0554193 49.3671719,76.9946289 49.7011579,76.9946289 C50.2724499,76.9946289 50.7060393,77.1491684 51.0019392,77.458252 C51.2978391,77.7673355 51.4457868,78.213376 51.4457868,78.7963867 L51.4457868,82 Z M54.6674805,81.0375977 C55.0278338,81.0375977 55.2856438,80.9343272 55.440918,80.7277832 C55.5961922,80.5212392 55.6738281,80.1865258 55.6738281,79.7236328 L55.6738281,79.5610352 C55.6738281,79.0366185 55.5925301,78.659425 55.4299316,78.4294434 C55.2673332,78.1994617 55.0058612,78.0844727 54.6455078,78.0844727 C54.0156219,78.0844727 53.7006836,78.5795849 53.7006836,79.5698242 C53.7006836,80.0620142 53.779052,80.4296863 53.935791,80.6728516 C54.0925301,80.9160168 54.3364241,81.0375977 54.6674805,81.0375977 Z M56.9262695,82.0087891 C56.9262695,82.7148473 56.720461,83.2502423 56.3088379,83.6149902 C55.8972147,83.9797382 55.2841838,84.1621094 54.4697266,84.1621094 C53.7519495,84.1621094 53.139651,84.0654307 52.6328125,83.8720703 L52.6328125,82.7998047 C53.227542,83.0517591 53.8662075,83.1777344 54.5488281,83.1777344 C55.2373081,83.1777344 55.581543,82.8056678 55.581543,82.0615234 L55.581543,81.9648438 L55.6210938,81.362793 L55.581543,81.362793 C55.2680648,81.8461938 54.803714,82.0878906 54.1884766,82.0878906 C53.5996064,82.0878906 53.1433122,81.8608421 52.8195801,81.4067383 C52.495848,80.9526344 52.3339844,80.3344766 52.3339844,79.5522461 C52.3339844,78.746578 52.5017073,78.1188987 52.8371582,77.6691895 C53.1726091,77.2194802 53.6347627,76.9946289 54.2236328,76.9946289 C54.8271515,76.9946289 55.3017561,77.2348609 55.6474609,77.715332 L55.6826172,77.715332 L55.7924805,77.0869141 L56.9262695,77.0869141 L56.9262695,82.0087891 Z M59.4755999,82 L58.1352678,82 L58.1352678,75.1621094 L59.4755999,75.1621094 L59.4755999,82 Z M62.7236607,77.9482422 C62.4394796,77.9482422 62.2168255,78.0383292 62.0556919,78.2185059 C61.8945583,78.3986825 61.8022741,78.6542952 61.7788365,78.9853516 L63.6596958,78.9853516 C63.6538364,78.6542952 63.5674115,78.3986825 63.4004185,78.2185059 C63.2334255,78.0383292 63.0078418,77.9482422 62.7236607,77.9482422 Z M62.9126255,82.0878906 C62.1216059,82.0878906 61.5034481,81.8696311 61.0581333,81.4331055 C60.6128186,80.9965798 60.3901646,80.378422 60.3901646,79.5786133 C60.3901646,78.755367 60.5959731,78.1188987 61.0075962,77.6691895 C61.4192194,77.2194802 61.9883055,76.9946289 62.7148716,76.9946289 C63.409211,76.9946289 63.949733,77.1923808 64.3364536,77.5878906 C64.7231743,77.9834004 64.9165318,78.5297817 64.9165318,79.2270508 L64.9165318,79.8774414 L61.7480747,79.8774414 C61.7627233,80.2583027 61.8755151,80.555663 62.0864536,80.7695312 C62.2973922,80.9833995 62.5932877,81.090332 62.974149,81.090332 C63.2700489,81.090332 63.5498312,81.0595706 63.8135044,80.9980469 C64.0771776,80.9365231 64.3525655,80.8383796 64.6396763,80.7036133 L64.6396763,81.7407227 C64.4053001,81.8579107 64.1548144,81.9450681 63.8882115,82.0021973 C63.6216086,82.0593265 63.2964165,82.0878906 62.9126255,82.0878906 Z" id="Single" fill="#16A5AA"></path>
                <path d="M71.9607889,51.1204176 C70.4633411,49.6229698 68.0032483,48.5533643 65.8640371,48.8742459 C62.9761021,47.5907193 60.1951276,45.9863109 57.6280742,44.0610209 C57.0932715,42.4566125 56.8793503,40.6382831 56.9863109,38.712993 C57.8419954,37.5364269 58.3767981,36.1459397 58.6976798,34.4345708 C59.0185615,34.4345708 59.5533643,34.5415313 59.9812065,33.5788863 C61.1577726,33.1510441 60.9438515,31.3327146 61.1577726,28.9795824 C61.1577726,27.9099768 60.7299304,27.9099768 60.4090487,28.2308585 C60.5160093,27.5890951 60.5160093,26.3055684 60.5160093,26.3055684 C60.5160093,26.1986079 60.5160093,25.9846868 60.5160093,25.8777262 L60.5160093,25.8777262 C60.5160093,20.9575406 56.5584687,17 51.6382831,17 C46.7180974,17 42.5466357,21.1714617 42.7605568,26.1986079 C42.7605568,26.9473318 42.7605568,27.6960557 42.8675174,28.2308585 C42.6535963,28.0169374 42.4396752,28.0169374 42.2257541,28.2308585 C41.9048724,28.5517401 42.1187935,29.1935035 42.1187935,30.5839907 C42.2257541,32.0814385 42.2257541,33.2580046 43.1883991,33.5788863 C43.6162413,34.4345708 44.1510441,34.4345708 44.4719258,34.4345708 C44.7928074,36.1459397 45.4345708,37.5364269 46.1832947,38.712993 C46.2902552,40.6382831 46.0763341,42.349652 45.5415313,44.0610209 C42.974478,45.8793503 40.1935035,47.4837587 37.3055684,48.8742459 C35.1663573,48.5533643 32.7062645,49.6229698 31.2088167,51.1204176 C28.6417633,53.687471 28,57.8589327 28,63.1 L75.2765661,63.1 C75.1696056,57.8589327 74.5278422,53.687471 71.9607889,51.1204176 Z" id="Shape" fill="#82BC00" fill-rule="nonzero"></path>
            </g>
        </g>
    </g>
</svg>