<?xml version="1.0" encoding="UTF-8" standalone="no"?>
<svg width="101px" height="102px" viewBox="0 0 101 102" version="1.1" xmlns="http://www.w3.org/2000/svg" xmlns:xlink="http://www.w3.org/1999/xlink">
    <!-- Generator: Sketch 45.1 (43504) - http://www.bohemiancoding.com/sketch -->
    <title>btn-life-rental-static</title>
    <desc>Created with Sketch.</desc>
    <defs>
        <ellipse id="path-1" cx="50.5" cy="51" rx="48.5576923" ry="49.0384615"></ellipse>
    </defs>
    <g id="Symbols" stroke="none" stroke-width="1" fill="none" fill-rule="evenodd">
        <g id="btn-life-rental-static">
            <g id="Event-Circle-Static">
                <g id="Oval-3">
                    <use fill="#FFFFFF" fill-rule="evenodd" xlink:href="#path-1"></use>
                    <ellipse stroke="#A0A0A0" stroke-width="2" cx="50.5" cy="51" rx="49.5576923" ry="50.0384615"></ellipse>
                </g>
            </g>
            <path d="M31.9130163,72.7788086 C31.9130163,73.8422905 31.649347,74.6596651 31.1220006,75.230957 C30.5946543,75.802249 29.8388024,76.0878906 28.8544225,76.0878906 C27.8700426,76.0878906 27.1141908,75.802249 26.5868444,75.230957 C26.059498,74.6596651 25.7958288,73.8393608 25.7958288,72.7700195 C25.7958288,71.7006782 26.0602304,70.884036 26.5890417,70.3200684 C27.1178529,69.7561007 27.875902,69.4741211 28.8632116,69.4741211 C29.8505212,69.4741211 30.6056406,69.7582979 31.1285924,70.3266602 C31.6515443,70.8950224 31.9130163,71.712397 31.9130163,72.7788086 Z M27.2240514,72.7788086 C27.2240514,73.4965856 27.3602805,74.0371076 27.6327428,74.4003906 C27.9052051,74.7636737 28.3124276,74.9453125 28.8544225,74.9453125 C29.941342,74.9453125 30.4847936,74.2231518 30.4847936,72.7788086 C30.4847936,71.3315357 29.9442717,70.6079102 28.8632116,70.6079102 C28.3212167,70.6079102 27.9125294,70.7902814 27.6371374,71.1550293 C27.3617454,71.5197772 27.2240514,72.0610316 27.2240514,72.7788086 Z M36.9848076,76 L36.6068779,74.2817383 L36.1059013,72.1108398 L36.0663505,72.1108398 L35.1698661,76 L33.7284599,76 L32.330999,71.0869141 L33.6669365,71.0869141 L34.233831,73.262207 C34.2982844,73.5200208 34.387639,74.0576131 34.5018974,74.875 L34.5370536,74.875 C34.5487725,74.6523426 34.6000415,74.2993188 34.6908622,73.815918 L34.7611747,73.4423828 L35.3676201,71.0869141 L36.8441826,71.0869141 L37.4198661,73.4423828 C37.4550226,73.6035164 37.498235,73.8400863 37.5495048,74.1520996 C37.6007746,74.4641129 37.6293388,74.7050773 37.6351982,74.875 L37.6703544,74.875 C37.7025811,74.6142565 37.7479909,74.3176286 37.8065849,73.9851074 C37.8651789,73.6525862 37.9149831,73.4116218 37.955999,73.262207 L38.5448661,71.0869141 L39.858831,71.0869141 L38.4437919,76 L36.9848076,76 Z M44.9921457,76 L43.6518137,76 L43.6518137,73.1303711 C43.6518137,72.7758771 43.588826,72.5100107 43.4628488,72.3327637 C43.3368716,72.1555167 43.13619,72.0668945 42.860798,72.0668945 C42.4857962,72.0668945 42.2148028,72.1921374 42.0478098,72.442627 C41.8808167,72.6931165 41.7973215,73.1083955 41.7973215,73.6884766 L41.7973215,76 L40.4569895,76 L40.4569895,71.0869141 L41.4809152,71.0869141 L41.661091,71.715332 L41.735798,71.715332 C41.8852129,71.4780262 42.0910213,71.2985846 42.3532297,71.177002 C42.615438,71.0554193 42.9135308,70.9946289 43.2475168,70.9946289 C43.8188087,70.9946289 44.2523981,71.1491684 44.548298,71.458252 C44.844198,71.7673355 44.9921457,72.213376 44.9921457,72.7963867 L44.9921457,76 Z M49.7919783,72.4272461 L50.2314314,72.4272461 C50.6620976,72.4272461 50.9799655,72.3554695 51.1850447,72.2119141 C51.3901238,72.0683587 51.4926618,71.842775 51.4926618,71.5351562 C51.4926618,71.2304672 51.3879266,71.0136725 51.1784529,70.8847656 C50.9689792,70.7558587 50.6445195,70.6914062 50.2050642,70.6914062 L49.7919783,70.6914062 L49.7919783,72.4272461 Z M49.7919783,73.534668 L49.7919783,76 L48.4296736,76 L48.4296736,69.5751953 L50.3017439,69.5751953 C51.1747951,69.5751953 51.8207848,69.7341293 52.2397322,70.052002 C52.6586796,70.3698746 52.8681501,70.8525358 52.8681501,71.5 C52.8681501,71.8779316 52.7641473,72.2141099 52.5561384,72.5085449 C52.3481296,72.80298 52.0536989,73.0336906 51.6728376,73.2006836 L53.5624861,76 L52.0507673,76 L50.5170759,73.534668 L49.7919783,73.534668 Z M56.1074219,71.9482422 C55.8232408,71.9482422 55.6005867,72.0383292 55.4394531,72.2185059 C55.2783195,72.3986825 55.1860353,72.6542952 55.1625977,72.9853516 L57.043457,72.9853516 C57.0375976,72.6542952 56.9511727,72.3986825 56.7841797,72.2185059 C56.6171867,72.0383292 56.391603,71.9482422 56.1074219,71.9482422 Z M56.2963867,76.0878906 C55.5053671,76.0878906 54.8872093,75.8696311 54.4418945,75.4331055 C53.9965798,74.9965798 53.7739258,74.378422 53.7739258,73.5786133 C53.7739258,72.755367 53.9797343,72.1188987 54.3913574,71.6691895 C54.8029806,71.2194802 55.3720667,70.9946289 56.0986328,70.9946289 C56.7929722,70.9946289 57.3334942,71.1923808 57.7202148,71.5878906 C58.1069355,71.9834004 58.300293,72.5297817 58.300293,73.2270508 L58.300293,73.8774414 L55.1318359,73.8774414 C55.1464844,74.2583027 55.2592763,74.555663 55.4702148,74.7695312 C55.6811534,74.9833995 55.9770489,75.090332 56.3579102,75.090332 C56.6538101,75.090332 56.9335924,75.0595706 57.1972656,74.9980469 C57.4609388,74.9365231 57.7363267,74.8383796 58.0234375,74.7036133 L58.0234375,75.7407227 C57.7890613,75.8579107 57.5385756,75.9450681 57.2719727,76.0021973 C57.0053698,76.0593265 56.6801777,76.0878906 56.2963867,76.0878906 Z M63.7324358,76 L62.3921038,76 L62.3921038,73.1303711 C62.3921038,72.7758771 62.3291161,72.5100107 62.2031389,72.3327637 C62.0771617,72.1555167 61.8764802,72.0668945 61.6010882,72.0668945 C61.2260863,72.0668945 60.9550929,72.1921374 60.7880999,72.442627 C60.6211068,72.6931165 60.5376116,73.1083955 60.5376116,73.6884766 L60.5376116,76 L59.1972796,76 L59.1972796,71.0869141 L60.2212053,71.0869141 L60.4013811,71.715332 L60.4760882,71.715332 C60.625503,71.4780262 60.8313114,71.2985846 61.0935198,71.177002 C61.3557281,71.0554193 61.6538209,70.9946289 61.9878069,70.9946289 C62.5590988,70.9946289 62.9926882,71.1491684 63.2885882,71.458252 C63.5844881,71.7673355 63.7324358,72.213376 63.7324358,72.7963867 L63.7324358,76 Z M66.9892857,75.0200195 C67.2236618,75.0200195 67.504909,74.9687505 67.8330357,74.8662109 L67.8330357,75.8637695 C67.4990496,76.0131843 67.0888975,76.0878906 66.6025669,76.0878906 C66.0664314,76.0878906 65.6760545,75.9523939 65.4314243,75.6813965 C65.1867942,75.410399 65.064481,75.003909 65.064481,74.4619141 L65.064481,72.0932617 L64.4228794,72.0932617 L64.4228794,71.5263672 L65.1611607,71.078125 L65.5478794,70.0410156 L66.404813,70.0410156 L66.404813,71.0869141 L67.7803013,71.0869141 L67.7803013,72.0932617 L66.404813,72.0932617 L66.404813,74.4619141 C66.404813,74.6523447 66.4582793,74.7929683 66.5652134,74.8837891 C66.6721475,74.9746098 66.8135035,75.0200195 66.9892857,75.0200195 Z M71.7534598,76 L71.4941824,75.3320312 L71.4590262,75.3320312 C71.2334391,75.6162124 71.0012637,75.8132319 70.762493,75.9230957 C70.5237222,76.0329595 70.2124461,76.0878906 69.8286551,76.0878906 C69.356973,76.0878906 68.9856389,75.9531263 68.7146414,75.6835938 C68.443644,75.4140612 68.3081473,75.0302759 68.3081473,74.5322266 C68.3081473,74.0107396 68.4905185,73.6262219 68.8552664,73.3786621 C69.2200143,73.1311023 69.7700577,72.9941408 70.5054129,72.9677734 L71.357952,72.9414062 L71.357952,72.7260742 C71.357952,72.2280249 71.1030717,71.9790039 70.5933035,71.9790039 C70.2007234,71.9790039 69.7393023,72.0976551 69.2090262,72.3349609 L68.7651785,71.4296875 C69.330611,71.1337876 69.9575579,70.9858398 70.6460379,70.9858398 C71.3052209,70.9858398 71.8105869,71.1293931 72.1621512,71.4165039 C72.5137154,71.7036147 72.6894949,72.1401338 72.6894949,72.7260742 L72.6894949,76 L71.7534598,76 Z M71.357952,73.7236328 L70.8393973,73.7412109 C70.4497469,73.7529297 70.1597107,73.8232415 69.9692801,73.9521484 C69.7788494,74.0810553 69.6836355,74.2773424 69.6836355,74.5410156 C69.6836355,74.9189472 69.9004303,75.1079102 70.3340262,75.1079102 C70.6445746,75.1079102 70.8928631,75.0185556 71.0788992,74.8398438 C71.2649353,74.6611319 71.357952,74.4238296 71.357952,74.1279297 L71.357952,73.7236328 Z M75.2168526,76 L73.8765206,76 L73.8765206,69.1621094 L75.2168526,69.1621094 L75.2168526,76 Z M30.2518835,83.5986328 L30.7001256,83.5986328 C31.1190731,83.5986328 31.4325465,83.51587 31.6405553,83.3503418 C31.8485642,83.1848136 31.9525671,82.9438492 31.9525671,82.6274414 C31.9525671,82.3081039 31.8654097,82.0722664 31.6910924,81.9199219 C31.5167752,81.7675774 31.2435845,81.6914062 30.8715124,81.6914062 L30.2518835,81.6914062 L30.2518835,83.5986328 Z M33.3280553,82.5791016 C33.3280553,83.2705113 33.111993,83.7993146 32.679862,84.1655273 C32.2477309,84.5317401 31.6332351,84.7148438 30.8363561,84.7148438 L30.2518835,84.7148438 L30.2518835,87 L28.8895788,87 L28.8895788,80.5751953 L30.9418249,80.5751953 C31.7211256,80.5751953 32.313649,80.7429182 32.7194128,81.0783691 C33.1251765,81.41382 33.3280553,81.9140592 33.3280553,82.5791016 Z M36.9848076,81.9946289 C37.1664491,81.9946289 37.3173265,82.0078124 37.4374443,82.0341797 L37.3363701,83.2910156 C37.2279711,83.2617186 37.0961365,83.2470703 36.9408622,83.2470703 C36.5131257,83.2470703 36.1798771,83.3569325 35.9411064,83.5766602 C35.7023357,83.7963878 35.5829521,84.1040019 35.5829521,84.4995117 L35.5829521,87 L34.2426201,87 L34.2426201,82.0869141 L35.2577568,82.0869141 L35.4555107,82.9130859 L35.5214286,82.9130859 C35.6737732,82.6376939 35.8795816,82.4157723 36.1388603,82.2473145 C36.3981389,82.0788566 36.6801185,81.9946289 36.9848076,81.9946289 Z M39.1166574,84.534668 C39.1166574,85.0209985 39.1964906,85.3886706 39.3561594,85.6376953 C39.5158281,85.88672 39.7758353,86.0112305 40.1361887,86.0112305 C40.4936123,86.0112305 40.7506898,85.8874524 40.9074289,85.6398926 C41.064168,85.3923327 41.1425363,85.0239282 41.1425363,84.534668 C41.1425363,84.0483374 41.0634356,83.683595 40.9052316,83.4404297 C40.7470277,83.1972644 40.487753,83.0756836 40.1273996,83.0756836 C39.7699759,83.0756836 39.512166,83.196532 39.3539621,83.4382324 C39.1957582,83.6799328 39.1166574,84.0454077 39.1166574,84.534668 Z M42.5136301,84.534668 C42.5136301,85.3344767 42.3026947,85.9599587 41.8808176,86.4111328 C41.4589405,86.8623069 40.871544,87.0878906 40.1186105,87.0878906 C39.6469285,87.0878906 39.230917,86.9846202 38.8705637,86.7780762 C38.5102103,86.5715322 38.2333576,86.2749043 38.0399973,85.8881836 C37.8466369,85.5014629 37.7499582,85.0502955 37.7499582,84.534668 C37.7499582,83.7319296 37.9594288,83.1079124 38.3783762,82.6625977 C38.7973236,82.2172829 39.3861849,81.9946289 40.1449777,81.9946289 C40.6166598,81.9946289 41.0326712,82.0971669 41.3930246,82.3022461 C41.753378,82.5073252 42.0302307,82.8017559 42.223591,83.1855469 C42.4169514,83.5693379 42.5136301,84.0190404 42.5136301,84.534668 Z M46.126437,87.0878906 C45.5492857,87.0878906 45.0966535,86.8784201 44.7685268,86.4594727 L44.6982143,86.4594727 C44.7450896,86.869631 44.7685268,87.1069333 44.7685268,87.1713867 L44.7685268,89.1621094 L43.4281948,89.1621094 L43.4281948,82.0869141 L44.5180385,82.0869141 L44.7070034,82.7241211 L44.7685268,82.7241211 C45.082005,82.2377905 45.5463558,81.9946289 46.1615932,81.9946289 C46.7416743,81.9946289 47.1957713,82.2187478 47.5238979,82.6669922 C47.8520246,83.1152366 48.0160854,83.737789 48.0160854,84.534668 C48.0160854,85.0590847 47.9391819,85.5146465 47.7853725,85.9013672 C47.6315632,86.2880879 47.4125712,86.5825185 47.1283901,86.784668 C46.844209,86.9868174 46.510228,87.0878906 46.126437,87.0878906 Z M45.7309292,83.0668945 C45.3998728,83.0668945 45.158176,83.1687002 45.0058315,83.3723145 C44.853487,83.5759288 44.7743862,83.912107 44.7685268,84.3808594 L44.7685268,84.5258789 C44.7685268,85.0532253 44.8468952,85.4311512 45.0036342,85.659668 C45.1603733,85.8881847 45.4086618,86.0024414 45.7485073,86.0024414 C46.3490962,86.0024414 46.6493862,85.5073292 46.6493862,84.5170898 C46.6493862,84.033689 46.5754123,83.6711438 46.4274624,83.4294434 C46.2795124,83.1877429 46.047337,83.0668945 45.7309292,83.0668945 Z M50.9653181,82.9482422 C50.681137,82.9482422 50.458483,83.0383292 50.2973493,83.2185059 C50.1362157,83.3986825 50.0439315,83.6542952 50.0204939,83.9853516 L51.9013533,83.9853516 C51.8954939,83.6542952 51.8090689,83.3986825 51.6420759,83.2185059 C51.4750829,83.0383292 51.2494992,82.9482422 50.9653181,82.9482422 Z M51.1542829,87.0878906 C50.3632634,87.0878906 49.7451055,86.8696311 49.2997908,86.4331055 C48.854476,85.9965798 48.631822,85.378422 48.631822,84.5786133 C48.631822,83.755367 48.8376305,83.1188987 49.2492536,82.6691895 C49.6608768,82.2194802 50.2299629,81.9946289 50.956529,81.9946289 C51.6508684,81.9946289 52.1913904,82.1923808 52.5781111,82.5878906 C52.9648318,82.9834004 53.1581892,83.5297817 53.1581892,84.2270508 L53.1581892,84.8774414 L49.9897322,84.8774414 C50.0043807,85.2583027 50.1171725,85.555663 50.3281111,85.7695312 C50.5390496,85.9833995 50.8349451,86.090332 51.2158064,86.090332 C51.5117063,86.090332 51.7914887,86.0595706 52.0551618,85.9980469 C52.318835,85.9365231 52.5942229,85.8383796 52.8813337,85.7036133 L52.8813337,86.7407227 C52.6469576,86.8579107 52.3964718,86.9450681 52.1298689,87.0021973 C51.863266,87.0593265 51.5380739,87.0878906 51.1542829,87.0878906 Z M56.7973633,81.9946289 C56.9790048,81.9946289 57.1298822,82.0078124 57.25,82.0341797 L57.1489258,83.2910156 C57.0405268,83.2617186 56.9086922,83.2470703 56.753418,83.2470703 C56.3256815,83.2470703 55.9924328,83.3569325 55.7536621,83.5766602 C55.5148914,83.7963878 55.3955078,84.1040019 55.3955078,84.4995117 L55.3955078,87 L54.0551758,87 L54.0551758,82.0869141 L55.0703125,82.0869141 L55.2680664,82.9130859 L55.3339844,82.9130859 C55.4863289,82.6376939 55.6921374,82.4157723 55.951416,82.2473145 C56.2106947,82.0788566 56.4926743,81.9946289 56.7973633,81.9946289 Z M60.0190569,86.0200195 C60.2534331,86.0200195 60.5346803,85.9687505 60.8628069,85.8662109 L60.8628069,86.8637695 C60.5288209,87.0131843 60.1186687,87.0878906 59.6323382,87.0878906 C59.0962027,87.0878906 58.7058257,86.9523939 58.4611956,86.6813965 C58.2165654,86.410399 58.0942522,86.003909 58.0942522,85.4619141 L58.0942522,83.0932617 L57.4526507,83.0932617 L57.4526507,82.5263672 L58.1909319,82.078125 L58.5776507,81.0410156 L59.4345842,81.0410156 L59.4345842,82.0869141 L60.8100725,82.0869141 L60.8100725,83.0932617 L59.4345842,83.0932617 L59.4345842,85.4619141 C59.4345842,85.6523447 59.4880505,85.7929683 59.5949846,85.8837891 C59.7019188,85.9746098 59.8432748,86.0200195 60.0190569,86.0200195 Z M61.6059849,80.8168945 C61.6059849,80.3803689 61.8491465,80.1621094 62.3354771,80.1621094 C62.8218076,80.1621094 63.0649693,80.3803689 63.0649693,80.8168945 C63.0649693,81.0249034 63.0041789,81.186767 62.8825962,81.3024902 C62.7610136,81.4182135 62.5786424,81.4760742 62.3354771,81.4760742 C61.8491465,81.4760742 61.6059849,81.2563499 61.6059849,80.8168945 Z M63.0034458,87 L61.6631138,87 L61.6631138,82.0869141 L63.0034458,82.0869141 L63.0034458,87 Z M66.2515066,82.9482422 C65.9673255,82.9482422 65.7446715,83.0383292 65.5835379,83.2185059 C65.4224043,83.3986825 65.33012,83.6542952 65.3066824,83.9853516 L67.1875418,83.9853516 C67.1816824,83.6542952 67.0952575,83.3986825 66.9282645,83.2185059 C66.7612714,83.0383292 66.5356877,82.9482422 66.2515066,82.9482422 Z M66.4404715,87.0878906 C65.6494519,87.0878906 65.031294,86.8696311 64.5859793,86.4331055 C64.1406646,85.9965798 63.9180105,85.378422 63.9180105,84.5786133 C63.9180105,83.755367 64.123819,83.1188987 64.5354422,82.6691895 C64.9470653,82.2194802 65.5161514,81.9946289 66.2427176,81.9946289 C66.937057,81.9946289 67.4775789,82.1923808 67.8642996,82.5878906 C68.2510203,82.9834004 68.4443777,83.5297817 68.4443777,84.2270508 L68.4443777,84.8774414 L65.2759207,84.8774414 C65.2905692,85.2583027 65.4033611,85.555663 65.6142996,85.7695312 C65.8252382,85.9833995 66.1211336,86.090332 66.5019949,86.090332 C66.7978948,86.090332 67.0776772,86.0595706 67.3413504,85.9980469 C67.6050236,85.9365231 67.8804115,85.8383796 68.1675223,85.7036133 L68.1675223,86.7407227 C67.9331461,86.8579107 67.6826603,86.9450681 67.4160574,87.0021973 C67.1494545,87.0593265 66.8242625,87.0878906 66.4404715,87.0878906 Z M72.7690987,85.5410156 C72.7690987,86.0449244 72.5940516,86.4287096 72.2439522,86.6923828 C71.8938528,86.956056 71.3701764,87.0878906 70.6729073,87.0878906 C70.3154836,87.0878906 70.0107992,87.0637209 69.7588448,87.0153809 C69.5068904,86.9670408 69.2710529,86.8959966 69.0513253,86.8022461 L69.0513253,85.6948242 C69.3003499,85.8120123 69.5808647,85.9101559 69.892878,85.9892578 C70.2048913,86.0683598 70.4795467,86.1079102 70.7168526,86.1079102 C71.2031832,86.1079102 71.4463448,85.9672866 71.4463448,85.6860352 C71.4463448,85.5805659 71.4141186,85.4948734 71.3496651,85.4289551 C71.2852117,85.3630368 71.1738846,85.2883305 71.0156807,85.204834 C70.8574768,85.1213375 70.6465414,85.0239263 70.3828682,84.9125977 C70.0049367,84.7543937 69.7273515,84.6079108 69.5501046,84.4731445 C69.3728576,84.3383782 69.2439526,84.1838388 69.1633858,84.0095215 C69.082819,83.8352042 69.0425362,83.6206067 69.0425362,83.3657227 C69.0425362,82.929197 69.211724,82.5915539 69.5501046,82.3527832 C69.8884852,82.1140125 70.3682167,81.9946289 70.9893135,81.9946289 C71.5811134,81.9946289 72.1567912,82.1235339 72.7163643,82.3813477 L72.3120674,83.3481445 C72.0659725,83.2426753 71.8359943,83.1562503 71.622126,83.0888672 C71.4082578,83.021484 71.1899982,82.987793 70.9673409,82.987793 C70.5718311,82.987793 70.3740792,83.0947255 70.3740792,83.3085938 C70.3740792,83.4287115 70.4377992,83.5327144 70.5652413,83.6206055 C70.6926833,83.7084965 70.9717333,83.8388663 71.4023995,84.0117188 C71.7861905,84.166993 72.0674376,84.312011 72.2461495,84.4467773 C72.4248613,84.5815436 72.5566959,84.7368155 72.6416573,84.9125977 C72.7266187,85.0883798 72.7690987,85.2978503 72.7690987,85.5410156 Z" id="Own-Rental-Propertie" fill="#16A5AA"></path>
            <g id="rental" transform="translate(21.000000, 16.000000)" fill-rule="nonzero">
                <path d="M46.3136071,19.6 C44.0020129,19.6 41.4335749,18.7090909 38.9935588,17.0545455 C34.3703704,13.7454545 32.4440419,8.78181818 34.6272142,5.72727273 C34.884058,5.34545455 35.3977456,5.21818182 35.7830113,5.47272727 C36.168277,5.72727273 36.2966989,6.23636364 36.0398551,6.61818182 C34.4987923,8.90909091 36.2966989,12.9818182 40.020934,15.6545455 C43.7451691,18.3272727 48.3683575,18.5818182 49.9094203,16.4181818 C50.1662641,16.0363636 50.6799517,15.9090909 51.0652174,16.1636364 C51.4504831,16.4181818 51.578905,16.9272727 51.3220612,17.3090909 C50.1662641,18.8363636 48.3683575,19.6 46.3136071,19.6 Z" id="Shape" fill="#4E4E4E"></path>
                <g id="Group" fill="#C8C8C8">
                    <path d="M37.3240741,4.2 C32.7008857,-0.381818182 25.3808374,-0.381818182 20.757649,4.2 C16.1344605,8.78181818 16.1344605,16.0363636 20.757649,20.6181818 C25.3808374,25.2 32.7008857,25.2 37.3240741,20.6181818 C41.9472625,16.0363636 41.9472625,8.65454545 37.3240741,4.2 Z M29.6187601,11.8363636 C28.0776973,10.3090909 28.0776973,7.76363636 29.6187601,6.23636364 C31.1598229,4.70909091 33.7282609,4.70909091 35.2693237,6.23636364 C36.8103865,7.76363636 36.8103865,10.3090909 35.2693237,11.8363636 C33.7282609,13.3636364 31.1598229,13.3636364 29.6187601,11.8363636 Z" id="Shape"></path>
                    <path d="M29.3619163,18.9636364 L7.65861514,40.4727273 C7.27334944,40.8545455 4.44806763,41.1090909 4.06280193,40.8545455 L0.338566828,37.1636364 C-0.0466988728,36.7818182 -0.0466988728,33.7272727 0.338566828,33.3454545 L4.83333333,28.8909091 L9.07125604,31.4363636 L7.53019324,26.3454545 L8.55756844,25.3272727 L13.0523349,26.3454545 L10.8691626,22.9090909 L12.4102254,21.3818182 L17.8039452,21.5090909 L15.2355072,18.5818182 L22.1702899,11.7090909 C22.5555556,11.3272727 23.0692432,11.3272727 23.4545089,11.7090909 L29.4903382,17.6909091 C29.747182,18.0727273 29.747182,18.5818182 29.3619163,18.9636364 Z" id="Shape"></path>
                </g>
                <path d="M56.2020934,12.9818182 L43.873591,12.9818182 C42.9746377,12.9818182 42.2041063,13.7454545 42.2041063,14.6363636 L42.2041063,35.6363636 C42.2041063,36.5272727 42.9746377,37.2909091 43.873591,37.2909091 L56.2020934,37.2909091 C57.1010467,37.2909091 57.8715781,36.5272727 57.8715781,35.6363636 L57.8715781,14.6363636 C57.8715781,13.7454545 57.1010467,12.9818182 56.2020934,12.9818182 Z M50.0378422,18.9636364 C48.8820451,18.9636364 47.9830918,18.0727273 47.9830918,16.9272727 C47.9830918,15.7818182 48.8820451,14.8909091 50.0378422,14.8909091 C51.1936393,14.8909091 52.0925926,15.7818182 52.0925926,16.9272727 C52.2210145,18.0727273 51.1936393,18.9636364 50.0378422,18.9636364 Z" id="Shape" fill="#82BC00"></path>
                <path d="M50.5515298,17.8181818 C50.4231079,17.8181818 50.1662641,17.8181818 50.0378422,17.6909091 C49.6525765,17.4363636 49.5241546,16.9272727 49.7809984,16.5454545 C51.3220612,14.2545455 49.5241546,10.1818182 45.7999195,7.50909091 C42.0756844,4.83636364 37.452496,4.58181818 35.9114332,6.74545455 C35.6545894,7.12727273 35.1409018,7.25454545 34.7556361,7 C34.3703704,6.74545455 34.2419485,6.23636364 34.4987923,5.85454545 C36.6819646,2.8 42.0756844,2.92727273 46.6988728,6.23636364 C51.3220612,9.54545455 53.2483897,14.5090909 51.0652174,17.5636364 C51.0652174,17.6909091 50.8083736,17.8181818 50.5515298,17.8181818 Z" id="Shape" fill="#4E4E4E"></path>
                <ellipse id="Oval" fill="#E2E2E2" cx="29.6187601" cy="19.0909091" rx="2.9537037" ry="2.29090909"></ellipse>
                <path d="M55.0462963,28 C54.9178744,28.2545455 54.6610306,28.5090909 54.2757649,28.5090909 L53.5052335,28.5090909 L53.5052335,31.8181818 C53.5052335,32.2 53.1199678,32.5818182 52.7347021,32.5818182 L50.9367955,32.5818182 L50.9367955,29.5272727 C50.9367955,29.4 50.8083736,29.4 50.8083736,29.4 L49.3957327,29.4 C49.2673108,29.4 49.2673108,29.5272727 49.2673108,29.5272727 L49.2673108,32.5818182 L47.3409823,32.5818182 C46.9557166,32.5818182 46.5704509,32.2 46.5704509,31.8181818 L46.5704509,28.5090909 L45.7999195,28.5090909 C45.4146538,28.5090909 45.15781,28.2545455 45.0293881,28 C44.9009662,27.7454545 45.0293881,27.3636364 45.2862319,27.1090909 L49.5241546,23.9272727 C49.6525765,23.8 49.7809984,23.8 50.0378422,23.8 C50.1662641,23.8 50.4231079,23.8 50.5515298,23.9272727 L54.7894525,27.1090909 C55.0462963,27.3636364 55.1747182,27.6181818 55.0462963,28 Z" id="Shape" fill="#4E4E4E"></path>
            </g>
        </g>
    </g>
</svg>