<?xml version="1.0" encoding="UTF-8" standalone="no"?>
<svg width="101px" height="102px" viewBox="0 0 101 102" version="1.1" xmlns="http://www.w3.org/2000/svg" xmlns:xlink="http://www.w3.org/1999/xlink">
    <!-- Generator: Sketch 45.1 (43504) - http://www.bohemiancoding.com/sketch -->
    <title>btn-life-havechildren-hover</title>
    <desc>Created with Sketch.</desc>
    <defs>
        <ellipse id="path-1" cx="50.5" cy="51" rx="48.5576923" ry="49.0384615"></ellipse>
    </defs>
    <g id="Symbols" stroke="none" stroke-width="1" fill="none" fill-rule="evenodd">
        <g id="btn-life-havechildren-hover">
            <g id="btn-life-havechildren-static">
                <g id="Event-Circle-Hover">
                    <g id="Oval-3">
                        <use fill="#FFFFFF" fill-rule="evenodd" xlink:href="#path-1"></use>
                        <ellipse stroke="#545454" stroke-width="2" cx="50.5" cy="51" rx="49.5576923" ry="50.0384615"></ellipse>
                    </g>
                </g>
                <path d="M24.2171876,76 L22.8592775,76 L22.8592775,73.2270508 L20.3148439,73.2270508 L20.3148439,76 L18.9525392,76 L18.9525392,69.5751953 L20.3148439,69.5751953 L20.3148439,72.0932617 L22.8592775,72.0932617 L22.8592775,69.5751953 L24.2171876,69.5751953 L24.2171876,76 Z M28.6605609,76 L28.4012836,75.3320312 L28.3661273,75.3320312 C28.1405403,75.6162124 27.9083649,75.8132319 27.6695941,75.9230957 C27.4308234,76.0329595 27.1195472,76.0878906 26.7357562,76.0878906 C26.2640742,76.0878906 25.89274,75.9531263 25.6217426,75.6835938 C25.3507451,75.4140612 25.2152484,75.0302759 25.2152484,74.5322266 C25.2152484,74.0107396 25.3976197,73.6262219 25.7623676,73.3786621 C26.1271155,73.1311023 26.6771588,72.9941408 27.4125141,72.9677734 L28.2650531,72.9414062 L28.2650531,72.7260742 C28.2650531,72.2280249 28.0101729,71.9790039 27.5004047,71.9790039 C27.1078246,71.9790039 26.6464034,72.0976551 26.1161273,72.3349609 L25.6722797,71.4296875 C26.2377122,71.1337876 26.8646591,70.9858398 27.5531391,70.9858398 C28.212322,70.9858398 28.7176881,71.1293931 29.0692523,71.4165039 C29.4208166,71.7036147 29.5965961,72.1401338 29.5965961,72.7260742 L29.5965961,76 L28.6605609,76 Z M28.2650531,73.7236328 L27.7464984,73.7412109 C27.356848,73.7529297 27.0668119,73.8232415 26.8763812,73.9521484 C26.6859506,74.0810553 26.5907367,74.2773424 26.5907367,74.5410156 C26.5907367,74.9189472 26.8075314,75.1079102 27.2411273,75.1079102 C27.5516758,75.1079102 27.7999643,75.0185556 27.9860004,74.8398438 C28.1720365,74.6611319 28.2650531,74.4238296 28.2650531,74.1279297 L28.2650531,73.7236328 Z M31.9525671,76 L30.0804967,71.0869141 L31.4823522,71.0869141 L32.431571,73.8862305 C32.5282511,74.1909195 32.5912388,74.5263654 32.6205358,74.8925781 L32.6556921,74.8925781 C32.6732703,74.5615218 32.7391876,74.2260759 32.853446,73.8862305 L33.7982702,71.0869141 L35.2001256,71.0869141 L33.3280553,76 L31.9525671,76 Z M37.7450615,71.9482422 C37.4608803,71.9482422 37.2382263,72.0383292 37.0770927,72.2185059 C36.9159591,72.3986825 36.8236749,72.6542952 36.8002372,72.9853516 L38.6810966,72.9853516 C38.6752372,72.6542952 38.5888123,72.3986825 38.4218193,72.2185059 C38.2548262,72.0383292 38.0292426,71.9482422 37.7450615,71.9482422 Z M37.9340263,76.0878906 C37.1430067,76.0878906 36.5248488,75.8696311 36.0795341,75.4331055 C35.6342194,74.9965798 35.4115654,74.378422 35.4115654,73.5786133 C35.4115654,72.755367 35.6173739,72.1188987 36.028997,71.6691895 C36.4406202,71.2194802 37.0097063,70.9946289 37.7362724,70.9946289 C38.4306118,70.9946289 38.9711337,71.1923808 39.3578544,71.5878906 C39.7445751,71.9834004 39.9379326,72.5297817 39.9379326,73.2270508 L39.9379326,73.8774414 L36.7694755,73.8774414 C36.784124,74.2583027 36.8969159,74.555663 37.1078544,74.7695312 C37.318793,74.9833995 37.6146885,75.090332 37.9955497,75.090332 C38.2914497,75.090332 38.571232,75.0595706 38.8349052,74.9980469 C39.0985784,74.9365231 39.3739663,74.8383796 39.6610771,74.7036133 L39.6610771,75.7407227 C39.4267009,75.8579107 39.1762151,75.9450681 38.9096122,76.0021973 C38.6430093,76.0593265 38.3178173,76.0878906 37.9340263,76.0878906 Z M45.8144253,70.6166992 C45.3017274,70.6166992 44.9047587,70.8093242 44.6235073,71.1945801 C44.3422559,71.5798359 44.2016323,72.1166958 44.2016323,72.8051758 C44.2016323,74.2378001 44.7392246,74.9541016 45.8144253,74.9541016 C46.2655994,74.9541016 46.8119806,74.8413097 47.4535854,74.6157227 L47.4535854,75.7583008 C46.926239,75.9780284 46.3373777,76.0878906 45.6869839,76.0878906 C44.7524089,76.0878906 44.0375723,75.8044462 43.5424526,75.2375488 C43.0473329,74.6706515 42.7997768,73.8569389 42.7997768,72.7963867 C42.7997768,72.1284146 42.9213576,71.5432154 43.1645229,71.0407715 C43.4076882,70.5383276 43.7570499,70.1530775 44.2126186,69.8850098 C44.6681873,69.616942 45.2021175,69.4829102 45.8144253,69.4829102 C46.4384518,69.4829102 47.0653987,69.6337876 47.6952846,69.9355469 L47.2558315,71.0429688 C47.0155959,70.9287104 46.7738991,70.829102 46.5307339,70.7441406 C46.2875686,70.6591793 46.0488014,70.6166992 45.8144253,70.6166992 Z M53.057115,76 L51.7167829,76 L51.7167829,73.1303711 C51.7167829,72.4213832 51.4531137,72.0668945 50.9257673,72.0668945 C50.5507654,72.0668945 50.2797721,72.1943347 50.112779,72.4492188 C49.945786,72.7041028 49.8622908,73.1171846 49.8622908,73.6884766 L49.8622908,76 L48.5219587,76 L48.5219587,69.1621094 L49.8622908,69.1621094 L49.8622908,70.5551758 C49.8622908,70.6635748 49.852037,70.918455 49.831529,71.3198242 L49.8007673,71.715332 L49.8710798,71.715332 C50.1699094,71.2348609 50.6445141,70.9946289 51.2949079,70.9946289 C51.8720593,70.9946289 52.3100432,71.1499008 52.6088728,71.4604492 C52.9077024,71.7709976 53.057115,72.2163057 53.057115,72.7963867 L53.057115,76 Z M54.1870117,69.8168945 C54.1870117,69.3803689 54.4301733,69.1621094 54.9165039,69.1621094 C55.4028345,69.1621094 55.6459961,69.3803689 55.6459961,69.8168945 C55.6459961,70.0249034 55.5852057,70.186767 55.463623,70.3024902 C55.3420404,70.4182135 55.1596692,70.4760742 54.9165039,70.4760742 C54.4301733,70.4760742 54.1870117,70.2563499 54.1870117,69.8168945 Z M55.5844727,76 L54.2441406,76 L54.2441406,71.0869141 L55.5844727,71.0869141 L55.5844727,76 Z M58.1381975,76 L56.7978655,76 L56.7978655,69.1621094 L58.1381975,69.1621094 L58.1381975,76 Z M60.9072544,76.0878906 C60.3301031,76.0878906 59.8767385,75.8637718 59.547147,75.4155273 C59.2175555,74.9672829 59.0527622,74.3461954 59.0527622,73.5522461 C59.0527622,72.746578 59.2204852,72.1188987 59.5559361,71.6691895 C59.891387,71.2194802 60.3535405,70.9946289 60.9424107,70.9946289 C61.5605778,70.9946289 62.0322528,71.2348609 62.3574497,71.715332 L62.4013951,71.715332 C62.3340119,71.3491193 62.3003208,71.0224624 62.3003208,70.7353516 L62.3003208,69.1621094 L63.6450474,69.1621094 L63.6450474,76 L62.6167271,76 L62.3574497,75.362793 L62.3003208,75.362793 C61.9956318,75.8461938 61.531281,76.0878906 60.9072544,76.0878906 Z M61.3774693,75.0200195 C61.7202444,75.0200195 61.9714626,74.9204112 62.1311314,74.7211914 C62.2908001,74.5219717 62.3779575,74.1835961 62.392606,73.7060547 L62.392606,73.5610352 C62.392606,73.0336888 62.311308,72.6557629 62.1487095,72.4272461 C61.986111,72.1987293 61.7217094,72.0844727 61.3554966,72.0844727 C61.056667,72.0844727 60.8244916,72.2111804 60.6589634,72.4645996 C60.4934352,72.7180188 60.4106724,73.0864234 60.4106724,73.5698242 C60.4106724,74.0532251 60.4941677,74.4157703 60.6611607,74.6574707 C60.8281537,74.8991711 61.0669208,75.0200195 61.3774693,75.0200195 Z M67.5962332,70.9946289 C67.7778747,70.9946289 67.9287521,71.0078124 68.0488699,71.0341797 L67.9477957,72.2910156 C67.8393967,72.2617186 67.7075621,72.2470703 67.5522879,72.2470703 C67.1245514,72.2470703 66.7913028,72.3569325 66.552532,72.5766602 C66.3137613,72.7963878 66.1943777,73.1040019 66.1943777,73.4995117 L66.1943777,76 L64.8540457,76 L64.8540457,71.0869141 L65.8691824,71.0869141 L66.0669363,71.9130859 L66.1328543,71.9130859 C66.2851988,71.6376939 66.4910073,71.4157723 66.7502859,71.2473145 C67.0095646,71.0788566 67.2915442,70.9946289 67.5962332,70.9946289 Z M70.6948799,71.9482422 C70.4106988,71.9482422 70.1880448,72.0383292 70.0269112,72.2185059 C69.8657776,72.3986825 69.7734933,72.6542952 69.7500557,72.9853516 L71.6309151,72.9853516 C71.6250557,72.6542952 71.5386308,72.3986825 71.3716378,72.2185059 C71.2046447,72.0383292 70.9790611,71.9482422 70.6948799,71.9482422 Z M70.8838448,76.0878906 C70.0928252,76.0878906 69.4746673,75.8696311 69.0293526,75.4331055 C68.5840379,74.9965798 68.3613839,74.378422 68.3613839,73.5786133 C68.3613839,72.755367 68.5671923,72.1188987 68.9788155,71.6691895 C69.3904386,71.2194802 69.9595248,70.9946289 70.6860909,70.9946289 C71.3804303,70.9946289 71.9209522,71.1923808 72.3076729,71.5878906 C72.6943936,71.9834004 72.887751,72.5297817 72.887751,73.2270508 L72.887751,73.8774414 L69.719294,73.8774414 C69.7339425,74.2583027 69.8467344,74.555663 70.0576729,74.7695312 C70.2686115,74.9833995 70.564507,75.090332 70.9453682,75.090332 C71.2412681,75.090332 71.5210505,75.0595706 71.7847237,74.9980469 C72.0483969,74.9365231 72.3237848,74.8383796 72.6108956,74.7036133 L72.6108956,75.7407227 C72.3765194,75.8579107 72.1260336,75.9450681 71.8594307,76.0021973 C71.5928278,76.0593265 71.2676358,76.0878906 70.8838448,76.0878906 Z M78.3198939,76 L76.9795619,76 L76.9795619,73.1303711 C76.9795619,72.7758771 76.9165742,72.5100107 76.790597,72.3327637 C76.6646198,72.1555167 76.4639382,72.0668945 76.1885462,72.0668945 C75.8135444,72.0668945 75.542551,72.1921374 75.3755579,72.442627 C75.2085649,72.6931165 75.1250697,73.1083955 75.1250697,73.6884766 L75.1250697,76 L73.7847376,76 L73.7847376,71.0869141 L74.8086634,71.0869141 L74.9888392,71.715332 L75.0635462,71.715332 C75.212961,71.4780262 75.4187695,71.2985846 75.6809779,71.177002 C75.9431862,71.0554193 76.2412789,70.9946289 76.575265,70.9946289 C77.1465569,70.9946289 77.5801463,71.1491684 77.8760462,71.458252 C78.1719461,71.7673355 78.3198939,72.213376 78.3198939,72.7963867 L78.3198939,76 Z M82.7325055,68.5073242 L80.271568,77.4897461 L79.1202008,77.4897461 L81.5811383,68.5073242 L82.7325055,68.5073242 Z M30.4957799,83.7260742 C30.4957799,84.7836967 30.1947576,85.5937472 29.5927038,86.15625 C28.99065,86.7187528 28.1212739,87 26.9845495,87 L25.1652135,87 L25.1652135,80.5751953 L27.1823034,80.5751953 C28.2311368,80.5751953 29.0455817,80.852048 29.6256628,81.4057617 C30.2057438,81.9594754 30.4957799,82.7329052 30.4957799,83.7260742 Z M29.0807409,83.7612305 C29.0807409,82.3813408 28.471372,81.6914062 27.2526159,81.6914062 L26.5275182,81.6914062 L26.5275182,85.875 L27.1119909,85.875 C28.4244974,85.875 29.0807409,85.1704172 29.0807409,83.7612305 Z M33.563665,82.9482422 C33.2794839,82.9482422 33.0568298,83.0383292 32.8956962,83.2185059 C32.7345626,83.3986825 32.6422784,83.6542952 32.6188408,83.9853516 L34.4997001,83.9853516 C34.4938407,83.6542952 34.4074158,83.3986825 34.2404228,83.2185059 C34.0734298,83.0383292 33.8478461,82.9482422 33.563665,82.9482422 Z M33.7526298,87.0878906 C32.9616102,87.0878906 32.3434524,86.8696311 31.8981376,86.4331055 C31.4528229,85.9965798 31.2301689,85.378422 31.2301689,84.5786133 C31.2301689,83.755367 31.4359774,83.1188987 31.8476005,82.6691895 C32.2592237,82.2194802 32.8283098,81.9946289 33.5548759,81.9946289 C34.2492153,81.9946289 34.7897373,82.1923808 35.1764579,82.5878906 C35.5631786,82.9834004 35.7565361,83.5297817 35.7565361,84.2270508 L35.7565361,84.8774414 L32.588079,84.8774414 C32.6027275,85.2583027 32.7155194,85.555663 32.9264579,85.7695312 C33.1373965,85.9833995 33.433292,86.090332 33.8141533,86.090332 C34.1100532,86.090332 34.3898355,86.0595706 34.6535087,85.9980469 C34.9171819,85.9365231 35.1925698,85.8383796 35.4796806,85.7036133 L35.4796806,86.7407227 C35.2453044,86.8579107 34.9948186,86.9450681 34.7282158,87.0021973 C34.4616129,87.0593265 34.1364208,87.0878906 33.7526298,87.0878906 Z M39.3517648,87.0878906 C38.7746135,87.0878906 38.3219813,86.8784201 37.9938547,86.4594727 L37.9235422,86.4594727 C37.9704174,86.869631 37.9938547,87.1069333 37.9938547,87.1713867 L37.9938547,89.1621094 L36.6535227,89.1621094 L36.6535227,82.0869141 L37.7433664,82.0869141 L37.9323312,82.7241211 L37.9938547,82.7241211 C38.3073328,82.2377905 38.7716836,81.9946289 39.3869211,81.9946289 C39.9670021,81.9946289 40.4210991,82.2187478 40.7492258,82.6669922 C41.0773524,83.1152366 41.2414133,83.737789 41.2414133,84.534668 C41.2414133,85.0590847 41.1645098,85.5146465 41.0107004,85.9013672 C40.856891,86.2880879 40.6378991,86.5825185 40.353718,86.784668 C40.0695369,86.9868174 39.7355558,87.0878906 39.3517648,87.0878906 Z M38.956257,83.0668945 C38.6252007,83.0668945 38.3835039,83.1687002 38.2311594,83.3723145 C38.0788149,83.5759288 37.9997141,83.912107 37.9938547,84.3808594 L37.9938547,84.5258789 C37.9938547,85.0532253 38.072223,85.4311512 38.2289621,85.659668 C38.3857012,85.8881847 38.6339897,86.0024414 38.9738352,86.0024414 C39.5744241,86.0024414 39.8747141,85.5073292 39.8747141,84.5170898 C39.8747141,84.033689 39.8007402,83.6711438 39.6527902,83.4294434 C39.5048403,83.1877429 39.2726649,83.0668945 38.956257,83.0668945 Z M44.190646,82.9482422 C43.9064649,82.9482422 43.6838108,83.0383292 43.5226772,83.2185059 C43.3615436,83.3986825 43.2692594,83.6542952 43.2458217,83.9853516 L45.1266811,83.9853516 C45.1208217,83.6542952 45.0343968,83.3986825 44.8674038,83.2185059 C44.7004108,83.0383292 44.4748271,82.9482422 44.190646,82.9482422 Z M44.3796108,87.0878906 C43.5885912,87.0878906 42.9704333,86.8696311 42.5251186,86.4331055 C42.0798039,85.9965798 41.8571499,85.378422 41.8571499,84.5786133 C41.8571499,83.755367 42.0629584,83.1188987 42.4745815,82.6691895 C42.8862047,82.2194802 43.4552908,81.9946289 44.1818569,81.9946289 C44.8761963,81.9946289 45.4167182,82.1923808 45.8034389,82.5878906 C46.1901596,82.9834004 46.3835171,83.5297817 46.3835171,84.2270508 L46.3835171,84.8774414 L43.21506,84.8774414 C43.2297085,85.2583027 43.3425004,85.555663 43.5534389,85.7695312 C43.7643775,85.9833995 44.060273,86.090332 44.4411342,86.090332 C44.7370342,86.090332 45.0168165,86.0595706 45.2804897,85.9980469 C45.5441629,85.9365231 45.8195508,85.8383796 46.1066616,85.7036133 L46.1066616,86.7407227 C45.8722854,86.8579107 45.6217996,86.9450681 45.3551967,87.0021973 C45.0885938,87.0593265 44.7634018,87.0878906 44.3796108,87.0878906 Z M51.8156599,87 L50.4753279,87 L50.4753279,84.1303711 C50.4753279,83.7758771 50.4123402,83.5100107 50.286363,83.3327637 C50.1603858,83.1555167 49.9597042,83.0668945 49.6843122,83.0668945 C49.3093104,83.0668945 49.038317,83.1921374 48.871324,83.442627 C48.7043309,83.6931165 48.6208357,84.1083955 48.6208357,84.6884766 L48.6208357,87 L47.2805036,87 L47.2805036,82.0869141 L48.3044294,82.0869141 L48.4846052,82.715332 L48.5593122,82.715332 C48.708727,82.4780262 48.9145355,82.2985846 49.1767439,82.177002 C49.4389522,82.0554193 49.7370449,81.9946289 50.071031,81.9946289 C50.6423229,81.9946289 51.0759123,82.1491684 51.3718122,82.458252 C51.6677122,82.7673355 51.8156599,83.213376 51.8156599,83.7963867 L51.8156599,87 Z M54.5583496,87.0878906 C53.9811983,87.0878906 53.5278337,86.8637718 53.1982422,86.4155273 C52.8686507,85.9672829 52.7038574,85.3461954 52.7038574,84.5522461 C52.7038574,83.746578 52.8715804,83.1188987 53.2070312,82.6691895 C53.5424821,82.2194802 54.0046357,81.9946289 54.5935059,81.9946289 C55.211673,81.9946289 55.683348,82.2348609 56.0085449,82.715332 L56.0524902,82.715332 C55.9851071,82.3491193 55.951416,82.0224624 55.951416,81.7353516 L55.951416,80.1621094 L57.2961426,80.1621094 L57.2961426,87 L56.2678223,87 L56.0085449,86.362793 L55.951416,86.362793 C55.646727,86.8461938 55.1823762,87.0878906 54.5583496,87.0878906 Z M55.0285645,86.0200195 C55.3713396,86.0200195 55.6225578,85.9204112 55.7822266,85.7211914 C55.9418953,85.5219717 56.0290527,85.1835961 56.0437012,84.7060547 L56.0437012,84.5610352 C56.0437012,84.0336888 55.9624032,83.6557629 55.7998047,83.4272461 C55.6372062,83.1987293 55.3728046,83.0844727 55.0065918,83.0844727 C54.7077622,83.0844727 54.4755868,83.2111804 54.3100586,83.4645996 C54.1445304,83.7180188 54.0617676,84.0864234 54.0617676,84.5698242 C54.0617676,85.0532251 54.1452628,85.4157703 54.3122559,85.6574707 C54.4792489,85.8991711 54.718016,86.0200195 55.0285645,86.0200195 Z M60.5398089,82.9482422 C60.2556277,82.9482422 60.0329737,83.0383292 59.8718401,83.2185059 C59.7107065,83.3986825 59.6184223,83.6542952 59.5949846,83.9853516 L61.475844,83.9853516 C61.4699846,83.6542952 61.3835597,83.3986825 61.2165667,83.2185059 C61.0495736,83.0383292 60.82399,82.9482422 60.5398089,82.9482422 Z M60.7287737,87.0878906 C59.9377541,87.0878906 59.3195962,86.8696311 58.8742815,86.4331055 C58.4289668,85.9965798 58.2063128,85.378422 58.2063128,84.5786133 C58.2063128,83.755367 58.4121212,83.1188987 58.8237444,82.6691895 C59.2353676,82.2194802 59.8044537,81.9946289 60.5310198,81.9946289 C61.2253592,81.9946289 61.7658811,82.1923808 62.1526018,82.5878906 C62.5393225,82.9834004 62.7326799,83.5297817 62.7326799,84.2270508 L62.7326799,84.8774414 L59.5642229,84.8774414 C59.5788714,85.2583027 59.6916633,85.555663 59.9026018,85.7695312 C60.1135404,85.9833995 60.4094359,86.090332 60.7902971,86.090332 C61.0861971,86.090332 61.3659794,86.0595706 61.6296526,85.9980469 C61.8933258,85.9365231 62.1687137,85.8383796 62.4558245,85.7036133 L62.4558245,86.7407227 C62.2214483,86.8579107 61.9709625,86.9450681 61.7043596,87.0021973 C61.4377567,87.0593265 61.1125647,87.0878906 60.7287737,87.0878906 Z M68.1648228,87 L66.8244908,87 L66.8244908,84.1303711 C66.8244908,83.7758771 66.7615031,83.5100107 66.6355259,83.3327637 C66.5095487,83.1555167 66.3088671,83.0668945 66.0334751,83.0668945 C65.6584733,83.0668945 65.3874799,83.1921374 65.2204868,83.442627 C65.0534938,83.6931165 64.9699986,84.1083955 64.9699986,84.6884766 L64.9699986,87 L63.6296665,87 L63.6296665,82.0869141 L64.6535923,82.0869141 L64.8337681,82.715332 L64.9084751,82.715332 C65.0578899,82.4780262 65.2636984,82.2985846 65.5259068,82.177002 C65.7881151,82.0554193 66.0862078,81.9946289 66.4201939,81.9946289 C66.9914858,81.9946289 67.4250752,82.1491684 67.7209751,82.458252 C68.016875,82.7673355 68.1648228,83.213376 68.1648228,83.7963867 L68.1648228,87 Z M71.4216727,86.0200195 C71.6560488,86.0200195 71.937296,85.9687505 72.2654227,85.8662109 L72.2654227,86.8637695 C71.9314366,87.0131843 71.5212845,87.0878906 71.0349539,87.0878906 C70.4988184,87.0878906 70.1084415,86.9523939 69.8638113,86.6813965 C69.6191812,86.410399 69.496868,86.003909 69.496868,85.4619141 L69.496868,83.0932617 L68.8552664,83.0932617 L68.8552664,82.5263672 L69.5935477,82.078125 L69.9802664,81.0410156 L70.8372,81.0410156 L70.8372,82.0869141 L72.2126883,82.0869141 L72.2126883,83.0932617 L70.8372,83.0932617 L70.8372,85.4619141 C70.8372,85.6523447 70.8906663,85.7929683 70.9976004,85.8837891 C71.1045345,85.9746098 71.2458905,86.0200195 71.4216727,86.0200195 Z M76.4934639,85.5410156 C76.4934639,86.0449244 76.3184169,86.4287096 75.9683174,86.6923828 C75.618218,86.956056 75.0945416,87.0878906 74.3972725,87.0878906 C74.0398489,87.0878906 73.7351644,87.0637209 73.48321,87.0153809 C73.2312556,86.9670408 72.9954182,86.8959966 72.7756905,86.8022461 L72.7756905,85.6948242 C73.0247152,85.8120123 73.30523,85.9101559 73.6172432,85.9892578 C73.9292565,86.0683598 74.203912,86.1079102 74.4412178,86.1079102 C74.9275484,86.1079102 75.17071,85.9672866 75.17071,85.6860352 C75.17071,85.5805659 75.1384838,85.4948734 75.0740303,85.4289551 C75.0095769,85.3630368 74.8982499,85.2883305 74.740046,85.204834 C74.581842,85.1213375 74.3709067,85.0239263 74.1072335,84.9125977 C73.7293019,84.7543937 73.4517168,84.6079108 73.2744698,84.4731445 C73.0972228,84.3383782 72.9683179,84.1838388 72.887751,84.0095215 C72.8071842,83.8352042 72.7669014,83.6206067 72.7669014,83.3657227 C72.7669014,82.929197 72.9360892,82.5915539 73.2744698,82.3527832 C73.6128504,82.1140125 74.0925819,81.9946289 74.7136788,81.9946289 C75.3054786,81.9946289 75.8811564,82.1235339 76.4407296,82.3813477 L76.0364327,83.3481445 C75.7903377,83.2426753 75.5603595,83.1562503 75.3464913,83.0888672 C75.132623,83.021484 74.9143635,82.987793 74.6917061,82.987793 C74.2961963,82.987793 74.0984444,83.0947255 74.0984444,83.3085938 C74.0984444,83.4287115 74.1621645,83.5327144 74.2896065,83.6206055 C74.4170486,83.7084965 74.6960985,83.8388663 75.1267647,84.0117188 C75.5105557,84.166993 75.7918029,84.312011 75.9705147,84.4467773 C76.1492265,84.5815436 76.2810612,84.7368155 76.3660225,84.9125977 C76.4509839,85.0883798 76.4934639,85.2978503 76.4934639,85.5410156 Z" id="Have-Children/-Depen" fill="#16A5AA"></path>
                <path d="M39.6964286,12.9526316 C36.3035714,14.7421053 33.4464286,17.3368421 31.3928571,20.4684211 L50.3214286,31.3842105 L39.6964286,12.9526316 Z" id="Shape" fill="#9ECA43" fill-rule="nonzero"></path>
                <path d="M50.3214286,31.3842105 L50.3214286,10.3578947 C46.4821429,10.3578947 42.8214286,11.2526316 39.6964286,12.9526316 L50.3214286,31.3842105 L50.3214286,31.3842105 Z" id="Shape" fill="#82BC00" fill-rule="nonzero"></path>
                <rect id="Rectangle-path" fill="#000000" fill-rule="nonzero" transform="translate(50.817406, 31.055153) rotate(-78.649614) translate(-50.817406, -31.055153) " x="50.3166366" y="30.555913" width="1" height="1"></rect>
                <path d="M31.3928571,20.4684211 C29.3392857,23.6894737 28.0892857,27.3578947 28.0892857,31.3842105 L50.3214286,31.3842105 L50.3214286,31.3842105 L31.3928571,20.4684211 Z" id="Shape" fill="#82BC00" fill-rule="nonzero"></path>
                <path d="M77.5535714,26.1947368 C77.2857143,25.9263158 76.75,25.8368421 76.4821429,26.1052632 L70.8571429,31.2947368 L72.1071429,31.2947368 C72.0178571,31.7421053 71.9285714,32.1 71.75,32.5473684 L77.5535714,27.1789474 C77.8214286,27 77.8214286,26.4631579 77.5535714,26.1947368 Z" id="Shape" fill="#4D4D4D" fill-rule="nonzero"></path>
                <path d="M70.7678571,31.3842105 L28.0892857,31.3842105 C30.5892857,41.2263158 39.4285714,48.4736842 50.0535714,48.4736842 C60.2321429,48.4736842 68.8035714,41.7631579 71.6607143,32.5473684 C71.75,32.1894737 71.9285714,31.7421053 72.0178571,31.2947368 L70.7678571,31.2947368 L70.7678571,31.3842105 Z" id="Shape" fill="#9ECA43" fill-rule="nonzero"></path>
                <ellipse id="Oval" fill="#AFAFAF" fill-rule="nonzero" cx="35.1428571" cy="54.9157895" rx="6.07142857" ry="6.08421053"></ellipse>
                <ellipse id="Oval" fill="#AFAFAF" fill-rule="nonzero" cx="64.9642857" cy="54.9157895" rx="6.07142857" ry="6.08421053"></ellipse>
                <ellipse id="Oval" fill="#EEF0F2" fill-rule="nonzero" cx="35.1428571" cy="54.9157895" rx="1.33928571" ry="1.34210526"></ellipse>
                <ellipse id="Oval" fill="#EEF0F2" fill-rule="nonzero" cx="64.9642857" cy="54.9157895" rx="1.33928571" ry="1.34210526"></ellipse>
                <path d="M35.1428571,55.7210526 C34.9642857,55.7210526 34.6964286,55.6315789 34.6071429,55.4526316 C34.3392857,55.1842105 34.3392857,54.6473684 34.6071429,54.3789474 L42.5535714,46.9526316 C42.8214286,46.6842105 43.3571429,46.6842105 43.625,46.9526316 C43.8928571,47.2210526 43.8928571,47.7578947 43.625,48.0263158 L35.6785714,55.4526316 C35.5,55.6315789 35.3214286,55.7210526 35.1428571,55.7210526 Z" id="Shape" fill="#4D4D4D" fill-rule="nonzero"></path>
                <path d="M64.9642857,55.7210526 C64.7857143,55.7210526 64.6071429,55.6315789 64.4285714,55.5421053 L56.5714286,48.1157895 C56.3035714,47.8473684 56.2142857,47.3105263 56.5714286,47.0421053 C56.8392857,46.7736842 57.375,46.6842105 57.6428571,47.0421053 L65.5892857,54.4684211 C65.8571429,54.7368421 65.9464286,55.2736842 65.5892857,55.5421053 C65.4107143,55.6315789 65.2321429,55.7210526 64.9642857,55.7210526 Z" id="Shape" fill="#4D4D4D" fill-rule="nonzero"></path>
                <path d="M56.8392857,57.0631579 L43.2678571,57.0631579 C42.8214286,57.0631579 42.4642857,56.7052632 42.4642857,56.2578947 C42.4642857,55.8105263 42.8214286,55.5421053 43.2678571,55.5421053 L56.8392857,55.5421053 C57.2857143,55.5421053 57.5535714,55.9 57.5535714,56.2578947 C57.6428571,56.7947368 57.2857143,57.0631579 56.8392857,57.0631579 Z" id="Shape" fill="#4D4D4D" fill-rule="nonzero"></path>
            </g>
        </g>
    </g>
</svg>