<?xml version="1.0" encoding="UTF-8" standalone="no"?>
<svg width="101px" height="102px" viewBox="0 0 101 102" version="1.1" xmlns="http://www.w3.org/2000/svg" xmlns:xlink="http://www.w3.org/1999/xlink">
    <!-- Generator: Sketch 45.1 (43504) - http://www.bohemiancoding.com/sketch -->
    <title>btn-life-medical-static</title>
    <desc>Created with Sketch.</desc>
    <defs>
        <ellipse id="path-1" cx="50.5" cy="51" rx="48.5576923" ry="49.0384615"></ellipse>
    </defs>
    <g id="Symbols" stroke="none" stroke-width="1" fill="none" fill-rule="evenodd">
        <g id="btn-life-medical-static">
            <g id="Event-Circle-Static">
                <g id="Oval-3">
                    <use fill="#FFFFFF" fill-rule="evenodd" xlink:href="#path-1"></use>
                    <ellipse stroke="#A0A0A0" stroke-width="2" cx="50.5" cy="51" rx="49.5576923" ry="50.0384615"></ellipse>
                </g>
            </g>
            <path d="M37.7726493,76 L36.2257743,70.9594727 L36.1862236,70.9594727 C36.2418879,71.9848684 36.2697197,72.6689436 36.2697197,73.0117188 L36.2697197,76 L35.0524345,76 L35.0524345,69.5751953 L36.9069267,69.5751953 L38.4274345,74.4882812 L38.4538017,74.4882812 L40.0665947,69.5751953 L41.9210868,69.5751953 L41.9210868,76 L40.6510673,76 L40.6510673,72.9589844 C40.6510673,72.815429 40.6532646,72.6499033 40.6576591,72.4624023 C40.6620537,72.2749014 40.6818289,71.7768595 40.7169853,70.9682617 L40.6774345,70.9682617 L39.0206962,76 L37.7726493,76 Z M45.2746164,71.9482422 C44.9904353,71.9482422 44.7677813,72.0383292 44.6066477,72.2185059 C44.445514,72.3986825 44.3532298,72.6542952 44.3297922,72.9853516 L46.2106516,72.9853516 C46.2047922,72.6542952 46.1183672,72.3986825 45.9513742,72.2185059 C45.7843812,72.0383292 45.5587975,71.9482422 45.2746164,71.9482422 Z M45.4635812,76.0878906 C44.6725617,76.0878906 44.0544038,75.8696311 43.6090891,75.4331055 C43.1637743,74.9965798 42.9411203,74.378422 42.9411203,73.5786133 C42.9411203,72.755367 43.1469288,72.1188987 43.558552,71.6691895 C43.9701751,71.2194802 44.5392612,70.9946289 45.2658273,70.9946289 C45.9601668,70.9946289 46.5006887,71.1923808 46.8874094,71.5878906 C47.2741301,71.9834004 47.4674875,72.5297817 47.4674875,73.2270508 L47.4674875,73.8774414 L44.2990305,73.8774414 C44.313679,74.2583027 44.4264708,74.555663 44.6374094,74.7695312 C44.8483479,74.9833995 45.1442434,75.090332 45.5251047,75.090332 C45.8210046,75.090332 46.100787,75.0595706 46.3644602,74.9980469 C46.6281333,74.9365231 46.9035212,74.8383796 47.190632,74.7036133 L47.190632,75.7407227 C46.9562559,75.8579107 46.7057701,75.9450681 46.4391672,76.0021973 C46.1725643,76.0593265 45.8473722,76.0878906 45.4635812,76.0878906 Z M49.9201382,76.0878906 C49.3429868,76.0878906 48.8896222,75.8637718 48.5600307,75.4155273 C48.2304392,74.9672829 48.065646,74.3461954 48.065646,73.5522461 C48.065646,72.746578 48.2333689,72.1188987 48.5688198,71.6691895 C48.9042707,71.2194802 49.3664243,70.9946289 49.9552944,70.9946289 C50.5734616,70.9946289 51.0451365,71.2348609 51.3703335,71.715332 L51.4142788,71.715332 C51.3468956,71.3491193 51.3132046,71.0224624 51.3132046,70.7353516 L51.3132046,69.1621094 L52.6579311,69.1621094 L52.6579311,76 L51.6296108,76 L51.3703335,75.362793 L51.3132046,75.362793 C51.0085155,75.8461938 50.5441647,76.0878906 49.9201382,76.0878906 Z M50.390353,75.0200195 C50.7331281,75.0200195 50.9843463,74.9204112 51.1440151,74.7211914 C51.3036839,74.5219717 51.3908412,74.1835961 51.4054897,73.7060547 L51.4054897,73.5610352 C51.4054897,73.0336888 51.3241917,72.6557629 51.1615932,72.4272461 C50.9989948,72.1987293 50.7345931,72.0844727 50.3683803,72.0844727 C50.0695507,72.0844727 49.8373753,72.2111804 49.6718471,72.4645996 C49.506319,72.7180188 49.4235561,73.0864234 49.4235561,73.5698242 C49.4235561,74.0532251 49.5070514,74.4157703 49.6740444,74.6574707 C49.8410374,74.8991711 50.0798046,75.0200195 50.390353,75.0200195 Z M53.8098005,69.8168945 C53.8098005,69.3803689 54.0529622,69.1621094 54.5392927,69.1621094 C55.0256233,69.1621094 55.2687849,69.3803689 55.2687849,69.8168945 C55.2687849,70.0249034 55.2079945,70.186767 55.0864118,70.3024902 C54.9648292,70.4182135 54.782458,70.4760742 54.5392927,70.4760742 C54.0529622,70.4760742 53.8098005,70.2563499 53.8098005,69.8168945 Z M55.2072615,76 L53.8669294,76 L53.8669294,71.0869141 L55.2072615,71.0869141 L55.2072615,76 Z M58.4157715,76.0878906 C56.886467,76.0878906 56.1218262,75.2485435 56.1218262,73.5698242 C56.1218262,72.7348591 56.3298319,72.096926 56.7458496,71.6560059 C57.1618673,71.2150857 57.7580528,70.9946289 58.5344238,70.9946289 C59.102786,70.9946289 59.6125466,71.1059559 60.0637207,71.3286133 L59.6682129,72.3657227 C59.4572743,72.2807613 59.2609872,72.2111819 59.0793457,72.1569824 C58.8977042,72.1027829 58.7160654,72.0756836 58.5344238,72.0756836 C57.8371547,72.0756836 57.4885254,72.5707958 57.4885254,73.5610352 C57.4885254,74.5219775 57.8371547,75.0024414 58.5344238,75.0024414 C58.7922376,75.0024414 59.0310048,74.9680179 59.2507324,74.8991699 C59.4704601,74.8303219 59.6901844,74.722657 59.9099121,74.5761719 L59.9099121,75.7231445 C59.6931142,75.8608405 59.4741222,75.9560544 59.2529297,76.0087891 C59.0317372,76.0615237 58.7526872,76.0878906 58.4157715,76.0878906 Z M63.9753557,76 L63.7160784,75.3320312 L63.6809221,75.3320312 C63.4553351,75.6162124 63.2231597,75.8132319 62.9843889,75.9230957 C62.7456182,76.0329595 62.434342,76.0878906 62.050551,76.0878906 C61.578869,76.0878906 61.2075348,75.9531263 60.9365374,75.6835938 C60.6655399,75.4140612 60.5300432,75.0302759 60.5300432,74.5322266 C60.5300432,74.0107396 60.7124145,73.6262219 61.0771624,73.3786621 C61.4419103,73.1311023 61.9919536,72.9941408 62.7273089,72.9677734 L63.5798479,72.9414062 L63.5798479,72.7260742 C63.5798479,72.2280249 63.3249677,71.9790039 62.8151995,71.9790039 C62.4226194,71.9790039 61.9611982,72.0976551 61.4309221,72.3349609 L60.9870745,71.4296875 C61.552507,71.1337876 62.1794538,70.9858398 62.8679339,70.9858398 C63.5271168,70.9858398 64.0324829,71.1293931 64.3840471,71.4165039 C64.7356114,71.7036147 64.9113909,72.1401338 64.9113909,72.7260742 L64.9113909,76 L63.9753557,76 Z M63.5798479,73.7236328 L63.0612932,73.7412109 C62.6716428,73.7529297 62.3816067,73.8232415 62.191176,73.9521484 C62.0007454,74.0810553 61.9055315,74.2773424 61.9055315,74.5410156 C61.9055315,74.9189472 62.1223262,75.1079102 62.5559221,75.1079102 C62.8664706,75.1079102 63.1147591,75.0185556 63.3007952,74.8398438 C63.4868313,74.6611319 63.5798479,74.4238296 63.5798479,74.1279297 L63.5798479,73.7236328 Z M67.4387486,76 L66.0984165,76 L66.0984165,69.1621094 L67.4387486,69.1621094 L67.4387486,76 Z M35.5622001,87 L31.8620048,87 L31.8620048,80.5751953 L35.5622001,80.5751953 L35.5622001,81.6914062 L33.2243095,81.6914062 L33.2243095,83.1020508 L35.3996025,83.1020508 L35.3996025,84.2182617 L33.2243095,84.2182617 L33.2243095,85.875 L35.5622001,85.875 L35.5622001,87 Z M37.6105539,84.4907227 L36.0285227,82.0869141 L37.5490305,82.0869141 L38.5026437,83.6513672 L39.4650461,82.0869141 L40.9855539,82.0869141 L39.3859445,84.4907227 L41.0602609,87 L39.5353586,87 L38.5026437,85.3168945 L37.4655344,87 L35.9450266,87 L37.6105539,84.4907227 Z M44.3127163,87.0878906 C43.735565,87.0878906 43.2829328,86.8784201 42.9548061,86.4594727 L42.8844936,86.4594727 C42.9313689,86.869631 42.9548061,87.1069333 42.9548061,87.1713867 L42.9548061,89.1621094 L41.6144741,89.1621094 L41.6144741,82.0869141 L42.7043178,82.0869141 L42.8932827,82.7241211 L42.9548061,82.7241211 C43.2682842,82.2377905 43.7326351,81.9946289 44.3478725,81.9946289 C44.9279536,81.9946289 45.3820506,82.2187478 45.7101772,82.6669922 C46.0383039,83.1152366 46.2023647,83.737789 46.2023647,84.534668 C46.2023647,85.0590847 46.1254612,85.5146465 45.9716518,85.9013672 C45.8178425,86.2880879 45.5988505,86.5825185 45.3146694,86.784668 C45.0304883,86.9868174 44.6965073,87.0878906 44.3127163,87.0878906 Z M43.9172085,83.0668945 C43.5861521,83.0668945 43.3444553,83.1687002 43.1921108,83.3723145 C43.0397663,83.5759288 42.9606655,83.912107 42.9548061,84.3808594 L42.9548061,84.5258789 C42.9548061,85.0532253 43.0331745,85.4311512 43.1899135,85.659668 C43.3466526,85.8881847 43.5949411,86.0024414 43.9347866,86.0024414 C44.5353755,86.0024414 44.8356655,85.5073292 44.8356655,84.5170898 C44.8356655,84.033689 44.7616916,83.6711438 44.6137417,83.4294434 C44.4657917,83.1877429 44.2336163,83.0668945 43.9172085,83.0668945 Z M49.1515974,82.9482422 C48.8674163,82.9482422 48.6447623,83.0383292 48.4836286,83.2185059 C48.322495,83.3986825 48.2302108,83.6542952 48.2067732,83.9853516 L50.0876326,83.9853516 C50.0817731,83.6542952 49.9953482,83.3986825 49.8283552,83.2185059 C49.6613622,83.0383292 49.4357785,82.9482422 49.1515974,82.9482422 Z M49.3405622,87.0878906 C48.5495427,87.0878906 47.9313848,86.8696311 47.4860701,86.4331055 C47.0407553,85.9965798 46.8181013,85.378422 46.8181013,84.5786133 C46.8181013,83.755367 47.0239098,83.1188987 47.4355329,82.6691895 C47.8471561,82.2194802 48.4162422,81.9946289 49.1428083,81.9946289 C49.8371477,81.9946289 50.3776697,82.1923808 50.7643904,82.5878906 C51.151111,82.9834004 51.3444685,83.5297817 51.3444685,84.2270508 L51.3444685,84.8774414 L48.1760115,84.8774414 C48.19066,85.2583027 48.3034518,85.555663 48.5143904,85.7695312 C48.7253289,85.9833995 49.0212244,86.090332 49.4020857,86.090332 C49.6979856,86.090332 49.977768,86.0595706 50.2414411,85.9980469 C50.5051143,85.9365231 50.7805022,85.8383796 51.067613,85.7036133 L51.067613,86.7407227 C50.8332368,86.8579107 50.5827511,86.9450681 50.3161482,87.0021973 C50.0495453,87.0593265 49.7243532,87.0878906 49.3405622,87.0878906 Z M56.7766113,87 L55.4362793,87 L55.4362793,84.1303711 C55.4362793,83.7758771 55.3732916,83.5100107 55.2473145,83.3327637 C55.1213373,83.1555167 54.9206557,83.0668945 54.6452637,83.0668945 C54.2702618,83.0668945 53.9992684,83.1921374 53.8322754,83.442627 C53.6652824,83.6931165 53.5817871,84.1083955 53.5817871,84.6884766 L53.5817871,87 L52.2414551,87 L52.2414551,82.0869141 L53.2653809,82.0869141 L53.4455566,82.715332 L53.5202637,82.715332 C53.6696785,82.4780262 53.875487,82.2985846 54.1376953,82.177002 C54.3999037,82.0554193 54.6979964,81.9946289 55.0319824,81.9946289 C55.6032743,81.9946289 56.0368638,82.1491684 56.3327637,82.458252 C56.6286636,82.7673355 56.7766113,83.213376 56.7766113,83.7963867 L56.7766113,87 Z M61.3913714,85.5410156 C61.3913714,86.0449244 61.2163243,86.4287096 60.8662249,86.6923828 C60.5161255,86.956056 59.9924491,87.0878906 59.2951799,87.0878906 C58.9377563,87.0878906 58.6330718,87.0637209 58.3811174,87.0153809 C58.1291631,86.9670408 57.8933256,86.8959966 57.6735979,86.8022461 L57.6735979,85.6948242 C57.9226226,85.8120123 58.2031374,85.9101559 58.5151507,85.9892578 C58.8271639,86.0683598 59.1018194,86.1079102 59.3391253,86.1079102 C59.8254558,86.1079102 60.0686174,85.9672866 60.0686174,85.6860352 C60.0686174,85.5805659 60.0363912,85.4948734 59.9719378,85.4289551 C59.9074843,85.3630368 59.7961573,85.2883305 59.6379534,85.204834 C59.4797495,85.1213375 59.2688141,85.0239263 59.0051409,84.9125977 C58.6272093,84.7543937 58.3496242,84.6079108 58.1723772,84.4731445 C57.9951302,84.3383782 57.8662253,84.1838388 57.7856585,84.0095215 C57.7050917,83.8352042 57.6648089,83.6206067 57.6648089,83.3657227 C57.6648089,82.929197 57.8339966,82.5915539 58.1723772,82.3527832 C58.5107578,82.1140125 58.9904893,81.9946289 59.6115862,81.9946289 C60.203386,81.9946289 60.7790639,82.1235339 61.338637,82.3813477 L60.9343401,83.3481445 C60.6882451,83.2426753 60.458267,83.1562503 60.2443987,83.0888672 C60.0305304,83.021484 59.8122709,82.987793 59.5896135,82.987793 C59.1941038,82.987793 58.9963518,83.0947255 58.9963518,83.3085938 C58.9963518,83.4287115 59.0600719,83.5327144 59.1875139,83.6206055 C59.314956,83.7084965 59.5940059,83.8388663 60.0246721,84.0117188 C60.4084631,84.166993 60.6897103,84.312011 60.8684221,84.4467773 C61.047134,84.5815436 61.1789686,84.7368155 61.2639299,84.9125977 C61.3488913,85.0883798 61.3913714,85.2978503 61.3913714,85.5410156 Z M64.2790806,82.9482422 C63.9948995,82.9482422 63.7722455,83.0383292 63.6111118,83.2185059 C63.4499782,83.3986825 63.357694,83.6542952 63.3342564,83.9853516 L65.2151158,83.9853516 C65.2092564,83.6542952 65.1228314,83.3986825 64.9558384,83.2185059 C64.7888454,83.0383292 64.5632617,82.9482422 64.2790806,82.9482422 Z M64.4680454,87.0878906 C63.6770259,87.0878906 63.058868,86.8696311 62.6135533,86.4331055 C62.1682385,85.9965798 61.9455845,85.378422 61.9455845,84.5786133 C61.9455845,83.755367 62.151393,83.1188987 62.5630161,82.6691895 C62.9746393,82.2194802 63.5437254,81.9946289 64.2702915,81.9946289 C64.9646309,81.9946289 65.5051529,82.1923808 65.8918736,82.5878906 C66.2785943,82.9834004 66.4719517,83.5297817 66.4719517,84.2270508 L66.4719517,84.8774414 L63.3034947,84.8774414 C63.3181432,85.2583027 63.430935,85.555663 63.6418736,85.7695312 C63.8528121,85.9833995 64.1487076,86.090332 64.5295689,86.090332 C64.8254688,86.090332 65.1052512,86.0595706 65.3689243,85.9980469 C65.6325975,85.9365231 65.9079854,85.8383796 66.1950962,85.7036133 L66.1950962,86.7407227 C65.9607201,86.8579107 65.7102343,86.9450681 65.4436314,87.0021973 C65.1770285,87.0593265 64.8518364,87.0878906 64.4680454,87.0878906 Z M70.7966727,85.5410156 C70.7966727,86.0449244 70.6216256,86.4287096 70.2715262,86.6923828 C69.9214268,86.956056 69.3977504,87.0878906 68.7004813,87.0878906 C68.3430576,87.0878906 68.0383731,87.0637209 67.7864188,87.0153809 C67.5344644,86.9670408 67.2986269,86.8959966 67.0788992,86.8022461 L67.0788992,85.6948242 C67.3279239,85.8120123 67.6084387,85.9101559 67.920452,85.9892578 C68.2324652,86.0683598 68.5071207,86.1079102 68.7444266,86.1079102 C69.2307571,86.1079102 69.4739188,85.9672866 69.4739188,85.6860352 C69.4739188,85.5805659 69.4416925,85.4948734 69.3772391,85.4289551 C69.3127856,85.3630368 69.2014586,85.2883305 69.0432547,85.204834 C68.8850508,85.1213375 68.6741154,85.0239263 68.4104422,84.9125977 C68.0325106,84.7543937 67.7549255,84.6079108 67.5776785,84.4731445 C67.4004315,84.3383782 67.2715266,84.1838388 67.1909598,84.0095215 C67.110393,83.8352042 67.0701102,83.6206067 67.0701102,83.3657227 C67.0701102,82.929197 67.2392979,82.5915539 67.5776785,82.3527832 C67.9160591,82.1140125 68.3957906,81.9946289 69.0168875,81.9946289 C69.6086873,81.9946289 70.1843652,82.1235339 70.7439383,82.3813477 L70.3396414,83.3481445 C70.0935464,83.2426753 69.8635683,83.1562503 69.6497,83.0888672 C69.4358317,83.021484 69.2175722,82.987793 68.9949148,82.987793 C68.5994051,82.987793 68.4016531,83.0947255 68.4016531,83.3085938 C68.4016531,83.4287115 68.4653732,83.5327144 68.5928152,83.6206055 C68.7202573,83.7084965 68.9993072,83.8388663 69.4299734,84.0117188 C69.8137644,84.166993 70.0950116,84.312011 70.2737234,84.4467773 C70.4524353,84.5815436 70.5842699,84.7368155 70.6692313,84.9125977 C70.7541926,85.0883798 70.7966727,85.2978503 70.7966727,85.5410156 Z" id="Medical-Expenses" fill="#16A5AA"></path>
            <g id="Group-32" transform="translate(17.000000, 19.000000)">
                <path d="M7.03742453,33.331 L3.30463208,33.331 C1.52523585,33.331 0.092745283,31.6121111 0.092745283,29.541 L0.092745283,25.9271111 C0.092745283,24.2087778 0.483424528,22.6221111 1.74191509,21.2121111 C2.95717925,19.8015556 20.3188774,4.50933333 22.4025,2.83488889 C24.2688962,1.33655556 25.1372547,0.543222222 27.3505566,0.499333333 C29.6076321,0.454888889 54.6083679,0.499333333 54.6083679,0.499333333 C56.3883113,0.499333333 57.8202547,2.21766667 57.8202547,4.28933333 L57.8202547,29.541 C57.8202547,31.6565556 56.3883113,33.331 54.6083679,33.331 L52.221066,33.331 L7.03742453,33.331 Z" id="Fill-6" fill="#9FCA43"></path>
                <path d="M30.2587094,23.4153889 L30.2587094,0.455388889 L27.4375019,0.455388889 C25.1804264,0.499277778 24.3120679,1.24816667 22.4894453,2.79094444 C20.4058226,4.46538889 3.04412453,19.7137222 1.82886038,21.1676111 C1.1777283,21.8731667 0.743822642,22.6220556 0.570369811,23.4592778 L30.2587094,23.4592778 L30.2587094,23.4153889 Z" id="Fill-8" fill="#C5DD8C"></path>
                <path d="M26.1352925,5.91977778 L26.1352925,19.0086667 C26.1352925,19.537 25.7013868,19.9781111 25.1804811,19.9781111 L9.68517925,19.9781111 C9.72840566,19.9336667 26.1352925,5.91977778 26.1352925,5.91977778" id="Fill-10" fill="#818385"></path>
                <path d="M24.702966,9.04872222 L24.702966,17.8626111 C24.702966,18.2592778 24.4425132,18.5237222 24.051834,18.5237222 L13.6780415,18.5237222 C13.6780415,18.4798333 24.702966,9.04872222 24.702966,9.04872222" id="Fill-12" fill="#F3F4F5"></path>
                <path d="M0.136135849,27.1172222 L0.136135849,29.4972222 C0.136135849,31.6122222 1.56862642,33.2872222 3.34802264,33.2872222 L7.08081509,33.2872222 L52.2650038,33.2872222 L54.6955321,33.2872222 C56.4749283,33.2872222 57.9074189,31.6122222 57.9074189,29.4972222 L57.9074189,27.1172222 L0.136135849,27.1172222 Z" id="Fill-14" fill="#82BC41"></path>
                <path d="M18.4093642,33.2428889 C18.4093642,36.7245556 15.631383,39.5006667 12.2460434,39.5006667 C8.8601566,39.5006667 6.08272264,36.6801111 6.08272264,33.2428889 C6.08272264,29.8056667 8.8601566,26.9851111 12.2460434,26.9851111 C15.718383,26.9851111 18.4093642,29.7612222 18.4093642,33.2428889" id="Fill-16" fill="#5B5B5C"></path>
                <path d="M15.7182736,33.2428889 C15.7182736,35.1378889 14.1555566,36.7245556 12.2891604,36.7245556 C10.4227642,36.7245556 8.86059434,35.1378889 8.86059434,33.2428889 C8.86059434,31.3478889 10.4227642,29.7612222 12.2891604,29.7612222 C14.1555566,29.7612222 15.7182736,31.3478889 15.7182736,33.2428889" id="Fill-18" fill="#818385"></path>
                <path d="M8.90376604,33.2428889 C8.90376604,31.3478889 10.466483,29.7612222 12.3328792,29.7612222 C14.1992755,29.7612222 15.7614453,31.3478889 15.7614453,33.2428889 L8.90376604,33.2428889 Z" id="Fill-20" fill="#A9A8A8"></path>
                <path d="M51.7872698,33.2869444 C51.7872698,36.7686111 49.0092887,39.5447222 45.6239491,39.5447222 C42.1948358,39.5447222 39.4606283,36.7241667 39.4606283,33.2869444 C39.4606283,29.8497222 42.2380623,27.0291667 45.6239491,27.0291667 C49.0092887,26.9847222 51.7872698,29.8052778 51.7872698,33.2869444" id="Fill-22" fill="#5B5B5C"></path>
                <path d="M49.0093981,33.2869444 C49.0093981,35.1819444 47.4466811,36.7686111 45.5802849,36.7686111 C43.7138887,36.7686111 42.1517189,35.1819444 42.1517189,33.2869444 C42.1517189,31.3919444 43.7138887,29.8052778 45.5802849,29.8052778 C47.5336811,29.8052778 49.0093981,31.3480556 49.0093981,33.2869444" id="Fill-24" fill="#818385"></path>
                <path d="M42.2383358,33.2428889 C42.2383358,31.3478889 43.8010528,29.7612222 45.6674491,29.7612222 C47.5338453,29.7612222 49.0960151,31.3478889 49.0960151,33.2428889 L42.2383358,33.2428889 Z" id="Fill-26" fill="#A9A8A8"></path>
                <path d="M51.9174962,13.8522778 C51.9174962,19.1406111 47.7070245,23.4156111 42.4985151,23.4156111 C37.2900057,23.4156111 33.0800811,19.1406111 33.0800811,13.8522778 C33.0800811,8.56394444 37.2900057,4.28894444 42.4985151,4.28894444 C47.7070245,4.28894444 51.9174962,8.56394444 51.9174962,13.8522778" id="Fill-28" fill="#3EABC7"></path>
                <polygon id="Fill-30" fill="#F3F4F5" points="47.9243057 11.9132222 44.4087396 11.9132222 44.4087396 8.34377778 40.5889472 8.34377778 40.5889472 11.9132222 37.1166075 11.9132222 37.1166075 15.7915556 40.5889472 15.7915556 40.5889472 19.361 44.4087396 19.361 44.4087396 15.7915556 47.9243057 15.7915556"></polygon>
            </g>
        </g>
    </g>
</svg>