<?xml version="1.0" encoding="UTF-8" standalone="no"?>
<svg width="101px" height="102px" viewBox="0 0 101 102" version="1.1" xmlns="http://www.w3.org/2000/svg" xmlns:xlink="http://www.w3.org/1999/xlink">
    <!-- Generator: Sketch 45.1 (43504) - http://www.bohemiancoding.com/sketch -->
    <title>btn-life-charity-static</title>
    <desc>Created with Sketch.</desc>
    <defs>
        <ellipse id="path-1" cx="50.5" cy="51" rx="48.5576923" ry="49.0384615"></ellipse>
        <path d="M5.48538992e-12,5.38660841 C0.0173102784,5.44768435 0.033060226,5.50824845 0.047,5.56802857 C0.187,4.71649524 0.7025,3.81801905 0.9835,3.39250476 C2.061,1.59504762 3.888,0.365952381 6.043,0.365952381 C9.3685,0.365952381 12.0855,3.43944762 12.1325,7.08130476 C12.1325,7.12824762 12.0855,7.64865714 12.0855,7.88488571 C11.43,13.7017619 0.5155,24.3416381 0.234,24.625819 L0.047,24.8146 L-1.70530257e-13,24.7672789 L-8.52651283e-14,5.38660841 L5.48538992e-12,5.38660841 Z" id="path-2"></path>
    </defs>
    <g id="Symbols" stroke="none" stroke-width="1" fill="none" fill-rule="evenodd">
        <g id="btn-life-charity-static">
            <g id="Event-Circle-Static">
                <g id="Oval-3">
                    <use fill="#FFFFFF" fill-rule="evenodd" xlink:href="#path-1"></use>
                    <ellipse stroke="#A0A0A0" stroke-width="2" cx="50.5" cy="51" rx="49.5576923" ry="50.0384615"></ellipse>
                </g>
            </g>
            <path d="M29.2880023,72.7260742 C29.2880023,73.7836967 28.98698,74.5937472 28.3849262,75.15625 C27.7828724,75.7187528 26.9134963,76 25.7767719,76 L23.9574359,76 L23.9574359,69.5751953 L25.9745258,69.5751953 C27.0233591,69.5751953 27.8378041,69.852048 28.4178852,70.4057617 C28.9979662,70.9594754 29.2880023,71.7329052 29.2880023,72.7260742 Z M27.8729633,72.7612305 C27.8729633,71.3813408 27.2635944,70.6914062 26.0448383,70.6914062 L25.3197406,70.6914062 L25.3197406,74.875 L25.9042133,74.875 C27.2167198,74.875 27.8729633,74.1704172 27.8729633,72.7612305 Z M31.3890905,73.534668 C31.3890905,74.0209985 31.4689237,74.3886706 31.6285924,74.6376953 C31.7882612,74.88672 32.0482684,75.0112305 32.4086217,75.0112305 C32.7660454,75.0112305 33.0231229,74.8874524 33.179862,74.6398926 C33.336601,74.3923327 33.4149694,74.0239282 33.4149694,73.534668 C33.4149694,73.0483374 33.3358686,72.683595 33.1776647,72.4404297 C33.0194608,72.1972644 32.760186,72.0756836 32.3998327,72.0756836 C32.042409,72.0756836 31.7845991,72.196532 31.6263952,72.4382324 C31.4681913,72.6799328 31.3890905,73.0454077 31.3890905,73.534668 Z M34.7860631,73.534668 C34.7860631,74.3344767 34.5751278,74.9599587 34.1532506,75.4111328 C33.7313735,75.8623069 33.1439771,76.0878906 32.3910436,76.0878906 C31.9193616,76.0878906 31.5033501,75.9846202 31.1429967,75.7780762 C30.7826434,75.5715322 30.5057907,75.2749043 30.3124303,74.8881836 C30.11907,74.5014629 30.0223913,74.0502955 30.0223913,73.534668 C30.0223913,72.7319296 30.2318618,72.1079124 30.6508092,71.6625977 C31.0697567,71.2172829 31.6586179,70.9946289 32.4174108,70.9946289 C32.8890929,70.9946289 33.3051043,71.0971669 33.6654577,71.3022461 C34.025811,71.5073252 34.3026637,71.8017559 34.4960241,72.1855469 C34.6893844,72.5693379 34.7860631,73.0190404 34.7860631,73.534668 Z M40.2357841,76 L38.8954521,76 L38.8954521,73.1303711 C38.8954521,72.7758771 38.8324644,72.5100107 38.7064872,72.3327637 C38.58051,72.1555167 38.3798285,72.0668945 38.1044365,72.0668945 C37.7294346,72.0668945 37.4584412,72.1921374 37.2914482,72.442627 C37.1244552,72.6931165 37.0409599,73.1083955 37.0409599,73.6884766 L37.0409599,76 L35.7006279,76 L35.7006279,71.0869141 L36.7245536,71.0869141 L36.9047294,71.715332 L36.9794365,71.715332 C37.1288513,71.4780262 37.3346598,71.2985846 37.5968681,71.177002 C37.8590764,71.0554193 38.1571692,70.9946289 38.4911552,70.9946289 C39.0624471,70.9946289 39.4960365,71.1491684 39.7919365,71.458252 C40.0878364,71.7673355 40.2357841,72.213376 40.2357841,72.7963867 L40.2357841,76 Z M44.542927,76 L44.2836496,75.3320312 L44.2484934,75.3320312 C44.0229063,75.6162124 43.7907309,75.8132319 43.5519602,75.9230957 C43.3131894,76.0329595 43.0019132,76.0878906 42.6181223,76.0878906 C42.1464402,76.0878906 41.775106,75.9531263 41.5041086,75.6835938 C41.2331111,75.4140612 41.0976145,75.0302759 41.0976145,74.5322266 C41.0976145,74.0107396 41.2799857,73.6262219 41.6447336,73.3786621 C42.0094815,73.1311023 42.5595248,72.9941408 43.2948801,72.9677734 L44.1474191,72.9414062 L44.1474191,72.7260742 C44.1474191,72.2280249 43.8925389,71.9790039 43.3827707,71.9790039 C42.9901906,71.9790039 42.5287694,72.0976551 41.9984934,72.3349609 L41.5546457,71.4296875 C42.1200782,71.1337876 42.7470251,70.9858398 43.4355051,70.9858398 C44.0946881,70.9858398 44.6000541,71.1293931 44.9516184,71.4165039 C45.3031826,71.7036147 45.4789621,72.1401338 45.4789621,72.7260742 L45.4789621,76 L44.542927,76 Z M44.1474191,73.7236328 L43.6288645,73.7412109 C43.2392141,73.7529297 42.9491779,73.8232415 42.7587473,73.9521484 C42.5683166,74.0810553 42.4731027,74.2773424 42.4731027,74.5410156 C42.4731027,74.9189472 42.6898974,75.1079102 43.1234934,75.1079102 C43.4340418,75.1079102 43.6823303,75.0185556 43.8683664,74.8398438 C44.0544025,74.6611319 44.1474191,74.4238296 44.1474191,74.1279297 L44.1474191,73.7236328 Z M48.735812,75.0200195 C48.9701882,75.0200195 49.2514353,74.9687505 49.579562,74.8662109 L49.579562,75.8637695 C49.2455759,76.0131843 48.8354238,76.0878906 48.3490932,76.0878906 C47.8129577,76.0878906 47.4225808,75.9523939 47.1779507,75.6813965 C46.9333205,75.410399 46.8110073,75.003909 46.8110073,74.4619141 L46.8110073,72.0932617 L46.1694057,72.0932617 L46.1694057,71.5263672 L46.907687,71.078125 L47.2944057,70.0410156 L48.1513393,70.0410156 L48.1513393,71.0869141 L49.5268276,71.0869141 L49.5268276,72.0932617 L48.1513393,72.0932617 L48.1513393,74.4619141 C48.1513393,74.6523447 48.2048056,74.7929683 48.3117397,74.8837891 C48.4186738,74.9746098 48.5600298,75.0200195 48.735812,75.0200195 Z M50.32274,69.8168945 C50.32274,69.3803689 50.5659016,69.1621094 51.0522322,69.1621094 C51.5385627,69.1621094 51.7817243,69.3803689 51.7817243,69.8168945 C51.7817243,70.0249034 51.7209339,70.186767 51.5993513,70.3024902 C51.4777687,70.4182135 51.2953974,70.4760742 51.0522322,70.4760742 C50.5659016,70.4760742 50.32274,70.2563499 50.32274,69.8168945 Z M51.7202009,76 L50.3798689,76 L50.3798689,71.0869141 L51.7202009,71.0869141 L51.7202009,76 Z M54.0014648,73.534668 C54.0014648,74.0209985 54.081298,74.3886706 54.2409668,74.6376953 C54.4006356,74.88672 54.6606427,75.0112305 55.0209961,75.0112305 C55.3784198,75.0112305 55.6354973,74.8874524 55.7922363,74.6398926 C55.9489754,74.3923327 56.0273438,74.0239282 56.0273438,73.534668 C56.0273438,73.0483374 55.948243,72.683595 55.7900391,72.4404297 C55.6318351,72.1972644 55.3725604,72.0756836 55.012207,72.0756836 C54.6547834,72.0756836 54.3969734,72.196532 54.2387695,72.4382324 C54.0805656,72.6799328 54.0014648,73.0454077 54.0014648,73.534668 Z M57.3984375,73.534668 C57.3984375,74.3344767 57.1875021,74.9599587 56.765625,75.4111328 C56.3437479,75.8623069 55.7563514,76.0878906 55.003418,76.0878906 C54.5317359,76.0878906 54.1157245,75.9846202 53.7553711,75.7780762 C53.3950177,75.5715322 53.118165,75.2749043 52.9248047,74.8881836 C52.7314443,74.5014629 52.6347656,74.0502955 52.6347656,73.534668 C52.6347656,72.7319296 52.8442362,72.1079124 53.2631836,71.6625977 C53.682131,71.2172829 54.2709923,70.9946289 55.0297852,70.9946289 C55.5014672,70.9946289 55.9174787,71.0971669 56.277832,71.3022461 C56.6381854,71.5073252 56.9150381,71.8017559 57.1083984,72.1855469 C57.3017588,72.5693379 57.3984375,73.0190404 57.3984375,73.534668 Z M62.8481585,76 L61.5078264,76 L61.5078264,73.1303711 C61.5078264,72.7758771 61.4448388,72.5100107 61.3188616,72.3327637 C61.1928844,72.1555167 60.9922028,72.0668945 60.7168108,72.0668945 C60.3418089,72.0668945 60.0708155,72.1921374 59.9038225,72.442627 C59.7368295,72.6931165 59.6533342,73.1083955 59.6533342,73.6884766 L59.6533342,76 L58.3130022,76 L58.3130022,71.0869141 L59.336928,71.0869141 L59.5171038,71.715332 L59.5918108,71.715332 C59.7412256,71.4780262 59.9470341,71.2985846 60.2092424,71.177002 C60.4714508,71.0554193 60.7695435,70.9946289 61.1035296,70.9946289 C61.6748215,70.9946289 62.1084109,71.1491684 62.4043108,71.458252 C62.7002107,71.7673355 62.8481585,72.213376 62.8481585,72.7963867 L62.8481585,76 Z M67.4629185,74.5410156 C67.4629185,75.0449244 67.2878714,75.4287096 66.937772,75.6923828 C66.5876726,75.956056 66.0639962,76.0878906 65.3667271,76.0878906 C65.0093034,76.0878906 64.704619,76.0637209 64.4526646,76.0153809 C64.2007102,75.9670408 63.9648727,75.8959966 63.7451451,75.8022461 L63.7451451,74.6948242 C63.9941697,74.8120123 64.2746845,74.9101559 64.5866978,74.9892578 C64.8987111,75.0683598 65.1733665,75.1079102 65.4106724,75.1079102 C65.897003,75.1079102 66.1401646,74.9672866 66.1401646,74.6860352 C66.1401646,74.5805659 66.1079383,74.4948734 66.0434849,74.4289551 C65.9790314,74.3630368 65.8677044,74.2883305 65.7095005,74.204834 C65.5512966,74.1213375 65.3403612,74.0239263 65.076688,73.9125977 C64.6987564,73.7543937 64.4211713,73.6079108 64.2439243,73.4731445 C64.0666774,73.3383782 63.9377724,73.1838388 63.8572056,73.0095215 C63.7766388,72.8352042 63.736356,72.6206067 63.736356,72.3657227 C63.736356,71.929197 63.9055438,71.5915539 64.2439243,71.3527832 C64.5823049,71.1140125 65.0620365,70.9946289 65.6831333,70.9946289 C66.2749332,70.9946289 66.850611,71.1235339 67.4101841,71.3813477 L67.0058872,72.3481445 C66.7597923,72.2426753 66.5298141,72.1562503 66.3159458,72.0888672 C66.1020776,72.021484 65.883818,71.987793 65.6611607,71.987793 C65.2656509,71.987793 65.067899,72.0947255 65.067899,72.3085938 C65.067899,72.4287115 65.131619,72.5327144 65.2590611,72.6206055 C65.3865031,72.7084965 65.6655531,72.8388663 66.0962193,73.0117188 C66.4800103,73.166993 66.7612574,73.312011 66.9399693,73.4467773 C67.1186811,73.5815436 67.2505157,73.7368155 67.3354771,73.9125977 C67.4204384,74.0883798 67.4629185,74.2978503 67.4629185,74.5410156 Z M72.5308174,75.0200195 C72.7651936,75.0200195 73.0464408,74.9687505 73.3745674,74.8662109 L73.3745674,75.8637695 C73.0405814,76.0131843 72.6304293,76.0878906 72.1440987,76.0878906 C71.6079632,76.0878906 71.2175863,75.9523939 70.9729561,75.6813965 C70.728326,75.410399 70.6060128,75.003909 70.6060128,74.4619141 L70.6060128,72.0932617 L69.9644112,72.0932617 L69.9644112,71.5263672 L70.7026924,71.078125 L71.0894112,70.0410156 L71.9463448,70.0410156 L71.9463448,71.0869141 L73.3218331,71.0869141 L73.3218331,72.0932617 L71.9463448,72.0932617 L71.9463448,74.4619141 C71.9463448,74.6523447 71.9998111,74.7929683 72.1067452,74.8837891 C72.2136793,74.9746098 72.3550353,75.0200195 72.5308174,75.0200195 Z M75.2427454,73.534668 C75.2427454,74.0209985 75.3225786,74.3886706 75.4822474,74.6376953 C75.6419162,74.88672 75.9019233,75.0112305 76.2622767,75.0112305 C76.6197004,75.0112305 76.8767779,74.8874524 77.0335169,74.6398926 C77.190256,74.3923327 77.2686244,74.0239282 77.2686244,73.534668 C77.2686244,73.0483374 77.1895236,72.683595 77.0313197,72.4404297 C76.8731157,72.1972644 76.613841,72.0756836 76.2534876,72.0756836 C75.896064,72.0756836 75.638254,72.196532 75.4800501,72.4382324 C75.3218462,72.6799328 75.2427454,73.0454077 75.2427454,73.534668 Z M78.6397181,73.534668 C78.6397181,74.3344767 78.4287827,74.9599587 78.0069056,75.4111328 C77.5850285,75.8623069 76.997632,76.0878906 76.2446986,76.0878906 C75.7730165,76.0878906 75.3570051,75.9846202 74.9966517,75.7780762 C74.6362983,75.5715322 74.3594456,75.2749043 74.1660853,74.8881836 C73.9727249,74.5014629 73.8760462,74.0502955 73.8760462,73.534668 C73.8760462,72.7319296 74.0855168,72.1079124 74.5044642,71.6625977 C74.9234116,71.2172829 75.5122729,70.9946289 76.2710658,70.9946289 C76.7427478,70.9946289 77.1587593,71.0971669 77.5191126,71.3022461 C77.879466,71.5073252 78.1563187,71.8017559 78.349679,72.1855469 C78.5430394,72.5693379 78.6397181,73.0190404 78.6397181,73.534668 Z M38.7396973,81.6166992 C38.2269995,81.6166992 37.8300308,81.8093242 37.5487794,82.1945801 C37.267528,82.5798359 37.1269044,83.1166958 37.1269044,83.8051758 C37.1269044,85.2378001 37.6644966,85.9541016 38.7396973,85.9541016 C39.1908715,85.9541016 39.7372527,85.8413097 40.3788575,85.6157227 L40.3788575,86.7583008 C39.8515111,86.9780284 39.2626498,87.0878906 38.6122559,87.0878906 C37.6776809,87.0878906 36.9628443,86.8044462 36.4677247,86.2375488 C35.972605,85.6706515 35.7250489,84.8569389 35.7250489,83.7963867 C35.7250489,83.1284146 35.8466297,82.5432154 36.089795,82.0407715 C36.3329603,81.5383276 36.682322,81.1530775 37.1378907,80.8850098 C37.5934594,80.616942 38.1273896,80.4829102 38.7396973,80.4829102 C39.3637239,80.4829102 39.9906707,80.6337876 40.6205567,80.9355469 L40.1811036,82.0429688 C39.940868,81.9287104 39.6991712,81.829102 39.4560059,81.7441406 C39.2128406,81.6591793 38.9740735,81.6166992 38.7396973,81.6166992 Z M45.982387,87 L44.642055,87 L44.642055,84.1303711 C44.642055,83.4213832 44.3783858,83.0668945 43.8510394,83.0668945 C43.4760375,83.0668945 43.2050441,83.1943347 43.0380511,83.4492188 C42.8710581,83.7041028 42.7875628,84.1171846 42.7875628,84.6884766 L42.7875628,87 L41.4472308,87 L41.4472308,80.1621094 L42.7875628,80.1621094 L42.7875628,81.5551758 C42.7875628,81.6635748 42.777309,81.918455 42.7568011,82.3198242 L42.7260394,82.715332 L42.7963519,82.715332 C43.0951815,82.2348609 43.5697861,81.9946289 44.22018,81.9946289 C44.7973313,81.9946289 45.2353152,82.1499008 45.5341449,82.4604492 C45.8329745,82.7709976 45.982387,83.2163057 45.982387,83.7963867 L45.982387,87 Z M50.2895299,87 L50.0302525,86.3320312 L49.9950963,86.3320312 C49.7695092,86.6162124 49.5373338,86.8132319 49.2985631,86.9230957 C49.0597924,87.0329595 48.7485162,87.0878906 48.3647252,87.0878906 C47.8930431,87.0878906 47.521709,86.9531263 47.2507115,86.6835938 C46.9797141,86.4140612 46.8442174,86.0302759 46.8442174,85.5322266 C46.8442174,85.0107396 47.0265886,84.6262219 47.3913365,84.3786621 C47.7560844,84.1311023 48.3061278,83.9941408 49.041483,83.9677734 L49.8940221,83.9414062 L49.8940221,83.7260742 C49.8940221,83.2280249 49.6391418,82.9790039 49.1293736,82.9790039 C48.7367935,82.9790039 48.2753724,83.0976551 47.7450963,83.3349609 L47.3012486,82.4296875 C47.8666811,82.1337876 48.493628,81.9858398 49.182108,81.9858398 C49.841291,81.9858398 50.346657,82.1293931 50.6982213,82.4165039 C51.0497855,82.7036147 51.225565,83.1401338 51.225565,83.7260742 L51.225565,87 L50.2895299,87 Z M49.8940221,84.7236328 L49.3754674,84.7412109 C48.985817,84.7529297 48.6957808,84.8232415 48.5053502,84.9521484 C48.3149196,85.0810553 48.2197057,85.2773424 48.2197057,85.5410156 C48.2197057,85.9189472 48.4365004,86.1079102 48.8700963,86.1079102 C49.1806447,86.1079102 49.4289332,86.0185556 49.6149693,85.8398438 C49.8010054,85.6611319 49.8940221,85.4238296 49.8940221,85.1279297 L49.8940221,84.7236328 Z M55.1547782,81.9946289 C55.3364197,81.9946289 55.4872971,82.0078124 55.6074149,82.0341797 L55.5063407,83.2910156 C55.3979417,83.2617186 55.2661071,83.2470703 55.1108329,83.2470703 C54.6830964,83.2470703 54.3498477,83.3569325 54.111077,83.5766602 C53.8723063,83.7963878 53.7529227,84.1040019 53.7529227,84.4995117 L53.7529227,87 L52.4125907,87 L52.4125907,82.0869141 L53.4277274,82.0869141 L53.6254813,82.9130859 L53.6913993,82.9130859 C53.8437438,82.6376939 54.0495523,82.4157723 54.3088309,82.2473145 C54.5681096,82.0788566 54.8500892,81.9946289 55.1547782,81.9946289 Z M56.2495187,80.8168945 C56.2495187,80.3803689 56.4926803,80.1621094 56.9790109,80.1621094 C57.4653414,80.1621094 57.7085031,80.3803689 57.7085031,80.8168945 C57.7085031,81.0249034 57.6477127,81.186767 57.52613,81.3024902 C57.4045474,81.4182135 57.2221762,81.4760742 56.9790109,81.4760742 C56.4926803,81.4760742 56.2495187,81.2563499 56.2495187,80.8168945 Z M57.6469796,87 L56.3066476,87 L56.3066476,82.0869141 L57.6469796,82.0869141 L57.6469796,87 Z M60.9301967,86.0200195 C61.1645729,86.0200195 61.44582,85.9687505 61.7739467,85.8662109 L61.7739467,86.8637695 C61.4399606,87.0131843 61.0298085,87.0878906 60.5434779,87.0878906 C60.0073424,87.0878906 59.6169655,86.9523939 59.3723354,86.6813965 C59.1277052,86.410399 59.005392,86.003909 59.005392,85.4619141 L59.005392,83.0932617 L58.3637904,83.0932617 L58.3637904,82.5263672 L59.1020717,82.078125 L59.4887904,81.0410156 L60.345724,81.0410156 L60.345724,82.0869141 L61.7212123,82.0869141 L61.7212123,83.0932617 L60.345724,83.0932617 L60.345724,85.4619141 C60.345724,85.6523447 60.3991903,85.7929683 60.5061244,85.8837891 C60.6130585,85.9746098 60.7544146,86.0200195 60.9301967,86.0200195 Z M61.8711286,82.0869141 L63.338902,82.0869141 L64.2661481,84.8510742 C64.3452501,85.0913098 64.3994487,85.3754866 64.4287458,85.7036133 L64.455113,85.7036133 C64.4873397,85.401854 64.5503273,85.1176771 64.6440778,84.8510742 L65.5537458,82.0869141 L66.9907575,82.0869141 L64.9121442,87.628418 C64.7217136,88.1411158 64.4499878,88.5249011 64.0969587,88.7797852 C63.7439296,89.0346692 63.3315802,89.1621094 62.8598981,89.1621094 C62.6284516,89.1621094 62.4014031,89.1372073 62.1787458,89.0874023 L62.1787458,88.0239258 C62.3398794,88.0620119 62.5156589,88.0810547 62.7060895,88.0810547 C62.9433954,88.0810547 63.1506687,88.0085456 63.3279157,87.8635254 C63.5051627,87.7185051 63.643589,87.4995132 63.7431989,87.206543 L63.8223005,86.9648438 L61.8711286,82.0869141 Z" id="Donations-to-Charity" fill="#16A5AA"></path>
            <g id="Group-19" transform="translate(26.000000, 12.000000)">
                <path d="M8.17223529,30.1826667 L0.721411765,17.5569524 C0.280470588,17.0664762 0.104,15.9512381 0.721411765,15.3712381 C1.33835294,14.7912381 2.30870588,14.7464762 2.88141176,15.3712381 L7.29035294,20.9031429 L8.17223529,21.7955238 L8.17223529,21.0817143 L8.17223529,14.6126667 L8.17223529,3.54838095 C8.17223529,2.656 8.87764706,1.98695238 9.71529412,1.98695238 C10.5971765,1.98695238 11.2583529,2.7007619 11.2583529,3.54838095 L11.2583529,14.5679048 L11.2583529,14.8802857 C11.2583529,15.1031429 11.4348235,15.2817143 11.6550588,15.2817143 C11.8757647,15.2817143 12.0522353,15.1031429 12.0522353,14.8802857 L12.0522353,14.5679048 L12.0522353,1.94219048 C12.0522353,1.05028571 12.7576471,0.380761905 13.5952941,0.380761905 C14.4767059,0.380761905 15.1383529,1.09457143 15.1383529,1.94219048 L15.1383529,14.5679048 L15.1383529,14.8802857 C15.1383529,15.1031429 15.3143529,15.2817143 15.5350588,15.2817143 C15.7552941,15.2817143 15.9317647,15.1031429 15.9317647,14.8802857 L15.9317647,14.5679048 L15.9317647,3.54838095 C15.9317647,2.656 16.6371765,1.98695238 17.4748235,1.98695238 C18.3567059,1.98695238 19.0178824,2.7007619 19.0178824,3.54838095 L19.0178824,14.5679048 L19.0178824,14.8802857 C19.0178824,15.1031429 19.1943529,15.2817143 19.4145882,15.2817143 C19.6352941,15.2817143 19.8117647,15.1031429 19.8117647,14.8802857 L19.8117647,14.5679048 L19.8117647,8.23314286 C19.8117647,7.3407619 20.5171765,6.6712381 21.3548235,6.6712381 C22.2362353,6.6712381 22.8978824,7.38504762 22.8978824,8.23314286 L22.8978824,14.5679048 L22.8978824,19.966 C22.8978824,19.966 22.9416471,21.7507619 22.9858824,23.8921905 C22.9858824,26.4350476 22.9416471,29.4688571 22.5449412,30.8964762 C22.3689412,31.4317143 22.0602353,31.8331429 21.5750588,32.1012381 L21.5750588,39.2393333 C18.136,41.2469524 14.4329412,42.763619 10.5529412,43.7450476 L10.5529412,32.3240952 C9.27435294,31.7888571 8.17223529,30.1826667 8.17223529,30.1826667 L8.17223529,30.1826667 Z" id="Fill-6" fill="#DFBF90"></path>
                <polygon id="Fill-8" fill="#FFFFFF" points="9.84752941 35.8928571 22.5449412 35.8928571 22.5449412 33.7961905 9.84752941 33.7961905"></polygon>
                <polygon id="Fill-10" fill="#E0E0DF" points="16.1524706 35.8928571 22.5454118 35.8928571 22.5454118 33.7961905 16.1524706 33.7961905"></polygon>
                <path d="M39.8277647,30.1826667 L47.2785882,17.5569524 C47.7195294,17.0664762 47.896,15.9512381 47.2785882,15.3712381 C46.6616471,14.7464762 45.6912941,14.7464762 45.1185882,15.3712381 L40.7096471,20.9031429 L39.8277647,21.7955238 L39.8277647,21.0817143 L39.8277647,14.6126667 L39.8277647,3.54838095 C39.8277647,2.656 39.1223529,1.98695238 38.2847059,1.98695238 C37.4028235,1.98695238 36.7416471,2.7007619 36.7416471,3.54838095 L36.7416471,14.5679048 L36.7416471,14.8802857 C36.7416471,15.1031429 36.5651765,15.2817143 36.3449412,15.2817143 C36.1242353,15.2817143 35.9477647,15.1031429 35.9477647,14.8802857 L35.9477647,14.5679048 L35.9477647,1.94219048 C35.9477647,1.05028571 35.2423529,0.380761905 34.4047059,0.380761905 C33.5232941,0.380761905 32.8616471,1.09457143 32.8616471,1.94219048 L32.8616471,14.5679048 L32.8616471,14.8802857 C32.8616471,15.1031429 32.6856471,15.2817143 32.4649412,15.2817143 C32.2447059,15.2817143 32.0682353,15.1031429 32.0682353,14.8802857 L32.0682353,14.5679048 L32.0682353,3.54838095 C32.0682353,2.656 31.3628235,1.98695238 30.5251765,1.98695238 C29.6432941,1.98695238 28.9821176,2.7007619 28.9821176,3.54838095 L28.9821176,14.5679048 L28.9821176,14.8802857 C28.9821176,15.1031429 28.8056471,15.2817143 28.5854118,15.2817143 C28.3647059,15.2817143 28.1882353,15.1031429 28.1882353,14.8802857 L28.1882353,14.5679048 L28.1882353,8.23314286 C28.1882353,7.3407619 27.4828235,6.6712381 26.6451765,6.6712381 C25.7637647,6.6712381 25.1021176,7.38504762 25.1021176,8.23314286 L25.1021176,14.5679048 L25.1021176,19.966 C25.1021176,19.966 25.0583529,21.7507619 25.0141176,23.8921905 C25.0141176,26.4350476 25.0583529,29.4688571 25.4550588,30.8964762 C25.6310588,31.4317143 25.9397647,31.8331429 26.4249412,32.1012381 L26.4249412,39.2393333 C29.864,41.2469524 33.5670588,42.763619 37.4470588,43.7450476 L37.4470588,32.3240952 C38.7256471,31.7888571 39.8277647,30.1826667 39.8277647,30.1826667" id="Fill-11" fill="#DFBF90"></path>
                <polygon id="Fill-12" fill="#FFFFFF" points="25.4550588 35.8928571 38.1524706 35.8928571 38.1524706 33.7961905 25.4550588 33.7961905"></polygon>
                <polygon id="Fill-13" fill="#E0E0DF" points="25.4550588 35.8928571 31.848 35.8928571 31.848 33.7961905 25.4550588 33.7961905"></polygon>
                <path d="M16.1522353,35.8931905 L16.1522353,48.7865238 C18.4007059,49.4108095 20.7376471,49.7679524 23.1183529,49.8127143 L23.1183529,35.8484286 L16.1522353,35.8484286 L16.1522353,35.8931905 Z" id="Fill-14" fill="#616363"></path>
                <path d="M9.18625882,35.8931905 L9.18625882,45.8417619 C11.3467294,47.0912857 13.6389647,48.1174762 16.1523765,48.7865238 L16.1523765,35.8931905 L9.18625882,35.8931905 Z" id="Fill-15" fill="#777777"></path>
                <path d="M24.9258824,35.8931905 L24.9258824,49.857 C27.3065882,49.8127143 29.6872941,49.4108095 31.892,48.8312857 L31.892,35.9379524 L24.9258824,35.9379524 L24.9258824,35.8931905 Z" id="Fill-16" fill="#616363"></path>
                <path d="M31.8477647,35.8931905 L31.8477647,48.7865238 C34.3169412,48.1174762 36.6534118,47.1355714 38.8138824,45.8417619 L38.8138824,35.8931905 L31.8477647,35.8931905 Z" id="Fill-17" fill="#777777"></path>
                <path d="M29.6874353,9.39285714 C27.6592,9.39285714 25.9401412,10.5528571 24.9260235,12.2480952 C24.6615529,12.6495238 24.1763765,13.4971429 24.0441412,14.3004762 C23.8676706,13.5419048 23.3829647,12.6495238 23.1622588,12.2480952 C22.1481412,10.5528571 20.3848471,9.39285714 18.4008471,9.39285714 C15.2262588,9.39285714 12.6690824,12.2480952 12.6690824,15.7280952 C12.6690824,15.7280952 12.6690824,16.2633333 12.7133176,16.4861905 C13.3744941,21.9290476 23.6032,31.9671429 23.8676706,32.2795238 L24.0441412,32.4580952 L24.2206118,32.2795238 C24.4850824,32.0119048 34.7575529,21.9738095 35.3749647,16.4861905 C35.3749647,16.2633333 35.4187294,15.772381 35.4187294,15.7280952 C35.3749647,12.2928571 32.8177882,9.39285714 29.6874353,9.39285714" id="Fill-18" fill="#82BC41"></path>
            </g>
            <g id="Group-22" opacity="0.2" transform="translate(50.500000, 20.590476)">
                <mask id="mask-3" fill="white">
                    <use xlink:href="#path-2"></use>
                </mask>
                <g id="Clip-21"></g>
                <polygon id="Fill-20" fill="#231F20" mask="url(#mask-3)" points="0 45.5280095 13.3035 45.5280095 13.3035 -19.2122476 0 -19.2122476"></polygon>
            </g>
        </g>
    </g>
</svg>