<?xml version="1.0" encoding="UTF-8" standalone="no"?>
<svg width="101px" height="102px" viewBox="0 0 101 102" version="1.1" xmlns="http://www.w3.org/2000/svg" xmlns:xlink="http://www.w3.org/1999/xlink">
    <!-- Generator: Sketch 45.1 (43504) - http://www.bohemiancoding.com/sketch -->
    <title>btn-life-soldstock-static</title>
    <desc>Created with Sketch.</desc>
    <defs>
        <ellipse id="path-1" cx="50.5" cy="51" rx="48.5576923" ry="49.0384615"></ellipse>
    </defs>
    <g id="Symbols" stroke="none" stroke-width="1" fill="none" fill-rule="evenodd">
        <g id="btn-life-soldstock-static">
            <g id="Event-Circle-Static">
                <g id="Oval-3">
                    <use fill="#FFFFFF" fill-rule="evenodd" xlink:href="#path-1"></use>
                    <ellipse stroke="#A0A0A0" stroke-width="2" cx="50.5" cy="51" rx="49.5576923" ry="50.0384615"></ellipse>
                </g>
            </g>
            <path d="M33.5885534,80.2158203 C33.5885534,80.7959013 33.3798152,81.252928 32.9623327,81.5869141 C32.5448501,81.9209001 31.9640454,82.0878906 31.219901,82.0878906 C30.5343507,82.0878906 29.9279115,81.9589857 29.4005651,81.7011719 L29.4005651,80.4355469 C29.834161,80.6289072 30.2011007,80.7651363 30.5013952,80.8442383 C30.8016897,80.9233402 31.0763451,80.9628906 31.3253698,80.9628906 C31.6241994,80.9628906 31.8534452,80.9057623 32.0131139,80.7915039 C32.1727827,80.6772455 32.2526159,80.5073253 32.2526159,80.2817383 C32.2526159,80.1557611 32.21746,80.0437017 32.1471471,79.9455566 C32.0768343,79.8474116 31.9735638,79.7529301 31.8373327,79.6621094 C31.7011015,79.5712886 31.4235164,79.4262705 31.004569,79.2270508 C30.6119889,79.0424795 30.3175583,78.8652352 30.1212682,78.6953125 C29.9249782,78.5253898 29.7682415,78.3276378 29.6510534,78.1020508 C29.5338653,77.8764637 29.4752721,77.6127945 29.4752721,77.3110352 C29.4752721,76.7426729 29.6678972,76.2959001 30.053153,75.9707031 C30.4384088,75.6455062 30.9708742,75.4829102 31.6505651,75.4829102 C31.9845511,75.4829102 32.3031515,75.5224605 32.6063756,75.6015625 C32.9095998,75.6806645 33.2267353,75.7919915 33.5577917,75.9355469 L33.1183385,76.9946289 C32.7755634,76.8540032 32.492119,76.7558597 32.2679967,76.7001953 C32.0438745,76.644531 31.8234177,76.6166992 31.6066198,76.6166992 C31.348806,76.6166992 31.1510541,76.6767572 31.0133581,76.796875 C30.8756621,76.9169928 30.8068151,77.0737295 30.8068151,77.2670898 C30.8068151,77.3872076 30.8346469,77.4919429 30.8903112,77.5812988 C30.9459755,77.6706547 31.0345977,77.7570797 31.1561803,77.8405762 C31.277763,77.9240727 31.5656019,78.0742177 32.0197057,78.2910156 C32.6202947,78.5781264 33.0319116,78.8659654 33.254569,79.154541 C33.4772264,79.4431167 33.5885534,79.7968729 33.5885534,80.2158203 Z M35.5226493,79.534668 C35.5226493,80.0209985 35.6024825,80.3886706 35.7621513,80.6376953 C35.9218201,80.88672 36.1818272,81.0112305 36.5421806,81.0112305 C36.8996043,81.0112305 37.1566818,80.8874524 37.3134208,80.6398926 C37.4701599,80.3923327 37.5485283,80.0239282 37.5485283,79.534668 C37.5485283,79.0483374 37.4694275,78.683595 37.3112236,78.4404297 C37.1530197,78.1972644 36.8937449,78.0756836 36.5333915,78.0756836 C36.1759679,78.0756836 35.918158,78.196532 35.759954,78.4382324 C35.6017501,78.6799328 35.5226493,79.0454077 35.5226493,79.534668 Z M38.919622,79.534668 C38.919622,80.3344767 38.7086866,80.9599587 38.2868095,81.4111328 C37.8649324,81.8623069 37.2775359,82.0878906 36.5246025,82.0878906 C36.0529204,82.0878906 35.636909,81.9846202 35.2765556,81.7780762 C34.9162022,81.5715322 34.6393495,81.2749043 34.4459892,80.8881836 C34.2526288,80.5014629 34.1559501,80.0502955 34.1559501,79.534668 C34.1559501,78.7319296 34.3654207,78.1079124 34.7843681,77.6625977 C35.2033155,77.2172829 35.7921768,76.9946289 36.5509697,76.9946289 C37.0226517,76.9946289 37.4386632,77.0971669 37.7990165,77.3022461 C38.1593699,77.5073252 38.4362226,77.8017559 38.6295829,78.1855469 C38.8229433,78.5693379 38.919622,79.0190404 38.919622,79.534668 Z M41.1745187,82 L39.8341867,82 L39.8341867,75.1621094 L41.1745187,75.1621094 L41.1745187,82 Z M43.9435757,82.0878906 C43.3664243,82.0878906 42.9130597,81.8637718 42.5834682,81.4155273 C42.2538767,80.9672829 42.0890835,80.3461954 42.0890835,79.5522461 C42.0890835,78.746578 42.2568064,78.1188987 42.5922573,77.6691895 C42.9277082,77.2194802 43.3898618,76.9946289 43.9787319,76.9946289 C44.5968991,76.9946289 45.068574,77.2348609 45.393771,77.715332 L45.4377163,77.715332 C45.3703331,77.3491193 45.3366421,77.0224624 45.3366421,76.7353516 L45.3366421,75.1621094 L46.6813686,75.1621094 L46.6813686,82 L45.6530483,82 L45.393771,81.362793 L45.3366421,81.362793 C45.031953,81.8461938 44.5676022,82.0878906 43.9435757,82.0878906 Z M44.4137905,81.0200195 C44.7565656,81.0200195 45.0077838,80.9204112 45.1674526,80.7211914 C45.3271214,80.5219717 45.4142787,80.1835961 45.4289272,79.7060547 L45.4289272,79.5610352 C45.4289272,79.0336888 45.3476292,78.6557629 45.1850307,78.4272461 C45.0224323,78.1987293 44.7580306,78.0844727 44.3918178,78.0844727 C44.0929882,78.0844727 43.8608128,78.2111804 43.6952846,78.4645996 C43.5297565,78.7180188 43.4469936,79.0864234 43.4469936,79.5698242 C43.4469936,80.0532251 43.5304889,80.4157703 43.6974819,80.6574707 C43.8644749,80.8991711 44.1032421,81.0200195 44.4137905,81.0200195 Z M53.9333496,80.2158203 C53.9333496,80.7959013 53.7246115,81.252928 53.3071289,81.5869141 C52.8896464,81.9209001 52.3088416,82.0878906 51.5646973,82.0878906 C50.879147,82.0878906 50.2727077,81.9589857 49.7453613,81.7011719 L49.7453613,80.4355469 C50.1789572,80.6289072 50.5458969,80.7651363 50.8461914,80.8442383 C51.1464859,80.9233402 51.4211413,80.9628906 51.670166,80.9628906 C51.9689956,80.9628906 52.1982414,80.9057623 52.3579102,80.7915039 C52.5175789,80.6772455 52.5974121,80.5073253 52.5974121,80.2817383 C52.5974121,80.1557611 52.5622562,80.0437017 52.4919434,79.9455566 C52.4216305,79.8474116 52.3183601,79.7529301 52.1821289,79.6621094 C52.0458978,79.5712886 51.7683126,79.4262705 51.3493652,79.2270508 C50.9567851,79.0424795 50.6623545,78.8652352 50.4660645,78.6953125 C50.2697744,78.5253898 50.1130377,78.3276378 49.9958496,78.1020508 C49.8786615,77.8764637 49.8200684,77.6127945 49.8200684,77.3110352 C49.8200684,76.7426729 50.0126934,76.2959001 50.3979492,75.9707031 C50.7832051,75.6455062 51.3156704,75.4829102 51.9953613,75.4829102 C52.3293474,75.4829102 52.6479477,75.5224605 52.9511719,75.6015625 C53.254396,75.6806645 53.5715315,75.7919915 53.9025879,75.9355469 L53.4631348,76.9946289 C53.1203596,76.8540032 52.8369152,76.7558597 52.612793,76.7001953 C52.3886708,76.644531 52.168214,76.6166992 51.951416,76.6166992 C51.6936022,76.6166992 51.4958503,76.6767572 51.3581543,76.796875 C51.2204583,76.9169928 51.1516113,77.0737295 51.1516113,77.2670898 C51.1516113,77.3872076 51.1794431,77.4919429 51.2351074,77.5812988 C51.2907718,77.6706547 51.3793939,77.7570797 51.5009766,77.8405762 C51.6225592,77.9240727 51.9103981,78.0742177 52.364502,78.2910156 C52.9650909,78.5781264 53.3767079,78.8659654 53.5993652,79.154541 C53.8220226,79.4431167 53.9333496,79.7968729 53.9333496,80.2158203 Z M56.8693987,81.0200195 C57.1037749,81.0200195 57.3850221,80.9687505 57.7131487,80.8662109 L57.7131487,81.8637695 C57.3791627,82.0131843 56.9690105,82.0878906 56.4826799,82.0878906 C55.9465445,82.0878906 55.5561675,81.9523939 55.3115374,81.6813965 C55.0669072,81.410399 54.944594,81.003909 54.944594,80.4619141 L54.944594,78.0932617 L54.3029924,78.0932617 L54.3029924,77.5263672 L55.0412737,77.078125 L55.4279924,76.0410156 L56.284926,76.0410156 L56.284926,77.0869141 L57.6604143,77.0869141 L57.6604143,78.0932617 L56.284926,78.0932617 L56.284926,80.4619141 C56.284926,80.6523447 56.3383923,80.7929683 56.4453264,80.8837891 C56.5522606,80.9746098 56.6936166,81.0200195 56.8693987,81.0200195 Z M59.5813267,79.534668 C59.5813267,80.0209985 59.6611599,80.3886706 59.8208286,80.6376953 C59.9804974,80.88672 60.2405046,81.0112305 60.6008579,81.0112305 C60.9582816,81.0112305 61.2153591,80.8874524 61.3720982,80.6398926 C61.5288372,80.3923327 61.6072056,80.0239282 61.6072056,79.534668 C61.6072056,79.0483374 61.5281048,78.683595 61.3699009,78.4404297 C61.211697,78.1972644 60.9524222,78.0756836 60.5920689,78.0756836 C60.2346452,78.0756836 59.9768353,78.196532 59.8186314,78.4382324 C59.6604275,78.6799328 59.5813267,79.0454077 59.5813267,79.534668 Z M62.9782993,79.534668 C62.9782993,80.3344767 62.767364,80.9599587 62.3454868,81.4111328 C61.9236097,81.8623069 61.3362133,82.0878906 60.5832798,82.0878906 C60.1115978,82.0878906 59.6955863,81.9846202 59.3352329,81.7780762 C58.9748796,81.5715322 58.6980269,81.2749043 58.5046665,80.8881836 C58.3113062,80.5014629 58.2146275,80.0502955 58.2146275,79.534668 C58.2146275,78.7319296 58.424098,78.1079124 58.8430454,77.6625977 C59.2619929,77.2172829 59.8508541,76.9946289 60.609647,76.9946289 C61.0813291,76.9946289 61.4973405,77.0971669 61.8576939,77.3022461 C62.2180472,77.5073252 62.4948999,77.8017559 62.6882603,78.1855469 C62.8816206,78.5693379 62.9782993,79.0190404 62.9782993,79.534668 Z M65.8879813,82.0878906 C64.3586767,82.0878906 63.5940359,81.2485435 63.5940359,79.5698242 C63.5940359,78.7348591 63.8020417,78.096926 64.2180594,77.6560059 C64.6340771,77.2150857 65.2302625,76.9946289 66.0066336,76.9946289 C66.5749958,76.9946289 67.0847563,77.1059559 67.5359305,77.3286133 L67.1404227,78.3657227 C66.9294841,78.2807613 66.733197,78.2111819 66.5515555,78.1569824 C66.3699139,78.1027829 66.1882751,78.0756836 66.0066336,78.0756836 C65.3093645,78.0756836 64.9607352,78.5707958 64.9607352,79.5610352 C64.9607352,80.5219775 65.3093645,81.0024414 66.0066336,81.0024414 C66.2644474,81.0024414 66.5032145,80.9680179 66.7229422,80.8991699 C66.9426698,80.8303219 67.1623942,80.722657 67.3821219,80.5761719 L67.3821219,81.7231445 C67.1653239,81.8608405 66.946332,81.9560544 66.7251395,82.0087891 C66.5039469,82.0615237 66.224897,82.0878906 65.8879813,82.0878906 Z M69.615046,79.328125 L70.1995186,78.5810547 L71.5750069,77.0869141 L73.0867257,77.0869141 L71.1355538,79.2182617 L73.205378,82 L71.658503,82 L70.2434639,80.0092773 L69.6677803,80.4707031 L69.6677803,82 L68.3274483,82 L68.3274483,75.1621094 L69.6677803,75.1621094 L69.6677803,78.2119141 L69.5974678,79.328125 L69.615046,79.328125 Z" id="Sold-Stock" fill="#16A5AA"></path>
            <path d="M25.1076923,42.0691231 C25.1076923,48.9442 27.8576154,55.1311231 32.3753077,59.6493538 L39.4469231,52.5777385 C36.746,49.8768154 35.0762308,46.1942769 35.0762308,42.0691231 C35.0762308,33.8683538 41.7547692,27.1408154 50.0045385,27.1408154 L50.0045385,17.2212769 C36.2059231,17.2212769 25.1076923,28.3195077 25.1076923,42.0691231" id="Fill-6" fill="#4F4F4F"></path>
            <path d="M74.8031154,42.0691231 C74.8031154,55.8187385 63.7048846,66.9169692 49.9552692,66.9169692 L49.9552692,56.9974308 C58.1560385,56.9974308 64.8835769,50.3188923 64.8835769,42.0691231 L74.8031154,42.0691231" id="Fill-8" fill="#82BC41"></path>
            <path d="M49.9554308,56.9483231 L49.9554308,66.8678615 C43.0803538,66.8678615 36.8438923,64.1179385 32.3752,59.6002462 L39.4468154,52.5286308 C42.0492,55.2785538 45.8302769,56.9483231 49.9554308,56.9483231" id="Fill-10" fill="#9FCA43"></path>
            <path d="M52.0670077,11.0831385 L52.0670077,27.2881385 C58.5980077,28.2212923 63.7543154,33.3776 64.6874692,39.9086 L80.8924692,39.9086 C79.8613154,24.4402154 67.4863923,12.1142923 52.0670077,11.0831385" id="Fill-12" fill="#3EABC7"></path>
            <path d="M49.9554308,32.0023692 C55.5150462,32.0023692 60.0219692,36.5092923 60.0219692,42.0689077 C60.0219692,47.6290615 55.5150462,52.1359846 49.9554308,52.1359846 C44.3958154,52.1359846 39.8888923,47.6290615 39.8888923,42.0689077 C39.8888923,36.5092923 44.3958154,32.0023692 49.9554308,32.0023692" id="Fill-14" fill="#D9D8D7"></path>
            <path d="M50.5446692,43.1494923 L50.5446692,45.4573385 C51.3792846,45.3593385 51.7723615,44.9662615 51.7723615,44.3281846 C51.8213615,43.7881077 51.5268231,43.4440308 50.5446692,43.1494923 M49.5135154,41.3817231 L49.5135154,39.1718769 C48.6789,39.2208769 48.2858231,39.7119538 48.2858231,40.2520308 C48.3348231,40.7431077 48.5803615,41.0381846 49.5135154,41.3817231 M50.0535923,37.1095692 C50.3481308,37.1095692 50.5936692,37.3551077 50.5936692,37.6496462 L50.5936692,37.9441846 C51.3792846,38.0421846 51.9689,38.2877231 52.5089769,38.6318 C52.7055154,38.7298 52.8525154,38.9263385 52.8525154,39.2208769 C52.8525154,39.6139538 52.5579769,39.9084923 52.1654385,39.9084923 C52.0669,39.9084923 51.9199,39.8594923 51.8213615,39.8104923 C51.3302846,39.5154154 50.9377462,39.3194154 50.5446692,39.2698769 L50.5446692,41.6762615 C52.4599769,42.1673385 53.2945923,42.9039538 53.2945923,44.2791846 C53.2945923,45.7028769 52.2144385,46.5870308 50.5936692,46.7340308 L50.5936692,47.5201846 C50.5936692,47.8147231 50.3481308,48.0602615 50.0535923,48.0602615 C49.7590538,48.0602615 49.5135154,47.8147231 49.5135154,47.5201846 L49.5135154,46.6850308 C48.5803615,46.5870308 47.6967462,46.1939538 46.9105923,45.7028769 C46.6650538,45.6048769 46.5670538,45.3593385 46.5670538,45.1138 C46.5670538,44.7207231 46.8615923,44.4261846 47.2546692,44.4261846 C47.4512077,44.4261846 47.5492077,44.4751846 47.6472077,44.5247231 C48.2368231,44.9172615 48.8259,45.2118 49.5135154,45.3593385 L49.5135154,42.9039538 C47.6967462,42.4128769 46.8125923,41.7252615 46.8125923,40.3015692 C46.8125923,38.9263385 47.8927462,37.9931846 49.4645154,37.8951846 L49.4645154,37.6496462 C49.4645154,37.3061077 49.7590538,37.1095692 50.0535923,37.1095692" id="Fill-16" fill="#333333"></path>
        </g>
    </g>
</svg>