<?xml version="1.0" encoding="UTF-8" standalone="no"?>
<svg width="101px" height="102px" viewBox="0 0 101 102" version="1.1" xmlns="http://www.w3.org/2000/svg" xmlns:xlink="http://www.w3.org/1999/xlink">
    <!-- Generator: Sketch 45.1 (43504) - http://www.bohemiancoding.com/sketch -->
    <title>btn-life-homeowner-selected</title>
    <desc>Created with Sketch.</desc>
    <defs>
        <ellipse id="path-1" cx="50.5" cy="51" rx="48.5576923" ry="49.0384615"></ellipse>
    </defs>
    <g id="Symbols" stroke="none" stroke-width="1" fill="none" fill-rule="evenodd">
        <g id="btn-life-homeowner-selected">
            <g id="btn-life-homeowner-static">
                <g id="Event-Circle-Selected">
                    <g id="Group-6">
                        <g id="Oval-3">
                            <use fill="#FFFFFF" fill-rule="evenodd" xlink:href="#path-1"></use>
                            <ellipse stroke="#00A5AB" stroke-width="2" cx="50.5" cy="51" rx="49.5576923" ry="50.0384615"></ellipse>
                        </g>
                        <g id="Group-7">
                            <g id="Group">
                                <ellipse id="Oval" fill="#00A5AB" cx="14.0817308" cy="14.2211538" rx="14.0817308" ry="14.2211538"></ellipse>
                                <polygon id="Shape" fill="#FFFFFF" points="12.115197 20.659919 6.115197 14.8906883 7.795197 13.2753036 12.115197 17.4291498 21.235197 8.65991903 22.915197 10.2753036"></polygon>
                            </g>
                        </g>
                    </g>
                </g>
                <path d="M27.9338532,82 L26.575943,82 L26.575943,79.2270508 L24.0315094,79.2270508 L24.0315094,82 L22.6692047,82 L22.6692047,75.5751953 L24.0315094,75.5751953 L24.0315094,78.0932617 L26.575943,78.0932617 L26.575943,75.5751953 L27.9338532,75.5751953 L27.9338532,82 Z M30.3249804,79.534668 C30.3249804,80.0209985 30.4048136,80.3886706 30.5644823,80.6376953 C30.7241511,80.88672 30.9841583,81.0112305 31.3445116,81.0112305 C31.7019353,81.0112305 31.9590128,80.8874524 32.1157519,80.6398926 C32.2724909,80.3923327 32.3508593,80.0239282 32.3508593,79.534668 C32.3508593,79.0483374 32.2717585,78.683595 32.1135546,78.4404297 C31.9553507,78.1972644 31.6960759,78.0756836 31.3357226,78.0756836 C30.9782989,78.0756836 30.720489,78.196532 30.5622851,78.4382324 C30.4040812,78.6799328 30.3249804,79.0454077 30.3249804,79.534668 Z M33.721953,79.534668 C33.721953,80.3344767 33.5110176,80.9599587 33.0891405,81.4111328 C32.6672634,81.8623069 32.079867,82.0878906 31.3269335,82.0878906 C30.8552515,82.0878906 30.43924,81.9846202 30.0788866,81.7780762 C29.7185333,81.5715322 29.4416806,81.2749043 29.2483202,80.8881836 C29.0549599,80.5014629 28.9582812,80.0502955 28.9582812,79.534668 C28.9582812,78.7319296 29.1677517,78.1079124 29.5866991,77.6625977 C30.0056465,77.2172829 30.5945078,76.9946289 31.3533007,76.9946289 C31.8249827,76.9946289 32.2409942,77.0971669 32.6013476,77.3022461 C32.9617009,77.5073252 33.2385536,77.8017559 33.431914,78.1855469 C33.6252743,78.5693379 33.721953,79.0190404 33.721953,79.534668 Z M39.0354435,82 L37.6951115,82 L37.6951115,79.1303711 C37.6951115,78.7758771 37.6357859,78.5100107 37.517133,78.3327637 C37.39848,78.1555167 37.2117143,78.0668945 36.9568302,78.0668945 C36.6140551,78.0668945 36.3650342,78.1928698 36.2097599,78.4448242 C36.0544857,78.6967786 35.9768498,79.1113252 35.9768498,79.6884766 L35.9768498,82 L34.6365177,82 L34.6365177,77.0869141 L35.6604435,77.0869141 L35.8406193,77.715332 L35.9153263,77.715332 C36.0471629,77.489745 36.2375907,77.3132331 36.4866154,77.185791 C36.7356401,77.058349 37.0212818,76.9946289 37.343549,76.9946289 C38.0789042,76.9946289 38.5769461,77.2348609 38.8376896,77.715332 L38.956342,77.715332 C39.0881786,77.4868153 39.2822684,77.3095709 39.5386174,77.1835938 C39.7949663,77.0576166 40.08427,76.9946289 40.4065373,76.9946289 C40.9631807,76.9946289 41.3843191,77.1374497 41.669965,77.4230957 C41.955611,77.7087417 42.0984318,78.1665008 42.0984318,78.7963867 L42.0984318,82 L40.7537052,82 L40.7537052,79.1303711 C40.7537052,78.7758771 40.6943797,78.5100107 40.5757267,78.3327637 C40.4570738,78.1555167 40.2703081,78.0668945 40.015424,78.0668945 C39.6872974,78.0668945 39.4419385,78.1840809 39.27934,78.418457 C39.1167415,78.6528332 39.0354435,79.0248998 39.0354435,79.534668 L39.0354435,82 Z M45.3157309,77.9482422 C45.0315498,77.9482422 44.8088958,78.0383292 44.6477622,78.2185059 C44.4866285,78.3986825 44.3943443,78.6542952 44.3709067,78.9853516 L46.2517661,78.9853516 C46.2459067,78.6542952 46.1594817,78.3986825 45.9924887,78.2185059 C45.8254957,78.0383292 45.599912,77.9482422 45.3157309,77.9482422 Z M45.5046957,82.0878906 C44.7136762,82.0878906 44.0955183,81.8696311 43.6502036,81.4331055 C43.2048888,80.9965798 42.9822348,80.378422 42.9822348,79.5786133 C42.9822348,78.755367 43.1880433,78.1188987 43.5996664,77.6691895 C44.0112896,77.2194802 44.5803757,76.9946289 45.3069418,76.9946289 C46.0012812,76.9946289 46.5418032,77.1923808 46.9285239,77.5878906 C47.3152446,77.9834004 47.508602,78.5297817 47.508602,79.2270508 L47.508602,79.8774414 L44.340145,79.8774414 C44.3547935,80.2583027 44.4675853,80.555663 44.6785239,80.7695312 C44.8894624,80.9833995 45.1853579,81.090332 45.5662192,81.090332 C45.8621191,81.090332 46.1419015,81.0595706 46.4055747,80.9980469 C46.6692478,80.9365231 46.9446357,80.8383796 47.2317465,80.7036133 L47.2317465,81.7407227 C46.9973704,81.8579107 46.7468846,81.9450681 46.4802817,82.0021973 C46.2136788,82.0593265 45.8884867,82.0878906 45.5046957,82.0878906 Z M56.4876338,78.7788086 C56.4876338,79.8422905 56.2239645,80.6596651 55.6966181,81.230957 C55.1692718,81.802249 54.4134199,82.0878906 53.42904,82.0878906 C52.4446601,82.0878906 51.6888083,81.802249 51.1614619,81.230957 C50.6341155,80.6596651 50.3704463,79.8393608 50.3704463,78.7700195 C50.3704463,77.7006782 50.6348479,76.884036 51.1636592,76.3200684 C51.6924704,75.7561007 52.4505195,75.4741211 53.4378291,75.4741211 C54.4251387,75.4741211 55.1802581,75.7582979 55.7032099,76.3266602 C56.2261618,76.8950224 56.4876338,77.712397 56.4876338,78.7788086 Z M51.7986689,78.7788086 C51.7986689,79.4965856 51.934898,80.0371076 52.2073603,80.4003906 C52.4798226,80.7636737 52.8870451,80.9453125 53.42904,80.9453125 C54.5159595,80.9453125 55.0594111,80.2231518 55.0594111,78.7788086 C55.0594111,77.3315357 54.5188892,76.6079102 53.4378291,76.6079102 C52.8958342,76.6079102 52.4871469,76.7902814 52.2117549,77.1550293 C51.9363629,77.5197772 51.7986689,78.0610316 51.7986689,78.7788086 Z M61.559425,82 L61.1814954,80.2817383 L60.6805188,78.1108398 L60.640968,78.1108398 L59.7444836,82 L58.3030774,82 L56.9056164,77.0869141 L58.2415539,77.0869141 L58.8084485,79.262207 C58.8729019,79.5200208 58.9622565,80.0576131 59.0765149,80.875 L59.1116711,80.875 C59.1233899,80.6523426 59.174659,80.2993188 59.2654797,79.815918 L59.3357922,79.4423828 L59.9422375,77.0869141 L61.4188,77.0869141 L61.9944836,79.4423828 C62.0296401,79.6035164 62.0728525,79.8400863 62.1241223,80.1520996 C62.1753921,80.4641129 62.2039563,80.7050773 62.2098157,80.875 L62.2449719,80.875 C62.2771986,80.6142565 62.3226083,80.3176286 62.3812024,79.9851074 C62.4397964,79.6525862 62.4896006,79.4116218 62.5306164,79.262207 L63.1194836,77.0869141 L64.4334485,77.0869141 L63.0184094,82 L61.559425,82 Z M69.5667632,82 L68.2264312,82 L68.2264312,79.1303711 C68.2264312,78.7758771 68.1634435,78.5100107 68.0374663,78.3327637 C67.9114891,78.1555167 67.7108075,78.0668945 67.4354155,78.0668945 C67.0604137,78.0668945 66.7894203,78.1921374 66.6224273,78.442627 C66.4554342,78.6931165 66.371939,79.1083955 66.371939,79.6884766 L66.371939,82 L65.0316069,82 L65.0316069,77.0869141 L66.0555327,77.0869141 L66.2357085,77.715332 L66.3104155,77.715332 C66.4598303,77.4780262 66.6656388,77.2985846 66.9278472,77.177002 C67.1900555,77.0554193 67.4881482,76.9946289 67.8221343,76.9946289 C68.3934262,76.9946289 68.8270156,77.1491684 69.1229155,77.458252 C69.4188155,77.7673355 69.5667632,78.213376 69.5667632,78.7963867 L69.5667632,82 Z M72.7884568,77.9482422 C72.5042757,77.9482422 72.2816217,78.0383292 72.1204881,78.2185059 C71.9593544,78.3986825 71.8670702,78.6542952 71.8436326,78.9853516 L73.724492,78.9853516 C73.7186326,78.6542952 73.6322076,78.3986825 73.4652146,78.2185059 C73.2982216,78.0383292 73.0726379,77.9482422 72.7884568,77.9482422 Z M72.9774217,82.0878906 C72.1864021,82.0878906 71.5682442,81.8696311 71.1229295,81.4331055 C70.6776147,80.9965798 70.4549607,80.378422 70.4549607,79.5786133 C70.4549607,78.755367 70.6607692,78.1188987 71.0723924,77.6691895 C71.4840155,77.2194802 72.0531016,76.9946289 72.7796678,76.9946289 C73.4740072,76.9946289 74.0145291,77.1923808 74.4012498,77.5878906 C74.7879705,77.9834004 74.9813279,78.5297817 74.9813279,79.2270508 L74.9813279,79.8774414 L71.8128709,79.8774414 C71.8275194,80.2583027 71.9403112,80.555663 72.1512498,80.7695312 C72.3621883,80.9833995 72.6580838,81.090332 73.0389451,81.090332 C73.334845,81.090332 73.6146274,81.0595706 73.8783006,80.9980469 C74.1419738,80.9365231 74.4173616,80.8383796 74.7044724,80.7036133 L74.7044724,81.7407227 C74.4700963,81.8579107 74.2196105,81.9450681 73.9530076,82.0021973 C73.6864047,82.0593265 73.3612126,82.0878906 72.9774217,82.0878906 Z M78.620502,76.9946289 C78.8021435,76.9946289 78.9530209,77.0078124 79.0731387,77.0341797 L78.9720645,78.2910156 C78.8636655,78.2617186 78.7318309,78.2470703 78.5765567,78.2470703 C78.1488202,78.2470703 77.8155716,78.3569325 77.5768008,78.5766602 C77.3380301,78.7963878 77.2186465,79.1040019 77.2186465,79.4995117 L77.2186465,82 L75.8783145,82 L75.8783145,77.0869141 L76.8934512,77.0869141 L77.0912051,77.9130859 L77.1571231,77.9130859 C77.3094676,77.6376939 77.5152761,77.4157723 77.7745547,77.2473145 C78.0338334,77.0788566 78.315813,76.9946289 78.620502,76.9946289 Z" id="Home-Owner" fill="#16A5AA"></path>
                <g id="Group" transform="translate(60.202532, 17.600000)" fill-rule="nonzero">
                    <rect id="Rectangle-path" fill="#A1C945" x="0.855696203" y="0.591428571" width="7.50379747" height="14.0628571"></rect>
                    <rect id="Rectangle-path" fill="#82BC00" x="0.394936709" y="0.591428571" width="8.35949367" height="2.49714286"></rect>
                </g>
                <g id="Group" transform="translate(24.000000, 13.000000)" fill-rule="nonzero">
                    <path d="M25.8683544,4.99428571 C25.078481,4.99428571 24.2886076,5.32285714 23.6962025,5.84857143 L7.10886076,22.4085714 L7.10886076,44.2914286 C7.10886076,45.0142857 7.70126582,45.6057143 8.42531646,45.6057143 L43.2455696,45.6057143 C43.9696203,45.6057143 44.5620253,45.0142857 44.5620253,44.2914286 L44.5620253,22.4085714 L27.9746835,5.84857143 C27.4481013,5.32285714 26.6582278,4.99428571 25.8683544,4.99428571 Z" id="Shape" fill="#ACD05E"></path>
                    <path d="M30.7392405,24.5114286 L19.0227848,36.2085714 L28.5012658,45.6714286 L43.2455696,45.6714286 C43.9696203,45.6714286 44.5620253,45.08 44.5620253,44.3571429 L44.5620253,38.3114286 L30.7392405,24.5114286 Z" id="Shape" fill="#82BC00"></path>
                    <path d="M27.9746835,5.84857143 C27.3822785,5.25714286 26.6582278,4.92857143 25.8025316,4.92857143 C25.0126582,4.92857143 24.2227848,5.25714286 23.6303797,5.78285714 L7.10886076,22.4085714 L7.10886076,25.2342857 L23.6962025,8.74 C24.2886076,8.14857143 25.0126582,7.82 25.8683544,7.82 C26.6582278,7.82 27.4481013,8.14857143 28.0405063,8.74 L44.6278481,25.3 L44.6278481,22.4742857 L27.9746835,5.84857143 Z" id="Shape" fill="#FFFFFF"></path>
                    <path d="M51.4734177,24.6428571 L27.9746835,1.11714286 C27.3822785,0.525714286 26.6582278,0.197142857 25.8025316,0.197142857 C25.0126582,0.197142857 24.2227848,0.525714286 23.6303797,1.05142857 L0.197468354,24.6428571 L0.263291139,24.7085714 L2.56708861,27.0085714 L23.6962025,5.84857143 C24.2886076,5.25714286 25.0126582,4.99428571 25.8683544,4.99428571 C26.6582278,4.99428571 27.4481013,5.32285714 28.0405063,5.91428571 L49.1696203,27.0085714 L51.4734177,24.6428571 L51.4734177,24.6428571 L51.4734177,24.6428571 Z" id="Shape" fill="#82BC00"></path>
                    <path d="M17.5746835,45.6057143 L17.5746835,29.7028571 C17.5746835,25.4971429 20.9974684,22.1457143 25.1443038,22.1457143 C29.356962,22.1457143 32.7139241,25.5628571 32.7139241,29.7028571 L32.7139241,45.6057143 L17.5746835,45.6057143 Z" id="Shape" fill="#5D5D4F"></path>
                    <path d="M18.956962,45.6057143 L18.956962,29.7028571 C18.956962,26.2857143 21.721519,23.5257143 25.1443038,23.5257143 L25.1443038,23.5257143 C28.5670886,23.5257143 31.3316456,26.2857143 31.3316456,29.7028571 L31.3316456,45.6057143 L18.956962,45.6057143 Z" id="Shape" fill="#82BC00"></path>
                    <path d="M19.878481,45.6057143 L19.878481,29.7028571 C19.878481,26.8114286 22.2481013,24.4457143 25.1443038,24.4457143 C28.0405063,24.4457143 30.4101266,26.8114286 30.4101266,29.7028571 L30.4101266,45.6057143 L19.878481,45.6057143 Z" id="Shape" fill="#FFFFFF"></path>
                    <ellipse id="Oval" fill="#3CABC7" cx="20.8" cy="34.8285714" rx="1.38227848" ry="1.38"></ellipse>
                    <rect id="Rectangle-path" fill="#5D5D4F" x="5.52911392" y="43.6342857" width="40.6126582" height="1.97142857"></rect>
                </g>
            </g>
        </g>
    </g>
</svg>