<?xml version="1.0" encoding="UTF-8" standalone="no"?>
<svg width="103px" height="102px" viewBox="0 0 103 102" version="1.1" xmlns="http://www.w3.org/2000/svg" xmlns:xlink="http://www.w3.org/1999/xlink">
    <!-- Generator: Sketch 45.1 (43504) - http://www.bohemiancoding.com/sketch -->
    <title>btn-life-married-selected</title>
    <desc>Created with Sketch.</desc>
    <defs>
        <ellipse id="path-1" cx="51.5" cy="51" rx="49.5192308" ry="49.0384615"></ellipse>
    </defs>
    <g id="Symbols" stroke="none" stroke-width="1" fill="none" fill-rule="evenodd">
        <g id="btn-life-married-selected">
            <g id="btn-life-married-static">
                <g id="Event-Circle-Selected">
                    <g id="Group-6">
                        <g id="Oval-3">
                            <use fill="#FFFFFF" fill-rule="evenodd" xlink:href="#path-1"></use>
                            <ellipse stroke="#00A5AB" stroke-width="2" cx="51.5" cy="51" rx="50.5192308" ry="50.0384615"></ellipse>
                        </g>
                        <g id="Group-7">
                            <g id="Group">
                                <ellipse id="Oval" fill="#00A5AB" cx="14.3605769" cy="14.2211538" rx="14.3605769" ry="14.2211538"></ellipse>
                                <polygon id="Shape" fill="#FFFFFF" points="12.4026266 20.659919 6.40262664 14.8906883 8.08262664 13.2753036 12.4026266 17.4291498 21.5226266 8.65991903 23.2026266 10.2753036"></polygon>
                            </g>
                        </g>
                    </g>
                </g>
                <path d="M38.2763184,82 L36.7294434,76.9594727 L36.6898926,76.9594727 C36.745557,77.9848684 36.7733887,78.6689436 36.7733887,79.0117188 L36.7733887,82 L35.5561036,82 L35.5561036,75.5751953 L37.4105958,75.5751953 L38.9311036,80.4882812 L38.9574708,80.4882812 L40.5702637,75.5751953 L42.4247559,75.5751953 L42.4247559,82 L41.1547364,82 L41.1547364,78.9589844 C41.1547364,78.815429 41.1569336,78.6499033 41.1613282,78.4624023 C41.1657227,78.2749014 41.1854979,77.7768595 41.2206544,76.9682617 L41.1811036,76.9682617 L39.5243653,82 L38.2763184,82 Z M46.8637347,82 L46.6044574,81.3320312 L46.5693011,81.3320312 C46.343714,81.6162124 46.1115386,81.8132319 45.8727679,81.9230957 C45.6339972,82.0329595 45.322721,82.0878906 44.93893,82.0878906 C44.467248,82.0878906 44.0959138,81.9531263 43.8249163,81.6835938 C43.5539189,81.4140612 43.4184222,81.0302759 43.4184222,80.5322266 C43.4184222,80.0107396 43.6007934,79.6262219 43.9655413,79.3786621 C44.3302893,79.1311023 44.8803326,78.9941408 45.6156878,78.9677734 L46.4682269,78.9414062 L46.4682269,78.7260742 C46.4682269,78.2280249 46.2133466,77.9790039 45.7035784,77.9790039 C45.3109984,77.9790039 44.8495772,78.0976551 44.3193011,78.3349609 L43.8754534,77.4296875 C44.440886,77.1337876 45.0678328,76.9858398 45.7563128,76.9858398 C46.4154958,76.9858398 46.9208618,77.1293931 47.2724261,77.4165039 C47.6239904,77.7036147 47.7997699,78.1401338 47.7997699,78.7260742 L47.7997699,82 L46.8637347,82 Z M46.4682269,79.7236328 L45.9496722,79.7412109 C45.5600218,79.7529297 45.2699857,79.8232415 45.079555,79.9521484 C44.8891244,80.0810553 44.7939105,80.2773424 44.7939105,80.5410156 C44.7939105,80.9189472 45.0107052,81.1079102 45.4443011,81.1079102 C45.7548495,81.1079102 46.0031381,81.0185556 46.1891742,80.8398438 C46.3752102,80.6611319 46.4682269,80.4238296 46.4682269,80.1279297 L46.4682269,79.7236328 Z M51.728983,76.9946289 C51.9106245,76.9946289 52.0615019,77.0078124 52.1816197,77.0341797 L52.0805455,78.2910156 C51.9721465,78.2617186 51.8403119,78.2470703 51.6850377,78.2470703 C51.2573012,78.2470703 50.9240526,78.3569325 50.6852818,78.5766602 C50.4465111,78.7963878 50.3271275,79.1040019 50.3271275,79.4995117 L50.3271275,82 L48.9867955,82 L48.9867955,77.0869141 L50.0019322,77.0869141 L50.1996861,77.9130859 L50.2656041,77.9130859 C50.4179486,77.6376939 50.6237571,77.4157723 50.8830357,77.2473145 C51.1423144,77.0788566 51.424294,76.9946289 51.728983,76.9946289 Z M55.6230399,76.9946289 C55.8046814,76.9946289 55.9555588,77.0078124 56.0756766,77.0341797 L55.9746024,78.2910156 C55.8662034,78.2617186 55.7343688,78.2470703 55.5790946,78.2470703 C55.1513581,78.2470703 54.8181095,78.3569325 54.5793387,78.5766602 C54.340568,78.7963878 54.2211844,79.1040019 54.2211844,79.4995117 L54.2211844,82 L52.8808524,82 L52.8808524,77.0869141 L53.8959891,77.0869141 L54.093743,77.9130859 L54.159661,77.9130859 C54.3120055,77.6376939 54.517814,77.4157723 54.7770926,77.2473145 C55.0363713,77.0788566 55.3183509,76.9946289 55.6230399,76.9946289 Z M56.7177804,75.8168945 C56.7177804,75.3803689 56.960942,75.1621094 57.4472726,75.1621094 C57.9336031,75.1621094 58.1767648,75.3803689 58.1767648,75.8168945 C58.1767648,76.0249034 58.1159744,76.186767 57.9943917,76.3024902 C57.8728091,76.4182135 57.6904379,76.4760742 57.4472726,76.4760742 C56.960942,76.4760742 56.7177804,76.2563499 56.7177804,75.8168945 Z M58.1152413,82 L56.7749093,82 L56.7749093,77.0869141 L58.1152413,77.0869141 L58.1152413,82 Z M61.3633021,77.9482422 C61.079121,77.9482422 60.856467,78.0383292 60.6953334,78.2185059 C60.5341998,78.3986825 60.4419155,78.6542952 60.4184779,78.9853516 L62.2993373,78.9853516 C62.2934779,78.6542952 62.207053,78.3986825 62.04006,78.2185059 C61.8730669,78.0383292 61.6474833,77.9482422 61.3633021,77.9482422 Z M61.552267,82.0878906 C60.7612474,82.0878906 60.1430895,81.8696311 59.6977748,81.4331055 C59.2524601,80.9965798 59.0298061,80.378422 59.0298061,79.5786133 C59.0298061,78.755367 59.2356145,78.1188987 59.6472377,77.6691895 C60.0588608,77.2194802 60.627947,76.9946289 61.3545131,76.9946289 C62.0488525,76.9946289 62.5893744,77.1923808 62.9760951,77.5878906 C63.3628158,77.9834004 63.5561732,78.5297817 63.5561732,79.2270508 L63.5561732,79.8774414 L60.3877162,79.8774414 C60.4023647,80.2583027 60.5151566,80.555663 60.7260951,80.7695312 C60.9370337,80.9833995 61.2329292,81.090332 61.6137904,81.090332 C61.9096903,81.090332 62.1894727,81.0595706 62.4531459,80.9980469 C62.7168191,80.9365231 62.992207,80.8383796 63.2793178,80.7036133 L63.2793178,81.7407227 C63.0449416,81.8579107 62.7944558,81.9450681 62.5278529,82.0021973 C62.26125,82.0593265 61.936058,82.0878906 61.552267,82.0878906 Z M66.0088239,82.0878906 C65.4316726,82.0878906 64.978308,81.8637718 64.6487165,81.4155273 C64.319125,80.9672829 64.1543317,80.3461954 64.1543317,79.5522461 C64.1543317,78.746578 64.3220546,78.1188987 64.6575055,77.6691895 C64.9929564,77.2194802 65.45511,76.9946289 66.0439801,76.9946289 C66.6621473,76.9946289 67.1338223,77.2348609 67.4590192,77.715332 L67.5029645,77.715332 C67.4355814,77.3491193 67.4018903,77.0224624 67.4018903,76.7353516 L67.4018903,75.1621094 L68.7466169,75.1621094 L68.7466169,82 L67.7182966,82 L67.4590192,81.362793 L67.4018903,81.362793 C67.0972013,81.8461938 66.6328505,82.0878906 66.0088239,82.0878906 Z M66.4790387,81.0200195 C66.8218139,81.0200195 67.0730321,80.9204112 67.2327008,80.7211914 C67.3923696,80.5219717 67.4795269,80.1835961 67.4941755,79.7060547 L67.4941755,79.5610352 C67.4941755,79.0336888 67.4128774,78.6557629 67.250279,78.4272461 C67.0876805,78.1987293 66.8232789,78.0844727 66.4570661,78.0844727 C66.1582365,78.0844727 65.926061,78.2111804 65.7605329,78.4645996 C65.5950047,78.7180188 65.5122419,79.0864234 65.5122419,79.5698242 C65.5122419,80.0532251 65.5957371,80.4157703 65.7627301,80.6574707 C65.9297232,80.8991711 66.1684903,81.0200195 66.4790387,81.0200195 Z" id="Married-Copy" fill="#16A5AA"></path>
                <g id="Group-3" transform="translate(24.000000, 14.000000)" fill-rule="nonzero">
                    <path d="M0.489230769,33.5612903 C0.489230769,23.9370968 8.23538462,16.1225806 17.7753846,16.1225806 C27.3153846,16.1225806 35.0615385,23.9370968 35.0615385,33.5612903 C35.0615385,43.1854839 27.3153846,51 17.7753846,51 C8.23538462,51 0.489230769,43.1854839 0.489230769,33.5612903 Z M3.83230769,33.5612903 C3.83230769,41.2935484 10.1107692,47.6274194 17.7753846,47.6274194 C25.44,47.6274194 31.7184615,41.2935484 31.7184615,33.5612903 C31.7184615,25.8290323 25.44,19.4951613 17.7753846,19.4951613 C10.1107692,19.4951613 3.83230769,25.8290323 3.83230769,33.5612903 Z" id="Shape" fill="#82BC00"></path>
                    <path d="M17.7753846,17.7677419 C17.7753846,8.14354839 25.5215385,0.329032258 35.0615385,0.329032258 C44.6015385,0.329032258 52.3476923,8.14354839 52.3476923,17.7677419 C52.3476923,27.3919355 44.6015385,35.2064516 35.0615385,35.2064516 C25.5215385,35.2064516 17.7753846,27.3919355 17.7753846,17.7677419 Z M21.0369231,17.7677419 C21.0369231,25.5 27.3153846,31.833871 34.98,31.833871 C42.6446154,31.833871 48.9230769,25.5 48.9230769,17.7677419 C48.9230769,10.0354839 42.6446154,3.7016129 34.98,3.7016129 C27.3153846,3.7016129 21.0369231,10.0354839 21.0369231,17.7677419 Z" id="Shape" fill="#ACD05E"></path>
                </g>
            </g>
        </g>
    </g>
</svg>