<?xml version="1.0" encoding="UTF-8" standalone="no"?>
<svg width="101px" height="102px" viewBox="0 0 101 102" version="1.1" xmlns="http://www.w3.org/2000/svg" xmlns:xlink="http://www.w3.org/1999/xlink">
    <!-- Generator: Sketch 45.1 (43504) - http://www.bohemiancoding.com/sketch -->
    <title>btn-life-misc-hover</title>
    <desc>Created with Sketch.</desc>
    <defs>
        <ellipse id="path-1" cx="50.5" cy="51" rx="48.5576923" ry="49.0384615"></ellipse>
    </defs>
    <g id="Symbols" stroke="none" stroke-width="1" fill="none" fill-rule="evenodd">
        <g id="btn-life-misc-hover">
            <g id="btn-life-misc-static">
                <g id="Event-Circle-Hover">
                    <g id="Oval-3">
                        <use fill="#FFFFFF" fill-rule="evenodd" xlink:href="#path-1"></use>
                        <ellipse stroke="#545454" stroke-width="2" cx="50.5" cy="51" rx="49.5576923" ry="50.0384615"></ellipse>
                    </g>
                </g>
                <path d="M23.8956614,76 L22.3487864,70.9594727 L22.3092356,70.9594727 C22.3649,71.9848684 22.3927317,72.6689436 22.3927317,73.0117188 L22.3927317,76 L21.1754465,76 L21.1754465,69.5751953 L23.0299387,69.5751953 L24.5504465,74.4882812 L24.5768137,74.4882812 L26.1896067,69.5751953 L28.0440989,69.5751953 L28.0440989,76 L26.7740794,76 L26.7740794,72.9589844 C26.7740794,72.815429 26.7762766,72.6499033 26.7806712,72.4624023 C26.7850657,72.2749014 26.8048409,71.7768595 26.8399973,70.9682617 L26.8004465,70.9682617 L25.1437083,76 L23.8956614,76 Z M29.3058316,69.8168945 C29.3058316,69.3803689 29.5489932,69.1621094 30.0353238,69.1621094 C30.5216543,69.1621094 30.7648159,69.3803689 30.7648159,69.8168945 C30.7648159,70.0249034 30.7040255,70.186767 30.5824429,70.3024902 C30.4608603,70.4182135 30.278489,70.4760742 30.0353238,70.4760742 C29.5489932,70.4760742 29.3058316,70.2563499 29.3058316,69.8168945 Z M30.7032925,76 L29.3629605,76 L29.3629605,71.0869141 L30.7032925,71.0869141 L30.7032925,76 Z M35.3444197,74.5410156 C35.3444197,75.0449244 35.1693726,75.4287096 34.8192732,75.6923828 C34.4691738,75.956056 33.9454974,76.0878906 33.2482283,76.0878906 C32.8908047,76.0878906 32.5861202,76.0637209 32.3341658,76.0153809 C32.0822114,75.9670408 31.8463739,75.8959966 31.6266463,75.8022461 L31.6266463,74.6948242 C31.875671,74.8120123 32.1561857,74.9101559 32.468199,74.9892578 C32.7802123,75.0683598 33.0548678,75.1079102 33.2921736,75.1079102 C33.7785042,75.1079102 34.0216658,74.9672866 34.0216658,74.6860352 C34.0216658,74.5805659 33.9894396,74.4948734 33.9249861,74.4289551 C33.8605327,74.3630368 33.7492057,74.2883305 33.5910018,74.204834 C33.4327978,74.1213375 33.2218624,74.0239263 32.9581893,73.9125977 C32.5802577,73.7543937 32.3026726,73.6079108 32.1254256,73.4731445 C31.9481786,73.3383782 31.8192736,73.1838388 31.7387068,73.0095215 C31.65814,72.8352042 31.6178572,72.6206067 31.6178572,72.3657227 C31.6178572,71.929197 31.787045,71.5915539 32.1254256,71.3527832 C32.4638062,71.1140125 32.9435377,70.9946289 33.5646346,70.9946289 C34.1564344,70.9946289 34.7321122,71.1235339 35.2916854,71.3813477 L34.8873885,72.3481445 C34.6412935,72.2426753 34.4113153,72.1562503 34.1974471,72.0888672 C33.9835788,72.021484 33.7653193,71.987793 33.5426619,71.987793 C33.1471521,71.987793 32.9494002,72.0947255 32.9494002,72.3085938 C32.9494002,72.4287115 33.0131203,72.5327144 33.1405623,72.6206055 C33.2680043,72.7084965 33.5470543,72.8388663 33.9777205,73.0117188 C34.3615115,73.166993 34.6427587,73.312011 34.8214705,73.4467773 C35.0001823,73.5815436 35.132017,73.7368155 35.2169783,73.9125977 C35.3019397,74.0883798 35.3444197,74.2978503 35.3444197,74.5410156 Z M38.1925782,76.0878906 C36.6632737,76.0878906 35.8986329,75.2485435 35.8986329,73.5698242 C35.8986329,72.7348591 36.1066386,72.096926 36.5226563,71.6560059 C36.938674,71.2150857 37.5348595,70.9946289 38.3112305,70.9946289 C38.8795927,70.9946289 39.3893533,71.1059559 39.8405274,71.3286133 L39.4450196,72.3657227 C39.234081,72.2807613 39.0377939,72.2111819 38.8561524,72.1569824 C38.6745109,72.1027829 38.4928721,72.0756836 38.3112305,72.0756836 C37.6139614,72.0756836 37.2653321,72.5707958 37.2653321,73.5610352 C37.2653321,74.5219775 37.6139614,75.0024414 38.3112305,75.0024414 C38.5690443,75.0024414 38.8078115,74.9680179 39.0275391,74.8991699 C39.2472668,74.8303219 39.4669912,74.722657 39.6867188,74.5761719 L39.6867188,75.7231445 C39.4699209,75.8608405 39.2509289,75.9560544 39.0297364,76.0087891 C38.8085439,76.0615237 38.5294939,76.0878906 38.1925782,76.0878906 Z M42.6667132,71.9482422 C42.3825321,71.9482422 42.1598781,72.0383292 41.9987445,72.2185059 C41.8376108,72.3986825 41.7453266,72.6542952 41.721889,72.9853516 L43.6027484,72.9853516 C43.596889,72.6542952 43.5104641,72.3986825 43.343471,72.2185059 C43.176478,72.0383292 42.9508943,71.9482422 42.6667132,71.9482422 Z M42.8556781,76.0878906 C42.0646585,76.0878906 41.4465006,75.8696311 41.0011859,75.4331055 C40.5558711,74.9965798 40.3332171,74.378422 40.3332171,73.5786133 C40.3332171,72.755367 40.5390256,72.1188987 40.9506488,71.6691895 C41.3622719,71.2194802 41.931358,70.9946289 42.6579242,70.9946289 C43.3522636,70.9946289 43.8927855,71.1923808 44.2795062,71.5878906 C44.6662269,71.9834004 44.8595843,72.5297817 44.8595843,73.2270508 L44.8595843,73.8774414 L41.6911273,73.8774414 C41.7057758,74.2583027 41.8185676,74.555663 42.0295062,74.7695312 C42.2404447,74.9833995 42.5363402,75.090332 42.9172015,75.090332 C43.2131014,75.090332 43.4928838,75.0595706 43.756557,74.9980469 C44.0202302,74.9365231 44.295618,74.8383796 44.5827288,74.7036133 L44.5827288,75.7407227 C44.3483527,75.8579107 44.0978669,75.9450681 43.831264,76.0021973 C43.5646611,76.0593265 43.239469,76.0878906 42.8556781,76.0878906 Z M47.0969029,76 L45.7565709,76 L45.7565709,69.1621094 L47.0969029,69.1621094 L47.0969029,76 Z M49.6506278,76 L48.3102958,76 L48.3102958,69.1621094 L49.6506278,69.1621094 L49.6506278,76 Z M53.9841378,76 L53.7248605,75.3320312 L53.6897042,75.3320312 C53.4641172,75.6162124 53.2319418,75.8132319 52.993171,75.9230957 C52.7544003,76.0329595 52.4431241,76.0878906 52.0593331,76.0878906 C51.5876511,76.0878906 51.2163169,75.9531263 50.9453195,75.6835938 C50.674322,75.4140612 50.5388253,75.0302759 50.5388253,74.5322266 C50.5388253,74.0107396 50.7211965,73.6262219 51.0859445,73.3786621 C51.4506924,73.1311023 52.0007357,72.9941408 52.736091,72.9677734 L53.58863,72.9414062 L53.58863,72.7260742 C53.58863,72.2280249 53.3337497,71.9790039 52.8239816,71.9790039 C52.4314015,71.9790039 51.9699803,72.0976551 51.4397042,72.3349609 L50.9958566,71.4296875 C51.5612891,71.1337876 52.1882359,70.9858398 52.876716,70.9858398 C53.5358989,70.9858398 54.041265,71.1293931 54.3928292,71.4165039 C54.7443935,71.7036147 54.920173,72.1401338 54.920173,72.7260742 L54.920173,76 L53.9841378,76 Z M53.58863,73.7236328 L53.0700753,73.7412109 C52.6804249,73.7529297 52.3903888,73.8232415 52.1999581,73.9521484 C52.0095275,74.0810553 51.9143136,74.2773424 51.9143136,74.5410156 C51.9143136,74.9189472 52.1311083,75.1079102 52.5647042,75.1079102 C52.8752527,75.1079102 53.1235412,75.0185556 53.3095773,74.8398438 C53.4956134,74.6611319 53.58863,74.4238296 53.58863,74.1279297 L53.58863,73.7236328 Z M60.6423549,76 L59.3020229,76 L59.3020229,73.1303711 C59.3020229,72.7758771 59.2390352,72.5100107 59.113058,72.3327637 C58.9870808,72.1555167 58.7863992,72.0668945 58.5110072,72.0668945 C58.1360054,72.0668945 57.865012,72.1921374 57.6980189,72.442627 C57.5310259,72.6931165 57.4475307,73.1083955 57.4475307,73.6884766 L57.4475307,76 L56.1071986,76 L56.1071986,71.0869141 L57.1311244,71.0869141 L57.3113002,71.715332 L57.3860072,71.715332 C57.535422,71.4780262 57.7412305,71.2985846 58.0034389,71.177002 C58.2656472,71.0554193 58.5637399,70.9946289 58.897726,70.9946289 C59.4690179,70.9946289 59.9026073,71.1491684 60.1985072,71.458252 C60.4944071,71.7673355 60.6423549,72.213376 60.6423549,72.7963867 L60.6423549,76 Z M63.8640485,71.9482422 C63.5798674,71.9482422 63.3572134,72.0383292 63.1960798,72.2185059 C63.0349461,72.3986825 62.9426619,72.6542952 62.9192243,72.9853516 L64.8000837,72.9853516 C64.7942243,72.6542952 64.7077993,72.3986825 64.5408063,72.2185059 C64.3738133,72.0383292 64.1482296,71.9482422 63.8640485,71.9482422 Z M64.0530133,76.0878906 C63.2619938,76.0878906 62.6438359,75.8696311 62.1985212,75.4331055 C61.7532064,74.9965798 61.5305524,74.378422 61.5305524,73.5786133 C61.5305524,72.755367 61.7363609,72.1188987 62.1479841,71.6691895 C62.5596072,71.2194802 63.1286933,70.9946289 63.8552594,70.9946289 C64.5495989,70.9946289 65.0901208,71.1923808 65.4768415,71.5878906 C65.8635622,71.9834004 66.0569196,72.5297817 66.0569196,73.2270508 L66.0569196,73.8774414 L62.8884626,73.8774414 C62.9031111,74.2583027 63.0159029,74.555663 63.2268415,74.7695312 C63.43778,74.9833995 63.7336755,75.090332 64.1145368,75.090332 C64.4104367,75.090332 64.6902191,75.0595706 64.9538923,74.9980469 C65.2175654,74.9365231 65.4929533,74.8383796 65.7800641,74.7036133 L65.7800641,75.7407227 C65.545688,75.8579107 65.2952022,75.9450681 65.0285993,76.0021973 C64.7619964,76.0593265 64.4368043,76.0878906 64.0530133,76.0878906 Z M68.0217773,73.534668 C68.0217773,74.0209985 68.1016105,74.3886706 68.2612792,74.6376953 C68.420948,74.88672 68.6809552,75.0112305 69.0413085,75.0112305 C69.3987322,75.0112305 69.6558097,74.8874524 69.8125488,74.6398926 C69.9692878,74.3923327 70.0476562,74.0239282 70.0476562,73.534668 C70.0476562,73.0483374 69.9685554,72.683595 69.8103515,72.4404297 C69.6521476,72.1972644 69.3928728,72.0756836 69.0325195,72.0756836 C68.6750958,72.0756836 68.4172859,72.196532 68.259082,72.4382324 C68.1008781,72.6799328 68.0217773,73.0454077 68.0217773,73.534668 Z M71.4187499,73.534668 C71.4187499,74.3344767 71.2078145,74.9599587 70.7859374,75.4111328 C70.3640603,75.8623069 69.7766639,76.0878906 69.0237304,76.0878906 C68.5520484,76.0878906 68.1360369,75.9846202 67.7756835,75.7780762 C67.4153302,75.5715322 67.1384775,75.2749043 66.9451171,74.8881836 C66.7517568,74.5014629 66.6550781,74.0502955 66.6550781,73.534668 C66.6550781,72.7319296 66.8645486,72.1079124 67.283496,71.6625977 C67.7024434,71.2172829 68.2913047,70.9946289 69.0500976,70.9946289 C69.5217796,70.9946289 69.9377911,71.0971669 70.2981445,71.3022461 C70.6584978,71.5073252 70.9353505,71.8017559 71.1287109,72.1855469 C71.3220712,72.5693379 71.4187499,73.0190404 71.4187499,73.534668 Z M75.8137834,76 L75.6336076,75.371582 L75.5632951,75.371582 C75.4197397,75.6000988 75.2161285,75.7766107 74.9524553,75.901123 C74.6887821,76.0256354 74.3884921,76.0878906 74.0515764,76.0878906 C73.474425,76.0878906 73.0393708,75.9333512 72.7464006,75.6242676 C72.4534304,75.315184 72.3069475,74.8706084 72.3069475,74.2905273 L72.3069475,71.0869141 L73.6472795,71.0869141 L73.6472795,73.956543 C73.6472795,74.3110369 73.7102671,74.5769034 73.8362443,74.7541504 C73.9622215,74.9313974 74.1629031,75.0200195 74.4382951,75.0200195 C74.813297,75.0200195 75.0842904,74.8947766 75.2512834,74.6442871 C75.4182764,74.3937976 75.5017717,73.9785185 75.5017717,73.3984375 L75.5017717,71.0869141 L76.8421037,71.0869141 L76.8421037,76 L75.8137834,76 Z M81.4832309,74.5410156 C81.4832309,75.0449244 81.3081838,75.4287096 80.9580844,75.6923828 C80.607985,75.956056 80.0843086,76.0878906 79.3870395,76.0878906 C79.0296159,76.0878906 78.7249314,76.0637209 78.472977,76.0153809 C78.2210226,75.9670408 77.9851851,75.8959966 77.7654575,75.8022461 L77.7654575,74.6948242 C78.0144822,74.8120123 78.2949969,74.9101559 78.6070102,74.9892578 C78.9190235,75.0683598 79.193679,75.1079102 79.4309848,75.1079102 C79.9173154,75.1079102 80.160477,74.9672866 80.160477,74.6860352 C80.160477,74.5805659 80.1282508,74.4948734 80.0637973,74.4289551 C79.9993439,74.3630368 79.8880169,74.2883305 79.729813,74.204834 C79.571609,74.1213375 79.3606737,74.0239263 79.0970005,73.9125977 C78.7190689,73.7543937 78.4414838,73.6079108 78.2642368,73.4731445 C78.0869898,73.3383782 77.9580848,73.1838388 77.877518,73.0095215 C77.7969512,72.8352042 77.7566684,72.6206067 77.7566684,72.3657227 C77.7566684,71.929197 77.9258562,71.5915539 78.2642368,71.3527832 C78.6026174,71.1140125 79.0823489,70.9946289 79.7034458,70.9946289 C80.2952456,70.9946289 80.8709234,71.1235339 81.4304966,71.3813477 L81.0261997,72.3481445 C80.7801047,72.2426753 80.5501265,72.1562503 80.3362583,72.0888672 C80.12239,72.021484 79.9041305,71.987793 79.6814731,71.987793 C79.2859633,71.987793 79.0882114,72.0947255 79.0882114,72.3085938 C79.0882114,72.4287115 79.1519315,72.5327144 79.2793735,72.6206055 C79.4068155,72.7084965 79.6858655,72.8388663 80.1165317,73.0117188 C80.5003227,73.166993 80.7815699,73.312011 80.9602817,73.4467773 C81.1389935,73.5815436 81.2708282,73.7368155 81.3557895,73.9125977 C81.4407509,74.0883798 81.4832309,74.2978503 81.4832309,74.5410156 Z M37.9049875,87 L34.9826242,87 L34.9826242,86.2265625 L35.7648508,85.8662109 L35.7648508,81.7089844 L34.9826242,81.3486328 L34.9826242,80.5751953 L37.9049875,80.5751953 L37.9049875,81.3486328 L37.1227609,81.7089844 L37.1227609,85.8662109 L37.9049875,86.2265625 L37.9049875,87 Z M43.2404507,87 L41.9001186,87 L41.9001186,84.1303711 C41.9001186,83.7758771 41.837131,83.5100107 41.7111538,83.3327637 C41.5851766,83.1555167 41.384495,83.0668945 41.109103,83.0668945 C40.7341011,83.0668945 40.4631077,83.1921374 40.2961147,83.442627 C40.1291217,83.6931165 40.0456264,84.1083955 40.0456264,84.6884766 L40.0456264,87 L38.7052944,87 L38.7052944,82.0869141 L39.7292202,82.0869141 L39.909396,82.715332 L39.984103,82.715332 C40.1335178,82.4780262 40.3393263,82.2985846 40.6015346,82.177002 C40.863743,82.0554193 41.1618357,81.9946289 41.4958217,81.9946289 C42.0671137,81.9946289 42.5007031,82.1491684 42.796603,82.458252 C43.0925029,82.7673355 43.2404507,83.213376 43.2404507,83.7963867 L43.2404507,87 Z M46.4225935,87.0878906 C44.893289,87.0878906 44.1286482,86.2485435 44.1286482,84.5698242 C44.1286482,83.7348591 44.3366539,83.096926 44.7526716,82.6560059 C45.1686893,82.2150857 45.7648748,81.9946289 46.5412458,81.9946289 C47.109608,81.9946289 47.6193686,82.1059559 48.0705427,82.3286133 L47.6750349,83.3657227 C47.4640963,83.2807613 47.2678092,83.2111819 47.0861677,83.1569824 C46.9045262,83.1027829 46.7228874,83.0756836 46.5412458,83.0756836 C45.8439767,83.0756836 45.4953474,83.5707958 45.4953474,84.5610352 C45.4953474,85.5219775 45.8439767,86.0024414 46.5412458,86.0024414 C46.7990596,86.0024414 47.0378268,85.9680179 47.2575544,85.8991699 C47.4772821,85.8303219 47.6970065,85.722657 47.9167341,85.5761719 L47.9167341,86.7231445 C47.6999362,86.8608405 47.4809442,86.9560544 47.2597517,87.0087891 C47.0385592,87.0615237 46.7595092,87.0878906 46.4225935,87.0878906 Z M49.9299316,84.534668 C49.9299316,85.0209985 50.0097648,85.3886706 50.1694336,85.6376953 C50.3291024,85.88672 50.5891095,86.0112305 50.9494629,86.0112305 C51.3068866,86.0112305 51.5639641,85.8874524 51.7207031,85.6398926 C51.8774422,85.3923327 51.9558105,85.0239282 51.9558105,84.534668 C51.9558105,84.0483374 51.8767098,83.683595 51.7185059,83.4404297 C51.5603019,83.1972644 51.3010272,83.0756836 50.9406738,83.0756836 C50.5832502,83.0756836 50.3254402,83.196532 50.1672363,83.4382324 C50.0090324,83.6799328 49.9299316,84.0454077 49.9299316,84.534668 Z M53.3269043,84.534668 C53.3269043,85.3344767 53.1159689,85.9599587 52.6940918,86.4111328 C52.2722147,86.8623069 51.6848182,87.0878906 50.9318848,87.0878906 C50.4602027,87.0878906 50.0441913,86.9846202 49.6838379,86.7780762 C49.3234845,86.5715322 49.0466318,86.2749043 48.8532715,85.8881836 C48.6599111,85.5014629 48.5632324,85.0502955 48.5632324,84.534668 C48.5632324,83.7319296 48.772703,83.1079124 49.1916504,82.6625977 C49.6105978,82.2172829 50.1994591,81.9946289 50.958252,81.9946289 C51.429934,81.9946289 51.8459455,82.0971669 52.2062988,82.3022461 C52.5666522,82.5073252 52.8435049,82.8017559 53.0368652,83.1855469 C53.2302256,83.5693379 53.3269043,84.0190404 53.3269043,84.534668 Z M58.6403948,87 L57.3000628,87 L57.3000628,84.1303711 C57.3000628,83.7758771 57.2407372,83.5100107 57.1220842,83.3327637 C57.0034313,83.1555167 56.8166656,83.0668945 56.5617815,83.0668945 C56.2190064,83.0668945 55.9699854,83.1928698 55.8147112,83.4448242 C55.659437,83.6967786 55.581801,84.1113252 55.581801,84.6884766 L55.581801,87 L54.241469,87 L54.241469,82.0869141 L55.2653948,82.0869141 L55.4455706,82.715332 L55.5202776,82.715332 C55.6521142,82.489745 55.842542,82.3132331 56.0915667,82.185791 C56.3405913,82.058349 56.626233,81.9946289 56.9485003,81.9946289 C57.6838555,81.9946289 58.1818974,82.2348609 58.4426409,82.715332 L58.5612932,82.715332 C58.6931298,82.4868153 58.8872197,82.3095709 59.1435686,82.1835938 C59.3999176,82.0576166 59.6892213,81.9946289 60.0114885,81.9946289 C60.568132,81.9946289 60.9892703,82.1374497 61.2749163,82.4230957 C61.5605622,82.7087417 61.7033831,83.1665008 61.7033831,83.7963867 L61.7033831,87 L60.3586565,87 L60.3586565,84.1303711 C60.3586565,83.7758771 60.2993309,83.5100107 60.180678,83.3327637 C60.0620251,83.1555167 59.8752593,83.0668945 59.6203753,83.0668945 C59.2922486,83.0668945 59.0468897,83.1840809 58.8842913,83.418457 C58.7216928,83.6528332 58.6403948,84.0248998 58.6403948,84.534668 L58.6403948,87 Z M64.9206822,82.9482422 C64.6365011,82.9482422 64.413847,83.0383292 64.2527134,83.2185059 C64.0915798,83.3986825 63.9992956,83.6542952 63.9758579,83.9853516 L65.8567173,83.9853516 C65.8508579,83.6542952 65.764433,83.3986825 65.59744,83.2185059 C65.430447,83.0383292 65.2048633,82.9482422 64.9206822,82.9482422 Z M65.109647,87.0878906 C64.3186274,87.0878906 63.7004695,86.8696311 63.2551548,86.4331055 C62.8098401,85.9965798 62.5871861,85.378422 62.5871861,84.5786133 C62.5871861,83.755367 62.7929946,83.1188987 63.2046177,82.6691895 C63.6162409,82.2194802 64.185327,81.9946289 64.9118931,81.9946289 C65.6062325,81.9946289 66.1467544,82.1923808 66.5334751,82.5878906 C66.9201958,82.9834004 67.1135533,83.5297817 67.1135533,84.2270508 L67.1135533,84.8774414 L63.9450962,84.8774414 C63.9597447,85.2583027 64.0725366,85.555663 64.2834751,85.7695312 C64.4944137,85.9833995 64.7903092,86.090332 65.1711704,86.090332 C65.4670704,86.090332 65.7468527,86.0595706 66.0105259,85.9980469 C66.2741991,85.9365231 66.549587,85.8383796 66.8366978,85.7036133 L66.8366978,86.7407227 C66.6023216,86.8579107 66.3518358,86.9450681 66.0852329,87.0021973 C65.81863,87.0593265 65.493438,87.0878906 65.109647,87.0878906 Z" id="Miscellaneous-Income" fill="#16A5AA"></path>
                <g id="Group-2" transform="translate(33.000000, 12.000000)">
                    <polygon id="Fill-6" fill="#FFFFFF" points="0.2945 47.9 34.705 47.9 34.705 0.283 0.2945 0.283"></polygon>
                    <path d="M2.991,45.295 L32.1005,45.295 L32.1005,2.8415 L2.991,2.8415 L2.991,45.295 Z M0.2945,0.237 L0.2945,2.842 L0.2945,45.204 L0.2945,47.9 L34.7055,47.9 L34.7055,45.295 L34.7055,2.842 L34.7055,0.237 L0.2945,0.237 Z" id="Fill-7" fill="#82BC41"></path>
                    <polygon id="Fill-8" fill="#4E4E4E" points="1.6655 14.129 33.8825 14.129 33.8825 12.804 1.6655 12.804"></polygon>
                    <polygon id="Fill-9" fill="#4E4E4E" points="1.6655 24.731 33.8825 24.731 33.8825 23.406 1.6655 23.406"></polygon>
                    <polygon id="Fill-10" fill="#4E4E4E" points="1.6655 35.287 33.8825 35.287 33.8825 33.962 1.6655 33.962"></polygon>
                    <g id="Group-29">
                        <path d="M8.2919,10.8847 C9.7304,10.8847 10.8969,12.0507 10.8969,13.4897 C10.8969,14.9282 9.7304,16.0942 8.2919,16.0942 C6.8534,16.0942 5.6869,14.9282 5.6869,13.4897 C5.6869,12.0507 6.8534,10.8847 8.2919,10.8847" id="Fill-11" fill="#3CABC7"></path>
                        <path d="M13.54715,10.8847 C14.98565,10.8847 16.15215,12.0507 16.15215,13.4897 C16.15215,14.9282 14.98565,16.0942 13.54715,16.0942 C12.10865,16.0942 10.94215,14.9282 10.94215,13.4897 C10.94215,12.0507 12.10865,10.8847 13.54715,10.8847" id="Fill-13" fill="#3CABC7"></path>
                        <path d="M26.7538,10.8847 C28.1923,10.8847 29.3588,12.0507 29.3588,13.4897 C29.3588,14.9282 28.1923,16.0942 26.7538,16.0942 C25.3153,16.0942 24.1488,14.9282 24.1488,13.4897 C24.1488,12.0507 25.3153,10.8847 26.7538,10.8847" id="Fill-15" fill="#C8C8C8"></path>
                        <path d="M21.54425,21.4409 C22.98275,21.4409 24.14925,22.6069 24.14925,24.0459 C24.14925,25.4844 22.98275,26.6504 21.54425,26.6504 C20.10575,26.6504 18.93925,25.4844 18.93925,24.0459 C18.93925,22.6069 20.10575,21.4409 21.54425,21.4409" id="Fill-17" fill="#C8C8C8"></path>
                        <path d="M10.94235,21.4409 C12.38085,21.4409 13.54735,22.6069 13.54735,24.0459 C13.54735,25.4844 12.38085,26.6504 10.94235,26.6504 C9.50385,26.6504 8.33735,25.4844 8.33735,24.0459 C8.33735,22.6069 9.50385,21.4409 10.94235,21.4409" id="Fill-19" fill="#C8C8C8"></path>
                        <path d="M8.2919,32.04285 C9.7304,32.04285 10.8969,33.20885 10.8969,34.64785 C10.8969,36.08635 9.7304,37.25235 8.2919,37.25235 C6.8534,37.25235 5.6869,36.08635 5.6869,34.64785 C5.6869,33.20885 6.8534,32.04285 8.2919,32.04285" id="Fill-21" fill="#C8C8C8"></path>
                        <path d="M21.54425,32.04285 C22.98275,32.04285 24.14925,33.20885 24.14925,34.64785 C24.14925,36.08635 22.98275,37.25235 21.54425,37.25235 C20.10575,37.25235 18.93925,36.08635 18.93925,34.64785 C18.93925,33.20885 20.10575,32.04285 21.54425,32.04285" id="Fill-23" fill="#C8C8C8"></path>
                        <path d="M26.7538,32.04285 C28.1923,32.04285 29.3588,33.20885 29.3588,34.64785 C29.3588,36.08635 28.1923,37.25235 26.7538,37.25235 C25.3153,37.25235 24.1488,36.08635 24.1488,34.64785 C24.1488,33.20885 25.3153,32.04285 26.7538,32.04285" id="Fill-25" fill="#3CABC7"></path>
                        <polygon id="Fill-27" fill="#C8C8C8" opacity="0.2" points="0.2945 47.763 17.7055 47.763 17.7055 0.1 0.2945 0.1"></polygon>
                    </g>
                </g>
            </g>
        </g>
    </g>
</svg>