<?xml version="1.0" encoding="UTF-8" standalone="no"?>
<svg width="101px" height="102px" viewBox="0 0 101 102" version="1.1" xmlns="http://www.w3.org/2000/svg" xmlns:xlink="http://www.w3.org/1999/xlink">
    <!-- Generator: Sketch 45.1 (43504) - http://www.bohemiancoding.com/sketch -->
    <title>btn-life-ownbusiness-hover</title>
    <desc>Created with Sketch.</desc>
    <defs>
        <ellipse id="path-1" cx="50.5" cy="51" rx="48.5576923" ry="49.0384615"></ellipse>
    </defs>
    <g id="Symbols" stroke="none" stroke-width="1" fill="none" fill-rule="evenodd">
        <g id="btn-life-ownbusiness-hover">
            <g id="btn-life-ownbusiness-static">
                <g id="Event-Circle-Hover">
                    <g id="Oval-3">
                        <use fill="#FFFFFF" fill-rule="evenodd" xlink:href="#path-1"></use>
                        <ellipse stroke="#545454" stroke-width="2" cx="50.5" cy="51" rx="49.5576923" ry="50.0384615"></ellipse>
                    </g>
                </g>
                <path d="M43.3444476,72.7788086 C43.3444476,73.8422905 43.0807784,74.6596651 42.553432,75.230957 C42.0260856,75.802249 41.2702338,76.0878906 40.2858538,76.0878906 C39.3014739,76.0878906 38.5456221,75.802249 38.0182757,75.230957 C37.4909293,74.6596651 37.2272601,73.8393608 37.2272601,72.7700195 C37.2272601,71.7006782 37.4916617,70.884036 38.020473,70.3200684 C38.5492842,69.7561007 39.3073333,69.4741211 40.2946429,69.4741211 C41.2819525,69.4741211 42.0370719,69.7582979 42.5600238,70.3266602 C43.0829756,70.8950224 43.3444476,71.712397 43.3444476,72.7788086 Z M38.6554827,72.7788086 C38.6554827,73.4965856 38.7917119,74.0371076 39.0641742,74.4003906 C39.3366365,74.7636737 39.7438589,74.9453125 40.2858538,74.9453125 C41.3727733,74.9453125 41.9162249,74.2231518 41.9162249,72.7788086 C41.9162249,71.3315357 41.375703,70.6079102 40.2946429,70.6079102 C39.752648,70.6079102 39.3439607,70.7902814 39.0685687,71.1550293 C38.7931767,71.5197772 38.6554827,72.0610316 38.6554827,72.7788086 Z M48.4162389,76 L48.0383092,74.2817383 L47.5373326,72.1108398 L47.4977818,72.1108398 L46.6012975,76 L45.1598912,76 L43.7624303,71.0869141 L45.0983678,71.0869141 L45.6652623,73.262207 C45.7297158,73.5200208 45.8190703,74.0576131 45.9333287,74.875 L45.968485,74.875 C45.9802038,74.6523426 46.0314728,74.2993188 46.1222936,73.815918 L46.1926061,73.4423828 L46.7990514,71.0869141 L48.2756139,71.0869141 L48.8512975,73.4423828 C48.8864539,73.6035164 48.9296663,73.8400863 48.9809361,74.1520996 C49.0322059,74.4641129 49.0607701,74.7050773 49.0666295,74.875 L49.1017857,74.875 C49.1340125,74.6142565 49.1794222,74.3176286 49.2380162,73.9851074 C49.2966103,73.6525862 49.3464144,73.4116218 49.3874303,73.262207 L49.9762975,71.0869141 L51.2902623,71.0869141 L49.8752232,76 L48.4162389,76 Z M56.423577,76 L55.083245,76 L55.083245,73.1303711 C55.083245,72.7758771 55.0202573,72.5100107 54.8942801,72.3327637 C54.768303,72.1555167 54.5676214,72.0668945 54.2922294,72.0668945 C53.9172275,72.0668945 53.6462341,72.1921374 53.4792411,72.442627 C53.3122481,72.6931165 53.2287528,73.1083955 53.2287528,73.6884766 L53.2287528,76 L51.8884208,76 L51.8884208,71.0869141 L52.9123465,71.0869141 L53.0925223,71.715332 L53.1672294,71.715332 C53.3166442,71.4780262 53.5224527,71.2985846 53.784661,71.177002 C54.0468693,71.0554193 54.3449621,70.9946289 54.6789481,70.9946289 C55.25024,70.9946289 55.6838294,71.1491684 55.9797294,71.458252 C56.2756293,71.7673355 56.423577,72.213376 56.423577,72.7963867 L56.423577,76 Z M62.8757533,76 L62.616476,75.3320312 L62.5813197,75.3320312 C62.3557327,75.6162124 62.1235572,75.8132319 61.8847865,75.9230957 C61.6460158,76.0329595 61.3347396,76.0878906 60.9509486,76.0878906 C60.4792666,76.0878906 60.1079324,75.9531263 59.836935,75.6835938 C59.5659375,75.4140612 59.4304408,75.0302759 59.4304408,74.5322266 C59.4304408,74.0107396 59.612812,73.6262219 59.97756,73.3786621 C60.3423079,73.1311023 60.8923512,72.9941408 61.6277064,72.9677734 L62.4802455,72.9414062 L62.4802455,72.7260742 C62.4802455,72.2280249 62.2253652,71.9790039 61.7155971,71.9790039 C61.323017,71.9790039 60.8615958,72.0976551 60.3313197,72.3349609 L59.8874721,71.4296875 C60.4529046,71.1337876 61.0798514,70.9858398 61.7683314,70.9858398 C62.4275144,70.9858398 62.9328805,71.1293931 63.2844447,71.4165039 C63.636009,71.7036147 63.8117885,72.1401338 63.8117885,72.7260742 L63.8117885,76 L62.8757533,76 Z M62.4802455,73.7236328 L61.9616908,73.7412109 C61.5720404,73.7529297 61.2820043,73.8232415 61.0915736,73.9521484 C60.901143,74.0810553 60.8059291,74.2773424 60.8059291,74.5410156 C60.8059291,74.9189472 61.0227238,75.1079102 61.4563197,75.1079102 C61.7668682,75.1079102 62.0151567,75.0185556 62.2011928,74.8398438 C62.3872289,74.6611319 62.4802455,74.4238296 62.4802455,74.1279297 L62.4802455,73.7236328 Z M32.3991142,80.5751953 L34.3986259,80.5751953 C35.3097633,80.5751953 35.9711336,80.7048327 36.3827568,80.9641113 C36.7943799,81.22339 37.0001884,81.6357394 37.0001884,82.2011719 C37.0001884,82.5849629 36.9101014,82.8999011 36.7299247,83.1459961 C36.5497481,83.3920911 36.3102485,83.5400388 36.0114189,83.5898438 L36.0114189,83.6337891 C36.4186475,83.7246098 36.7123457,83.89453 36.8925224,84.1435547 C37.0726991,84.3925794 37.1627861,84.7236307 37.1627861,85.1367188 C37.1627861,85.7226592 36.9511183,86.1796859 36.5277763,86.5078125 C36.1044343,86.8359391 35.5294889,87 34.8029228,87 L32.3991142,87 L32.3991142,80.5751953 Z M33.7614189,83.1196289 L34.5524345,83.1196289 C34.921577,83.1196289 35.1889083,83.0625006 35.3544365,82.9482422 C35.5199646,82.8339838 35.6027275,82.6450208 35.6027275,82.3813477 C35.6027275,82.1352527 35.5126405,81.9587408 35.3324638,81.8518066 C35.1522871,81.7448725 34.8673779,81.6914062 34.4777275,81.6914062 L33.7614189,81.6914062 L33.7614189,83.1196289 Z M33.7614189,84.2006836 L33.7614189,85.875 L34.6491142,85.875 C35.0241161,85.875 35.3009688,85.8032234 35.4796806,85.659668 C35.6583924,85.5161126 35.747747,85.2963882 35.747747,85.0004883 C35.747747,84.4672825 35.3668914,84.2006836 34.6051689,84.2006836 L33.7614189,84.2006836 Z M41.628132,87 L41.4479562,86.371582 L41.3776437,86.371582 C41.2340883,86.6000988 41.0304771,86.7766107 40.7668039,86.901123 C40.5031307,87.0256354 40.2028407,87.0878906 39.865925,87.0878906 C39.2887737,87.0878906 38.8537194,86.9333512 38.5607492,86.6242676 C38.267779,86.315184 38.1212961,85.8706084 38.1212961,85.2905273 L38.1212961,82.0869141 L39.4616281,82.0869141 L39.4616281,84.956543 C39.4616281,85.3110369 39.5246158,85.5769034 39.650593,85.7541504 C39.7765702,85.9313974 39.9772517,86.0200195 40.2526437,86.0200195 C40.6276456,86.0200195 40.898639,85.8947766 41.065632,85.6442871 C41.2326251,85.3937976 41.3161203,84.9785185 41.3161203,84.3984375 L41.3161203,82.0869141 L42.6564523,82.0869141 L42.6564523,87 L41.628132,87 Z M47.2975796,85.5410156 C47.2975796,86.0449244 47.1225325,86.4287096 46.7724331,86.6923828 C46.4223337,86.956056 45.8986573,87.0878906 45.2013882,87.0878906 C44.8439645,87.0878906 44.53928,87.0637209 44.2873257,87.0153809 C44.0353713,86.9670408 43.7995338,86.8959966 43.5798061,86.8022461 L43.5798061,85.6948242 C43.8288308,85.8120123 44.1093456,85.9101559 44.4213589,85.9892578 C44.7333721,86.0683598 45.0080276,86.1079102 45.2453335,86.1079102 C45.731664,86.1079102 45.9748257,85.9672866 45.9748257,85.6860352 C45.9748257,85.5805659 45.9425994,85.4948734 45.878146,85.4289551 C45.8136925,85.3630368 45.7023655,85.2883305 45.5441616,85.204834 C45.3859577,85.1213375 45.1750223,85.0239263 44.9113491,84.9125977 C44.5334175,84.7543937 44.2558324,84.6079108 44.0785854,84.4731445 C43.9013384,84.3383782 43.7724335,84.1838388 43.6918667,84.0095215 C43.6112999,83.8352042 43.5710171,83.6206067 43.5710171,83.3657227 C43.5710171,82.929197 43.7402048,82.5915539 44.0785854,82.3527832 C44.416966,82.1140125 44.8966975,81.9946289 45.5177944,81.9946289 C46.1095942,81.9946289 46.6852721,82.1235339 47.2448452,82.3813477 L46.8405483,83.3481445 C46.5944533,83.2426753 46.3644752,83.1562503 46.1506069,83.0888672 C45.9367386,83.021484 45.7184791,82.987793 45.4958217,82.987793 C45.100312,82.987793 44.90256,83.0947255 44.90256,83.3085938 C44.90256,83.4287115 44.9662801,83.5327144 45.0937221,83.6206055 C45.2211642,83.7084965 45.5002141,83.8388663 45.9308803,84.0117188 C46.3146713,84.166993 46.5959185,84.312011 46.7746303,84.4467773 C46.9533422,84.5815436 47.0851768,84.7368155 47.1701382,84.9125977 C47.2550995,85.0883798 47.2975796,85.2978503 47.2975796,85.5410156 Z M48.0934919,80.8168945 C48.0934919,80.3803689 48.3366536,80.1621094 48.8229841,80.1621094 C49.3093147,80.1621094 49.5524763,80.3803689 49.5524763,80.8168945 C49.5524763,81.0249034 49.4916859,81.186767 49.3701033,81.3024902 C49.2485206,81.4182135 49.0661494,81.4760742 48.8229841,81.4760742 C48.3366536,81.4760742 48.0934919,81.2563499 48.0934919,80.8168945 Z M49.4909529,87 L48.1506208,87 L48.1506208,82.0869141 L49.4909529,82.0869141 L49.4909529,87 Z M55.239502,87 L53.8991699,87 L53.8991699,84.1303711 C53.8991699,83.7758771 53.8361823,83.5100107 53.7102051,83.3327637 C53.5842279,83.1555167 53.3835463,83.0668945 53.1081543,83.0668945 C52.7331524,83.0668945 52.462159,83.1921374 52.295166,83.442627 C52.128173,83.6931165 52.0446777,84.1083955 52.0446777,84.6884766 L52.0446777,87 L50.7043457,87 L50.7043457,82.0869141 L51.7282715,82.0869141 L51.9084473,82.715332 L51.9831543,82.715332 C52.1325691,82.4780262 52.3383776,82.2985846 52.6005859,82.177002 C52.8627943,82.0554193 53.160887,81.9946289 53.494873,81.9946289 C54.066165,81.9946289 54.4997544,82.1491684 54.7956543,82.458252 C55.0915542,82.7673355 55.239502,83.213376 55.239502,83.7963867 L55.239502,87 Z M58.4611956,82.9482422 C58.1770145,82.9482422 57.9543604,83.0383292 57.7932268,83.2185059 C57.6320932,83.3986825 57.539809,83.6542952 57.5163714,83.9853516 L59.3972307,83.9853516 C59.3913713,83.6542952 59.3049464,83.3986825 59.1379534,83.2185059 C58.9709604,83.0383292 58.7453767,82.9482422 58.4611956,82.9482422 Z M58.6501604,87.0878906 C57.8591408,87.0878906 57.240983,86.8696311 56.7956682,86.4331055 C56.3503535,85.9965798 56.1276995,85.378422 56.1276995,84.5786133 C56.1276995,83.755367 56.333508,83.1188987 56.7451311,82.6691895 C57.1567543,82.2194802 57.7258404,81.9946289 58.4524065,81.9946289 C59.1467459,81.9946289 59.6872679,82.1923808 60.0739885,82.5878906 C60.4607092,82.9834004 60.6540667,83.5297817 60.6540667,84.2270508 L60.6540667,84.8774414 L57.4856096,84.8774414 C57.5002581,85.2583027 57.61305,85.555663 57.8239885,85.7695312 C58.0349271,85.9833995 58.3308226,86.090332 58.7116839,86.090332 C59.0075838,86.090332 59.2873661,86.0595706 59.5510393,85.9980469 C59.8147125,85.9365231 60.0901004,85.8383796 60.3772112,85.7036133 L60.3772112,86.7407227 C60.142835,86.8579107 59.8923492,86.9450681 59.6257464,87.0021973 C59.3591435,87.0593265 59.0339514,87.0878906 58.6501604,87.0878906 Z M64.9787876,85.5410156 C64.9787876,86.0449244 64.8037406,86.4287096 64.4536411,86.6923828 C64.1035417,86.956056 63.5798653,87.0878906 62.8825962,87.0878906 C62.5251726,87.0878906 62.2204881,87.0637209 61.9685337,87.0153809 C61.7165793,86.9670408 61.4807419,86.8959966 61.2610142,86.8022461 L61.2610142,85.6948242 C61.5100389,85.8120123 61.7905536,85.9101559 62.1025669,85.9892578 C62.4145802,86.0683598 62.6892357,86.1079102 62.9265415,86.1079102 C63.4128721,86.1079102 63.6560337,85.9672866 63.6560337,85.6860352 C63.6560337,85.5805659 63.6238075,85.4948734 63.559354,85.4289551 C63.4949006,85.3630368 63.3835736,85.2883305 63.2253697,85.204834 C63.0671657,85.1213375 62.8562304,85.0239263 62.5925572,84.9125977 C62.2146256,84.7543937 61.9370405,84.6079108 61.7597935,84.4731445 C61.5825465,84.3383782 61.4536415,84.1838388 61.3730747,84.0095215 C61.2925079,83.8352042 61.2522251,83.6206067 61.2522251,83.3657227 C61.2522251,82.929197 61.4214129,82.5915539 61.7597935,82.3527832 C62.0981741,82.1140125 62.5779056,81.9946289 63.1990025,81.9946289 C63.7908023,81.9946289 64.3664801,82.1235339 64.9260533,82.3813477 L64.5217564,83.3481445 C64.2756614,83.2426753 64.0456832,83.1562503 63.831815,83.0888672 C63.6179467,83.021484 63.3996872,82.987793 63.1770298,82.987793 C62.78152,82.987793 62.5837681,83.0947255 62.5837681,83.3085938 C62.5837681,83.4287115 62.6474882,83.5327144 62.7749302,83.6206055 C62.9023723,83.7084965 63.1814222,83.8388663 63.6120884,84.0117188 C63.9958794,84.166993 64.2771266,84.312011 64.4558384,84.4467773 C64.6345502,84.5815436 64.7663849,84.7368155 64.8513462,84.9125977 C64.9363076,85.0883798 64.9787876,85.2978503 64.9787876,85.5410156 Z M69.2595633,85.5410156 C69.2595633,86.0449244 69.0845162,86.4287096 68.7344168,86.6923828 C68.3843174,86.956056 67.860641,87.0878906 67.1633719,87.0878906 C66.8059482,87.0878906 66.5012638,87.0637209 66.2493094,87.0153809 C65.997355,86.9670408 65.7615175,86.8959966 65.5417898,86.8022461 L65.5417898,85.6948242 C65.7908145,85.8120123 66.0713293,85.9101559 66.3833426,85.9892578 C66.6953559,86.0683598 66.9700113,86.1079102 67.2073172,86.1079102 C67.6936477,86.1079102 67.9368094,85.9672866 67.9368094,85.6860352 C67.9368094,85.5805659 67.9045831,85.4948734 67.8401297,85.4289551 C67.7756762,85.3630368 67.6643492,85.2883305 67.5061453,85.204834 C67.3479414,85.1213375 67.137006,85.0239263 66.8733328,84.9125977 C66.4954012,84.7543937 66.2178161,84.6079108 66.0405691,84.4731445 C65.8633222,84.3383782 65.7344172,84.1838388 65.6538504,84.0095215 C65.5732836,83.8352042 65.5330008,83.6206067 65.5330008,83.3657227 C65.5330008,82.929197 65.7021885,82.5915539 66.0405691,82.3527832 C66.3789497,82.1140125 66.8586813,81.9946289 67.4797781,81.9946289 C68.071578,81.9946289 68.6472558,82.1235339 69.2068289,82.3813477 L68.802532,83.3481445 C68.5564371,83.2426753 68.3264589,83.1562503 68.1125906,83.0888672 C67.8987224,83.021484 67.6804628,82.987793 67.4578055,82.987793 C67.0622957,82.987793 66.8645438,83.0947255 66.8645438,83.3085938 C66.8645438,83.4287115 66.9282638,83.5327144 67.0557059,83.6206055 C67.1831479,83.7084965 67.4621978,83.8388663 67.8928641,84.0117188 C68.276655,84.166993 68.5579022,84.312011 68.7366141,84.4467773 C68.9153259,84.5815436 69.0471605,84.7368155 69.1321219,84.9125977 C69.2170832,85.0883798 69.2595633,85.2978503 69.2595633,85.5410156 Z" id="Own-a-Business" fill="#16A5AA"></path>
                <g id="Group-9" transform="translate(24.000000, 15.000000)">
                    <polygon id="Fill-28" fill="#EEEDEE" points="4.09741697 39.9282731 49.2894226 39.9282731 49.2894226 16.457441 4.09741697 16.457441"></polygon>
                    <polygon id="Fill-29" fill="#4E4E4E" points="2.7210107 42.2753563 50.7575893 42.2753563 50.7575893 39.9282731 2.7210107 39.9282731"></polygon>
                    <polygon id="Fill-30" fill="#4E4E4E" points="0.931682561 44.4383545 52.5927977 44.4383545 52.5927977 42.0912713 0.931682561 42.0912713"></polygon>
                    <polygon id="Fill-31" fill="#C8C8C8" points="6.20790657 34.911958 31.9467037 34.911958 31.9467037 16.457441 6.20790657 16.457441"></polygon>
                    <polygon id="Fill-32" fill="#B0B0B0" points="7.26315137 34.0835757 7.26315137 16.457441 6.20790657 16.457441 6.20790657 34.9579792 31.9925839 34.9579792 31.9925839 34.0835757"></polygon>
                    <polygon id="Fill-33" fill="#C8C8C8" points="34.1030735 39.9282731 47.2248132 39.9282731 47.2248132 18.8045242 34.1030735 18.8045242"></polygon>
                    <polygon id="Fill-34" fill="#B0B0B0" points="34.1030735 39.9282731 34.9289173 39.9282731 34.9289173 21.4737561 34.1030735 21.4737561"></polygon>
                    <path d="M1.48224507,12.9138056 L1.48224507,19.4488216 C1.48224507,21.1516074 2.85865133,22.6242871 4.64797947,22.6242871 C6.43730762,22.6242871 7.81371388,21.2436499 7.81371388,19.4488216 L7.81371388,12.9138056 L1.48224507,12.9138056 Z" id="Fill-35" fill="#82BC41"></path>
                    <path d="M7.76783367,12.9138056 L7.76783367,19.4488216 C7.76783367,21.1516074 9.14423993,22.6242871 10.9335681,22.6242871 C12.6311358,22.6242871 14.0993025,21.2436499 14.0993025,19.4488216 L14.0993025,12.9138056 L7.76783367,12.9138056 Z" id="Fill-36" fill="#B2D569"></path>
                    <path d="M14.0993025,12.9138056 L14.0993025,19.4488216 C14.0993025,21.1516074 15.4757087,22.6242871 17.2650369,22.6242871 C19.054365,22.6242871 20.4307713,21.2436499 20.4307713,19.4488216 L20.4307713,12.9138056 L14.0993025,12.9138056 Z" id="Fill-37" fill="#82BC41"></path>
                    <path d="M20.3848911,12.9138056 L20.3848911,19.4488216 C20.3848911,21.1516074 21.7612974,22.6242871 23.5506255,22.6242871 C25.2481932,22.6242871 26.7163599,21.2436499 26.7163599,19.4488216 L26.7163599,12.9138056 L20.3848911,12.9138056 Z" id="Fill-38" fill="#B2D569"></path>
                    <path d="M26.7163599,12.9138056 L26.7163599,19.4488216 C26.7163599,21.1516074 28.0927662,22.6242871 29.8820943,22.6242871 C31.579662,22.6242871 33.0478287,21.2436499 33.0478287,19.4488216 L33.0478287,12.9138056 L26.7163599,12.9138056 Z" id="Fill-39" fill="#82BC41"></path>
                    <path d="M33.0937089,12.9138056 L33.0937089,19.4488216 C33.0937089,21.1516074 34.4701152,22.6242871 36.2594433,22.6242871 C37.9570111,22.6242871 39.4251777,21.2436499 39.4251777,19.4488216 L39.4251777,12.9138056 L33.0937089,12.9138056 Z" id="Fill-40" fill="#B2D569"></path>
                    <path d="M39.3334173,12.9138056 L39.3334173,19.4488216 C39.3334173,21.1516074 40.7098236,22.6242871 42.4991517,22.6242871 C44.1967195,22.6242871 45.6648861,21.2436499 45.6648861,19.4488216 L45.6648861,12.9138056 L39.3334173,12.9138056 Z" id="Fill-41" fill="#82BC41"></path>
                    <path d="M45.7107663,12.9138056 L45.7107663,19.4488216 C45.7107663,21.1516074 47.0871726,22.6242871 48.8765007,22.6242871 C50.5740685,22.6242871 52.0422352,21.2436499 52.0422352,19.4488216 L52.0422352,12.9138056 L45.7107663,12.9138056 Z" id="Fill-42" fill="#B2D569"></path>
                    <path d="M10.5665264,2.55902673 C7.53843263,5.96459844 4.46445864,9.46221263 1.43636486,12.9138056 L7.76783367,12.9138056 C10.0618441,9.46221263 12.3558545,5.96459844 14.6039848,2.55902673 L10.5665264,2.55902673 Z" id="Fill-43" fill="#9FCA43"></path>
                    <path d="M14.6039848,2.55902673 C12.3099743,6.01061968 10.0618441,9.50823387 7.76783367,12.9138056 L14.0993025,12.9138056 C15.6133494,9.46221263 17.1273963,5.96459844 18.6414432,2.55902673 L14.6039848,2.55902673 Z" id="Fill-44" fill="#C5DD8C"></path>
                    <path d="M18.6873234,2.55902673 C17.1732765,6.01061968 15.6592296,9.50823387 14.1451827,12.9138056 L20.4766515,12.9138056 C21.2566151,9.46221263 21.9906984,5.96459844 22.7706619,2.55902673 L18.6873234,2.55902673 Z" id="Fill-45" fill="#9FCA43"></path>
                    <path d="M22.6789015,2.55902673 C21.898938,6.01061968 21.1648546,9.50823387 20.3848911,12.9138056 L26.7163599,12.9138056 L26.7163599,2.55902673 L22.6789015,2.55902673 Z" id="Fill-46" fill="#C5DD8C"></path>
                    <path d="M26.7163599,2.55902673 L26.7163599,12.9138056 L33.0478287,12.9138056 C32.2678652,9.46221263 31.5337818,5.96459844 30.7538183,2.55902673 L26.7163599,2.55902673 Z" id="Fill-47" fill="#9FCA43"></path>
                    <path d="M30.7996985,2.55902673 C31.579662,6.01061968 32.3137454,9.50823387 33.0937089,12.9138056 L39.4251777,12.9138056 C37.9111308,9.46221263 36.397084,5.96459844 34.8830371,2.55902673 L30.7996985,2.55902673 Z" id="Fill-48" fill="#C5DD8C"></path>
                    <path d="M34.7912766,2.55902673 C36.3053235,6.01061968 37.8193704,9.50823387 39.3334173,12.9138056 L45.6648861,12.9138056 C43.3708757,9.46221263 41.1227455,5.96459844 38.828735,2.55902673 L34.7912766,2.55902673 Z" id="Fill-49" fill="#9FCA43"></path>
                    <path d="M45.7107663,12.9138056 L52.0422352,12.9138056 C49.0141414,9.46221263 45.9401674,5.96459844 42.9120736,2.55902673 L38.8746152,2.55902673 C41.1227455,5.96459844 43.4167559,9.41619139 45.7107663,12.9138056" id="Fill-50" fill="#C5DD8C"></path>
                    <polygon id="Fill-51" fill="#82BC41" points="10.5665264 2.55902673 14.6039848 2.55902673 14.6039848 0.396028477 10.5665264 0.396028477"></polygon>
                    <polygon id="Fill-52" fill="#82BC41" points="14.6039848 2.55902673 18.6414432 2.55902673 18.6414432 0.396028477 14.6039848 0.396028477"></polygon>
                    <polygon id="Fill-53" fill="#82BC41" points="18.5955629 2.55902673 22.6330213 2.55902673 22.6330213 0.396028477 18.5955629 0.396028477"></polygon>
                    <polygon id="Fill-54" fill="#82BC41" points="22.6789015 2.55902673 26.7163599 2.55902673 26.7163599 0.396028477 22.6789015 0.396028477"></polygon>
                    <polygon id="Fill-55" fill="#82BC41" points="26.7163599 2.55902673 30.7538183 2.55902673 30.7538183 0.396028477 26.7163599 0.396028477"></polygon>
                    <polygon id="Fill-56" fill="#82BC41" points="30.7996985 2.55902673 34.8371569 2.55902673 34.8371569 0.396028477 30.7996985 0.396028477"></polygon>
                    <polygon id="Fill-57" fill="#82BC41" points="34.8371569 2.55902673 38.8746152 2.55902673 38.8746152 0.396028477 34.8371569 0.396028477"></polygon>
                    <polygon id="Fill-58" fill="#82BC41" points="38.828735 2.55902673 42.8661934 2.55902673 42.8661934 0.396028477 38.828735 0.396028477"></polygon>
                </g>
            </g>
        </g>
    </g>
</svg>