<?xml version="1.0" encoding="UTF-8" standalone="no"?>
<svg width="101px" height="102px" viewBox="0 0 101 102" version="1.1" xmlns="http://www.w3.org/2000/svg" xmlns:xlink="http://www.w3.org/1999/xlink">
    <!-- Generator: Sketch 45.1 (43504) - http://www.bohemiancoding.com/sketch -->
    <title>btn-life-selfempl-hover</title>
    <desc>Created with Sketch.</desc>
    <defs>
        <ellipse id="path-1" cx="50.5" cy="51" rx="48.5576923" ry="49.0384615"></ellipse>
    </defs>
    <g id="Symbols" stroke="none" stroke-width="1" fill="none" fill-rule="evenodd">
        <g id="btn-life-selfempl-hover">
            <g id="btn-life-selfempl-static">
                <g id="Event-Circle-Hover">
                    <g id="Oval-3">
                        <use fill="#FFFFFF" fill-rule="evenodd" xlink:href="#path-1"></use>
                        <ellipse stroke="#545454" stroke-width="2" cx="50.5" cy="51" rx="49.5576923" ry="50.0384615"></ellipse>
                    </g>
                </g>
                <path d="M22.4615724,74.2158203 C22.4615724,74.7959013 22.2528342,75.252928 21.8353517,75.5869141 C21.4178691,75.9209001 20.8370644,76.0878906 20.0929201,76.0878906 C19.4073697,76.0878906 18.8009305,75.9589857 18.2735841,75.7011719 L18.2735841,74.4355469 C18.70718,74.6289072 19.0741197,74.7651363 19.3744142,74.8442383 C19.6747087,74.9233402 19.9493641,74.9628906 20.1983888,74.9628906 C20.4972184,74.9628906 20.7264642,74.9057623 20.8861329,74.7915039 C21.0458017,74.6772455 21.1256349,74.5073253 21.1256349,74.2817383 C21.1256349,74.1557611 21.090479,74.0437017 21.0201661,73.9455566 C20.9498533,73.8474116 20.8465828,73.7529301 20.7103517,73.6621094 C20.5741205,73.5712886 20.2965354,73.4262705 19.877588,73.2270508 C19.4850079,73.0424795 19.1905773,72.8652352 18.9942872,72.6953125 C18.7979972,72.5253898 18.6412605,72.3276378 18.5240724,72.1020508 C18.4068843,71.8764637 18.3482911,71.6127945 18.3482911,71.3110352 C18.3482911,70.7426729 18.5409162,70.2959001 18.926172,69.9707031 C19.3114278,69.6455062 19.8438932,69.4829102 20.5235841,69.4829102 C20.8575702,69.4829102 21.1761705,69.5224605 21.4793947,69.6015625 C21.7826188,69.6806645 22.0997543,69.7919915 22.4308107,69.9355469 L21.9913576,70.9946289 C21.6485824,70.8540032 21.365138,70.7558597 21.1410158,70.7001953 C20.9168935,70.644531 20.6964368,70.6166992 20.4796388,70.6166992 C20.221825,70.6166992 20.0240731,70.6767572 19.8863771,70.796875 C19.7486811,70.9169928 19.6798341,71.0737295 19.6798341,71.2670898 C19.6798341,71.3872076 19.7076659,71.4919429 19.7633302,71.5812988 C19.8189945,71.6706547 19.9076167,71.7570797 20.0291993,71.8405762 C20.150782,71.9240727 20.4386209,72.0742177 20.8927247,72.2910156 C21.4933137,72.5781264 21.9049307,72.8659654 22.127588,73.154541 C22.3502454,73.4431167 22.4615724,73.7968729 22.4615724,74.2158203 Z M25.3624652,71.9482422 C25.0782841,71.9482422 24.8556301,72.0383292 24.6944965,72.2185059 C24.5333629,72.3986825 24.4410786,72.6542952 24.417641,72.9853516 L26.2985004,72.9853516 C26.292641,72.6542952 26.2062161,72.3986825 26.039223,72.2185059 C25.87223,72.0383292 25.6466463,71.9482422 25.3624652,71.9482422 Z M25.5514301,76.0878906 C24.7604105,76.0878906 24.1422526,75.8696311 23.6969379,75.4331055 C23.2516232,74.9965798 23.0289691,74.378422 23.0289691,73.5786133 C23.0289691,72.755367 23.2347776,72.1188987 23.6464008,71.6691895 C24.0580239,71.2194802 24.62711,70.9946289 25.3536762,70.9946289 C26.0480156,70.9946289 26.5885375,71.1923808 26.9752582,71.5878906 C27.3619789,71.9834004 27.5553363,72.5297817 27.5553363,73.2270508 L27.5553363,73.8774414 L24.3868793,73.8774414 C24.4015278,74.2583027 24.5143196,74.555663 24.7252582,74.7695312 C24.9361968,74.9833995 25.2320922,75.090332 25.6129535,75.090332 C25.9088534,75.090332 26.1886358,75.0595706 26.452309,74.9980469 C26.7159822,74.9365231 26.99137,74.8383796 27.2784809,74.7036133 L27.2784809,75.7407227 C27.0441047,75.8579107 26.7936189,75.9450681 26.527016,76.0021973 C26.2604131,76.0593265 25.9352211,76.0878906 25.5514301,76.0878906 Z M29.7926549,76 L28.4523229,76 L28.4523229,69.1621094 L29.7926549,69.1621094 L29.7926549,76 Z M33.7218681,72.0932617 L32.5617118,72.0932617 L32.5617118,76 L31.2213798,76 L31.2213798,72.0932617 L30.4830986,72.0932617 L30.4830986,71.4472656 L31.2213798,71.0869141 L31.2213798,70.7265625 C31.2213798,70.1669894 31.3590738,69.7583021 31.6344658,69.5004883 C31.9098578,69.2426745 32.3507713,69.1137695 32.9572197,69.1137695 C33.4201126,69.1137695 33.8317296,69.1826165 34.1920829,69.3203125 L33.8493095,70.3046875 C33.5797769,70.2197261 33.330756,70.1772461 33.1022392,70.1772461 C32.9118086,70.1772461 32.7741146,70.233642 32.6891533,70.3464355 C32.6041919,70.4592291 32.5617118,70.6035147 32.5617118,70.7792969 L32.5617118,71.0869141 L33.7218681,71.0869141 L33.7218681,72.0932617 Z M34.0607492,73.8730469 L34.0607492,72.7744141 L36.4206125,72.7744141 L36.4206125,73.8730469 L34.0607492,73.8730469 Z M41.2023647,76 L37.5021694,76 L37.5021694,69.5751953 L41.2023647,69.5751953 L41.2023647,70.6914062 L38.8644741,70.6914062 L38.8644741,72.1020508 L41.0397671,72.1020508 L41.0397671,73.2182617 L38.8644741,73.2182617 L38.8644741,74.875 L41.2023647,74.875 L41.2023647,76 Z M46.6432966,76 L45.3029646,76 L45.3029646,73.1303711 C45.3029646,72.7758771 45.243639,72.5100107 45.1249861,72.3327637 C45.0063331,72.1555167 44.8195674,72.0668945 44.5646833,72.0668945 C44.2219082,72.0668945 43.9728872,72.1928698 43.817613,72.4448242 C43.6623388,72.6967786 43.5847029,73.1113252 43.5847029,73.6884766 L43.5847029,76 L42.2443708,76 L42.2443708,71.0869141 L43.2682966,71.0869141 L43.4484724,71.715332 L43.5231794,71.715332 C43.655016,71.489745 43.8454438,71.3132331 44.0944685,71.185791 C44.3434932,71.058349 44.6291348,70.9946289 44.9514021,70.9946289 C45.6867573,70.9946289 46.1847992,71.2348609 46.4455427,71.715332 L46.5641951,71.715332 C46.6960316,71.4868153 46.8901215,71.3095709 47.1464704,71.1835938 C47.4028194,71.0576166 47.6921231,70.9946289 48.0143904,70.9946289 C48.5710338,70.9946289 48.9921721,71.1374497 49.2778181,71.4230957 C49.5634641,71.7087417 49.7062849,72.1665008 49.7062849,72.7963867 L49.7062849,76 L48.3615583,76 L48.3615583,73.1303711 C48.3615583,72.7758771 48.3022328,72.5100107 48.1835798,72.3327637 C48.0649269,72.1555167 47.8781612,72.0668945 47.6232771,72.0668945 C47.2951504,72.0668945 47.0497916,72.1840809 46.8871931,72.418457 C46.7245946,72.6528332 46.6432966,73.0248998 46.6432966,73.534668 L46.6432966,76 Z M53.5871582,76.0878906 C53.0100069,76.0878906 52.5573747,75.8784201 52.229248,75.4594727 L52.1589355,75.4594727 C52.2058108,75.869631 52.229248,76.1069333 52.229248,76.1713867 L52.229248,78.1621094 L50.888916,78.1621094 L50.888916,71.0869141 L51.9787598,71.0869141 L52.1677246,71.7241211 L52.229248,71.7241211 C52.5427262,71.2377905 53.007077,70.9946289 53.6223145,70.9946289 C54.2023955,70.9946289 54.6564925,71.2187478 54.9846191,71.6669922 C55.3127458,72.1152366 55.4768066,72.737789 55.4768066,73.534668 C55.4768066,74.0590847 55.3999031,74.5146465 55.2460938,74.9013672 C55.0922844,75.2880879 54.8732924,75.5825185 54.5891113,75.784668 C54.3049302,75.9868174 53.9709492,76.0878906 53.5871582,76.0878906 Z M53.1916504,72.0668945 C52.860594,72.0668945 52.6188972,72.1687002 52.4665527,72.3723145 C52.3142082,72.5759288 52.2351075,72.912107 52.229248,73.3808594 L52.229248,73.5258789 C52.229248,74.0532253 52.3076164,74.4311512 52.4643555,74.659668 C52.6210945,74.8881847 52.8693831,75.0024414 53.2092285,75.0024414 C53.8098175,75.0024414 54.1101074,74.5073292 54.1101074,73.5170898 C54.1101074,73.033689 54.0361336,72.6711438 53.8881836,72.4294434 C53.7402336,72.1877429 53.5080582,72.0668945 53.1916504,72.0668945 Z M57.7317034,76 L56.3913714,76 L56.3913714,69.1621094 L57.7317034,69.1621094 L57.7317034,76 Z M60.0129673,73.534668 C60.0129673,74.0209985 60.0928005,74.3886706 60.2524693,74.6376953 C60.412138,74.88672 60.6721452,75.0112305 61.0324986,75.0112305 C61.3899222,75.0112305 61.6469997,74.8874524 61.8037388,74.6398926 C61.9604779,74.3923327 62.0388462,74.0239282 62.0388462,73.534668 C62.0388462,73.0483374 61.9597455,72.683595 61.8015415,72.4404297 C61.6433376,72.1972644 61.3840629,72.0756836 61.0237095,72.0756836 C60.6662858,72.0756836 60.4084759,72.196532 60.250272,72.4382324 C60.0920681,72.6799328 60.0129673,73.0454077 60.0129673,73.534668 Z M63.40994,73.534668 C63.40994,74.3344767 63.1990046,74.9599587 62.7771275,75.4111328 C62.3552504,75.8623069 61.7678539,76.0878906 61.0149204,76.0878906 C60.5432384,76.0878906 60.1272269,75.9846202 59.7668736,75.7780762 C59.4065202,75.5715322 59.1296675,75.2749043 58.9363072,74.8881836 C58.7429468,74.5014629 58.6462681,74.0502955 58.6462681,73.534668 C58.6462681,72.7319296 58.8557387,72.1079124 59.2746861,71.6625977 C59.6936335,71.2172829 60.2824948,70.9946289 61.0412876,70.9946289 C61.5129697,70.9946289 61.9289811,71.0971669 62.2893345,71.3022461 C62.6496879,71.5073252 62.9265406,71.8017559 63.1199009,72.1855469 C63.3132613,72.5693379 63.40994,73.0190404 63.40994,73.534668 Z M63.5334891,71.0869141 L65.0012625,71.0869141 L65.9285086,73.8510742 C66.0076106,74.0913098 66.0618092,74.3754866 66.0911063,74.7036133 L66.1174734,74.7036133 C66.1497002,74.401854 66.2126878,74.1176771 66.3064383,73.8510742 L67.2161063,71.0869141 L68.653118,71.0869141 L66.5745047,76.628418 C66.384074,77.1411158 66.1123483,77.5249011 65.7593191,77.7797852 C65.40629,78.0346692 64.9939406,78.1621094 64.5222586,78.1621094 C64.2908121,78.1621094 64.0637636,78.1372073 63.8411063,78.0874023 L63.8411063,77.0239258 C64.0022399,77.0620119 64.1780194,77.0810547 64.36845,77.0810547 C64.6057559,77.0810547 64.8130292,77.0085456 64.9902762,76.8635254 C65.1675232,76.7185051 65.3059495,76.4995132 65.4055594,76.206543 L65.4846609,75.9648438 L63.5334891,71.0869141 Z M71.1980538,71.9482422 C70.9138727,71.9482422 70.6912186,72.0383292 70.530085,72.2185059 C70.3689514,72.3986825 70.2766672,72.6542952 70.2532296,72.9853516 L72.1340889,72.9853516 C72.1282295,72.6542952 72.0418046,72.3986825 71.8748116,72.2185059 C71.7078186,72.0383292 71.4822349,71.9482422 71.1980538,71.9482422 Z M71.3870186,76.0878906 C70.595999,76.0878906 69.9778412,75.8696311 69.5325264,75.4331055 C69.0872117,74.9965798 68.8645577,74.378422 68.8645577,73.5786133 C68.8645577,72.755367 69.0703662,72.1188987 69.4819893,71.6691895 C69.8936125,71.2194802 70.4626986,70.9946289 71.1892647,70.9946289 C71.8836041,70.9946289 72.4241261,71.1923808 72.8108467,71.5878906 C73.1975674,71.9834004 73.3909249,72.5297817 73.3909249,73.2270508 L73.3909249,73.8774414 L70.2224678,73.8774414 C70.2371164,74.2583027 70.3499082,74.555663 70.5608467,74.7695312 C70.7717853,74.9833995 71.0676808,75.090332 71.4485421,75.090332 C71.744442,75.090332 72.0242243,75.0595706 72.2878975,74.9980469 C72.5515707,74.9365231 72.8269586,74.8383796 73.1140694,74.7036133 L73.1140694,75.7407227 C72.8796932,75.8579107 72.6292075,75.9450681 72.3626046,76.0021973 C72.0960017,76.0593265 71.7708096,76.0878906 71.3870186,76.0878906 Z M75.8435755,76.0878906 C75.2664242,76.0878906 74.8130596,75.8637718 74.4834681,75.4155273 C74.1538766,74.9672829 73.9890833,74.3461954 73.9890833,73.5522461 C73.9890833,72.746578 74.1568063,72.1188987 74.4922572,71.6691895 C74.8277081,71.2194802 75.2898616,70.9946289 75.8787318,70.9946289 C76.4968989,70.9946289 76.9685739,71.2348609 77.2937708,71.715332 L77.3377161,71.715332 C77.270333,71.3491193 77.2366419,71.0224624 77.2366419,70.7353516 L77.2366419,69.1621094 L78.5813685,69.1621094 L78.5813685,76 L77.5530482,76 L77.2937708,75.362793 L77.2366419,75.362793 C76.9319529,75.8461938 76.4676021,76.0878906 75.8435755,76.0878906 Z M76.3137904,75.0200195 C76.6565655,75.0200195 76.9077837,74.9204112 77.0674525,74.7211914 C77.2271212,74.5219717 77.3142786,74.1835961 77.3289271,73.7060547 L77.3289271,73.5610352 C77.3289271,73.0336888 77.2476291,72.6557629 77.0850306,72.4272461 C76.9224321,72.1987293 76.6580305,72.0844727 76.2918177,72.0844727 C75.9929881,72.0844727 75.7608127,72.2111804 75.5952845,72.4645996 C75.4297563,72.7180188 75.3469935,73.0864234 75.3469935,73.5698242 C75.3469935,74.0532251 75.4304887,74.4157703 75.5974818,74.6574707 C75.7644748,74.8991711 76.0032419,75.0200195 76.3137904,75.0200195 Z M83.0159527,68.5073242 L80.5550152,77.4897461 L79.403648,77.4897461 L81.8645855,68.5073242 L83.0159527,68.5073242 Z M30.6232214,81.6166992 C30.1105235,81.6166992 29.7135548,81.8093242 29.4323034,82.1945801 C29.151052,82.5798359 29.0104284,83.1166958 29.0104284,83.8051758 C29.0104284,85.2378001 29.5480207,85.9541016 30.6232214,85.9541016 C31.0743955,85.9541016 31.6207767,85.8413097 32.2623815,85.6157227 L32.2623815,86.7583008 C31.7350351,86.9780284 31.1461738,87.0878906 30.4957799,87.0878906 C29.561205,87.0878906 28.8463684,86.8044462 28.3512487,86.2375488 C27.856129,85.6706515 27.6085729,84.8569389 27.6085729,83.7963867 C27.6085729,83.1284146 27.7301537,82.5432154 27.973319,82.0407715 C28.2164843,81.5383276 28.565846,81.1530775 29.0214147,80.8850098 C29.4769834,80.616942 30.0109136,80.4829102 30.6232214,80.4829102 C31.2472479,80.4829102 31.8741948,80.6337876 32.5040807,80.9355469 L32.0646276,82.0429688 C31.824392,81.9287104 31.5826952,81.829102 31.3395299,81.7441406 C31.0963647,81.6591793 30.8575975,81.6166992 30.6232214,81.6166992 Z M34.3986259,84.534668 C34.3986259,85.0209985 34.4784591,85.3886706 34.6381279,85.6376953 C34.7977966,85.88672 35.0578038,86.0112305 35.4181572,86.0112305 C35.7755808,86.0112305 36.0326583,85.8874524 36.1893974,85.6398926 C36.3461365,85.3923327 36.4245048,85.0239282 36.4245048,84.534668 C36.4245048,84.0483374 36.345404,83.683595 36.1872001,83.4404297 C36.0289962,83.1972644 35.7697215,83.0756836 35.4093681,83.0756836 C35.0519444,83.0756836 34.7941345,83.196532 34.6359306,83.4382324 C34.4777267,83.6799328 34.3986259,84.0454077 34.3986259,84.534668 Z M37.7955986,84.534668 C37.7955986,85.3344767 37.5846632,85.9599587 37.1627861,86.4111328 C36.740909,86.8623069 36.1535125,87.0878906 35.400579,87.0878906 C34.928897,87.0878906 34.5128855,86.9846202 34.1525322,86.7780762 C33.7921788,86.5715322 33.5153261,86.2749043 33.3219658,85.8881836 C33.1286054,85.5014629 33.0319267,85.0502955 33.0319267,84.534668 C33.0319267,83.7319296 33.2413973,83.1079124 33.6603447,82.6625977 C34.0792921,82.2172829 34.6681534,81.9946289 35.4269462,81.9946289 C35.8986283,81.9946289 36.3146397,82.0971669 36.6749931,82.3022461 C37.0353465,82.5073252 37.3121992,82.8017559 37.5055595,83.1855469 C37.6989198,83.5693379 37.7955986,84.0190404 37.7955986,84.534668 Z M43.2453195,87 L41.9049875,87 L41.9049875,84.1303711 C41.9049875,83.7758771 41.8419998,83.5100107 41.7160227,83.3327637 C41.5900455,83.1555167 41.3893639,83.0668945 41.1139719,83.0668945 C40.73897,83.0668945 40.4679766,83.1921374 40.3009836,83.442627 C40.1339906,83.6931165 40.0504953,84.1083955 40.0504953,84.6884766 L40.0504953,87 L38.7101633,87 L38.7101633,82.0869141 L39.7340891,82.0869141 L39.9142648,82.715332 L39.9889719,82.715332 C40.1383867,82.4780262 40.3441952,82.2985846 40.6064035,82.177002 C40.8686119,82.0554193 41.1667046,81.9946289 41.5006906,81.9946289 C42.0719825,81.9946289 42.505572,82.1491684 42.8014719,82.458252 C43.0973718,82.7673355 43.2453195,83.213376 43.2453195,83.7963867 L43.2453195,87 Z M46.5021694,86.0200195 C46.7365456,86.0200195 47.0177928,85.9687505 47.3459194,85.8662109 L47.3459194,86.8637695 C47.0119334,87.0131843 46.6017812,87.0878906 46.1154507,87.0878906 C45.5793152,87.0878906 45.1889382,86.9523939 44.9443081,86.6813965 C44.6996779,86.410399 44.5773647,86.003909 44.5773647,85.4619141 L44.5773647,83.0932617 L43.9357632,83.0932617 L43.9357632,82.5263672 L44.6740444,82.078125 L45.0607632,81.0410156 L45.9176967,81.0410156 L45.9176967,82.0869141 L47.293185,82.0869141 L47.293185,83.0932617 L45.9176967,83.0932617 L45.9176967,85.4619141 C45.9176967,85.6523447 45.971163,85.7929683 46.0780971,85.8837891 C46.1850313,85.9746098 46.3263873,86.0200195 46.5021694,86.0200195 Z M50.8884138,81.9946289 C51.0700553,81.9946289 51.2209327,82.0078124 51.3410505,82.0341797 L51.2399763,83.2910156 C51.1315773,83.2617186 50.9997427,83.2470703 50.8444685,83.2470703 C50.416732,83.2470703 50.0834834,83.3569325 49.8447126,83.5766602 C49.6059419,83.7963878 49.4865583,84.1040019 49.4865583,84.4995117 L49.4865583,87 L48.1462263,87 L48.1462263,82.0869141 L49.161363,82.0869141 L49.3591169,82.9130859 L49.4250349,82.9130859 C49.5773794,82.6376939 49.7831879,82.4157723 50.0424665,82.2473145 C50.3017452,82.0788566 50.5837248,81.9946289 50.8884138,81.9946289 Z M55.0725098,87 L54.8132324,86.3320312 L54.7780762,86.3320312 C54.5524891,86.6162124 54.3203137,86.8132319 54.081543,86.9230957 C53.8427722,87.0329595 53.5314961,87.0878906 53.1477051,87.0878906 C52.676023,87.0878906 52.3046889,86.9531263 52.0336914,86.6835938 C51.762694,86.4140612 51.6271973,86.0302759 51.6271973,85.5322266 C51.6271973,85.0107396 51.8095685,84.6262219 52.1743164,84.3786621 C52.5390643,84.1311023 53.0891077,83.9941408 53.8244629,83.9677734 L54.677002,83.9414062 L54.677002,83.7260742 C54.677002,83.2280249 54.4221217,82.9790039 53.9123535,82.9790039 C53.5197734,82.9790039 53.0583523,83.0976551 52.5280762,83.3349609 L52.0842285,82.4296875 C52.649661,82.1337876 53.2766079,81.9858398 53.9650879,81.9858398 C54.6242709,81.9858398 55.1296369,82.1293931 55.4812012,82.4165039 C55.8327654,82.7036147 56.0085449,83.1401338 56.0085449,83.7260742 L56.0085449,87 L55.0725098,87 Z M54.677002,84.7236328 L54.1584473,84.7412109 C53.7687969,84.7529297 53.4787607,84.8232415 53.2883301,84.9521484 C53.0978994,85.0810553 53.0026855,85.2773424 53.0026855,85.5410156 C53.0026855,85.9189472 53.2194803,86.1079102 53.6530762,86.1079102 C53.9636246,86.1079102 54.2119131,86.0185556 54.3979492,85.8398438 C54.5839853,85.6611319 54.677002,85.4238296 54.677002,85.1279297 L54.677002,84.7236328 Z M59.1906878,87.0878906 C57.6613832,87.0878906 56.8967424,86.2485435 56.8967424,84.5698242 C56.8967424,83.7348591 57.1047482,83.096926 57.5207659,82.6560059 C57.9367836,82.2150857 58.532969,81.9946289 59.3093401,81.9946289 C59.8777023,81.9946289 60.3874628,82.1059559 60.838637,82.3286133 L60.4431292,83.3657227 C60.2321906,83.2807613 60.0359035,83.2111819 59.854262,83.1569824 C59.6726204,83.1027829 59.4909816,83.0756836 59.3093401,83.0756836 C58.612071,83.0756836 58.2634417,83.5707958 58.2634417,84.5610352 C58.2634417,85.5219775 58.612071,86.0024414 59.3093401,86.0024414 C59.5671539,86.0024414 59.805921,85.9680179 60.0256487,85.8991699 C60.2453764,85.8303219 60.4651007,85.722657 60.6848284,85.5761719 L60.6848284,86.7231445 C60.4680304,86.8608405 60.2490385,86.9560544 60.027846,87.0087891 C59.8066535,87.0615237 59.5276035,87.0878906 59.1906878,87.0878906 Z M63.699979,86.0200195 C63.9343552,86.0200195 64.2156024,85.9687505 64.543729,85.8662109 L64.543729,86.8637695 C64.209743,87.0131843 63.7995908,87.0878906 63.3132603,87.0878906 C62.7771248,87.0878906 62.3867478,86.9523939 62.1421177,86.6813965 C61.8974876,86.410399 61.7751743,86.003909 61.7751743,85.4619141 L61.7751743,83.0932617 L61.1335728,83.0932617 L61.1335728,82.5263672 L61.871854,82.078125 L62.2585728,81.0410156 L63.1155064,81.0410156 L63.1155064,82.0869141 L64.4909947,82.0869141 L64.4909947,83.0932617 L63.1155064,83.0932617 L63.1155064,85.4619141 C63.1155064,85.6523447 63.1689726,85.7929683 63.2759068,85.8837891 C63.3828409,85.9746098 63.5241969,86.0200195 63.699979,86.0200195 Z M66.411907,84.534668 C66.411907,85.0209985 66.4917402,85.3886706 66.651409,85.6376953 C66.8110778,85.88672 67.0710849,86.0112305 67.4314383,86.0112305 C67.7888619,86.0112305 68.0459395,85.8874524 68.2026785,85.6398926 C68.3594176,85.3923327 68.4377859,85.0239282 68.4377859,84.534668 C68.4377859,84.0483374 68.3586852,83.683595 68.2004813,83.4404297 C68.0422773,83.1972644 67.7830026,83.0756836 67.4226492,83.0756836 C67.0652256,83.0756836 66.8074156,83.196532 66.6492117,83.4382324 C66.4910078,83.6799328 66.411907,84.0454077 66.411907,84.534668 Z M69.8088797,84.534668 C69.8088797,85.3344767 69.5979443,85.9599587 69.1760672,86.4111328 C68.7541901,86.8623069 68.1667936,87.0878906 67.4138602,87.0878906 C66.9421781,87.0878906 66.5261666,86.9846202 66.1658133,86.7780762 C65.8054599,86.5715322 65.5286072,86.2749043 65.3352469,85.8881836 C65.1418865,85.5014629 65.0452078,85.0502955 65.0452078,84.534668 C65.0452078,83.7319296 65.2546784,83.1079124 65.6736258,82.6625977 C66.0925732,82.2172829 66.6814345,81.9946289 67.4402273,81.9946289 C67.9119094,81.9946289 68.3279209,82.0971669 68.6882742,82.3022461 C69.0486276,82.5073252 69.3254803,82.8017559 69.5188406,83.1855469 C69.712201,83.5693379 69.8088797,84.0190404 69.8088797,84.534668 Z M73.4656319,81.9946289 C73.6472734,81.9946289 73.7981508,82.0078124 73.9182686,82.0341797 L73.8171944,83.2910156 C73.7087954,83.2617186 73.5769608,83.2470703 73.4216866,83.2470703 C72.9939501,83.2470703 72.6607015,83.3569325 72.4219307,83.5766602 C72.18316,83.7963878 72.0637764,84.1040019 72.0637764,84.4995117 L72.0637764,87 L70.7234444,87 L70.7234444,82.0869141 L71.7385811,82.0869141 L71.936335,82.9130859 L72.002253,82.9130859 C72.1545975,82.6376939 72.360406,82.4157723 72.6196846,82.2473145 C72.8789633,82.0788566 73.1609429,81.9946289 73.4656319,81.9946289 Z" id="Self-Employed/-Contr" fill="#16A5AA"></path>
                <rect id="Rectangle-path" fill="#4E4E4E" fill-rule="nonzero" x="28" y="24.0131579" width="44" height="33.104067"></rect>
                <path d="M50,36.0409689 C44.72,36.0409689 40.54,31.7374402 40.54,26.5511364 C40.54,21.2544856 44.83,17.0613038 50,17.0613038 C55.17,17.0613038 59.46,21.3648325 59.46,26.5511364 C59.46,31.8477871 55.17,36.0409689 50,36.0409689 Z M50,17.8337321 C45.16,17.8337321 41.31,21.6958732 41.31,26.5511364 C41.31,31.4063995 45.16,35.2685407 50,35.2685407 C54.84,35.2685407 58.69,31.4063995 58.69,26.5511364 C58.69,21.6958732 54.73,17.8337321 50,17.8337321 Z" id="Shape" fill="#4E4E4E" fill-rule="nonzero"></path>
                <path d="M72,31.2960526 L72,24.1235048 L28,24.1235048 L28,31.2960526 C41.09,40.6755383 58.8,40.6755383 72,31.2960526 Z" id="Shape" fill="#82BC00" fill-rule="nonzero"></path>
                <path d="M28,32.0684809 L28,57.2275718 L72,57.2275718 L72,32.0684809 C58.8,42.4410885 41.09,42.4410885 28,32.0684809 Z" id="Shape" fill="#82BC00" fill-rule="nonzero"></path>
                <rect id="Rectangle-path" fill="#EEEDEE" fill-rule="nonzero" x="47.25" y="35.930622" width="5.39" height="5.40699761"></rect>
                <rect id="Rectangle-path" fill="#C6C5C5" fill-rule="nonzero" x="48.9" y="37.5858254" width="2.09" height="5.95873206"></rect>
                <polygon id="Shape" fill="#FFFFFF" fill-rule="nonzero" opacity="0.2" points="28 24.0131579 28 32.0684809 28 57.1172249 50 57.1172249 50 32.0684809 50 24.0131579"></polygon>
            </g>
        </g>
    </g>
</svg>