<?xml version="1.0" encoding="UTF-8" standalone="no"?>
<svg width="101px" height="102px" viewBox="0 0 101 102" version="1.1" xmlns="http://www.w3.org/2000/svg" xmlns:xlink="http://www.w3.org/1999/xlink">
    <!-- Generator: Sketch 45.1 (43504) - http://www.bohemiancoding.com/sketch -->
    <title>btn-life-student-static</title>
    <desc>Created with Sketch.</desc>
    <defs>
        <ellipse id="path-1" cx="50.5" cy="51" rx="48.5576923" ry="49.0384615"></ellipse>
    </defs>
    <g id="Symbols" stroke="none" stroke-width="1" fill="none" fill-rule="evenodd">
        <g id="btn-life-student-static">
            <g id="Event-Circle-Static">
                <g id="Oval-3">
                    <use fill="#FFFFFF" fill-rule="evenodd" xlink:href="#path-1"></use>
                    <ellipse stroke="#A0A0A0" stroke-width="2" cx="50.5" cy="51" rx="49.5576923" ry="50.0384615"></ellipse>
                </g>
            </g>
            <path d="M21.0396904,74.2158203 C21.0396904,74.7959013 20.8309523,75.252928 20.4134697,75.5869141 C19.9959872,75.9209001 19.4151824,76.0878906 18.6710381,76.0878906 C17.9854878,76.0878906 17.3790485,75.9589857 16.8517021,75.7011719 L16.8517021,74.4355469 C17.2852981,74.6289072 17.6522378,74.7651363 17.9525322,74.8442383 C18.2528267,74.9233402 18.5274822,74.9628906 18.7765068,74.9628906 C19.0753365,74.9628906 19.3045822,74.9057623 19.464251,74.7915039 C19.6239197,74.6772455 19.7037529,74.5073253 19.7037529,74.2817383 C19.7037529,74.1557611 19.668597,74.0437017 19.5982842,73.9455566 C19.5279713,73.8474116 19.4247009,73.7529301 19.2884697,73.6621094 C19.1522386,73.5712886 18.8746535,73.4262705 18.4557061,73.2270508 C18.063126,73.0424795 17.7686953,72.8652352 17.5724053,72.6953125 C17.3761152,72.5253898 17.2193785,72.3276378 17.1021904,72.1020508 C16.9850023,71.8764637 16.9264092,71.6127945 16.9264092,71.3110352 C16.9264092,70.7426729 17.1190342,70.2959001 17.50429,69.9707031 C17.8895459,69.6455062 18.4220112,69.4829102 19.1017021,69.4829102 C19.4356882,69.4829102 19.7542885,69.5224605 20.0575127,69.6015625 C20.3607369,69.6806645 20.6778724,69.7919915 21.0089287,69.9355469 L20.5694756,70.9946289 C20.2267004,70.8540032 19.943256,70.7558597 19.7191338,70.7001953 C19.4950116,70.644531 19.2745548,70.6166992 19.0577568,70.6166992 C18.799943,70.6166992 18.6021911,70.6767572 18.4644951,70.796875 C18.3267991,70.9169928 18.2579521,71.0737295 18.2579521,71.2670898 C18.2579521,71.3872076 18.2857839,71.4919429 18.3414482,71.5812988 C18.3971126,71.6706547 18.4857347,71.7570797 18.6073174,71.8405762 C18.7289,71.9240727 19.0167389,72.0742177 19.4708428,72.2910156 C20.0714317,72.5781264 20.4830487,72.8659654 20.7057061,73.154541 C20.9283634,73.4431167 21.0396904,73.7968729 21.0396904,74.2158203 Z M23.9757395,75.0200195 C24.2101157,75.0200195 24.4913629,74.9687505 24.8194895,74.8662109 L24.8194895,75.8637695 C24.4855035,76.0131843 24.0753513,76.0878906 23.5890208,76.0878906 C23.0528853,76.0878906 22.6625083,75.9523939 22.4178782,75.6813965 C22.1732481,75.410399 22.0509348,75.003909 22.0509348,74.4619141 L22.0509348,72.0932617 L21.4093333,72.0932617 L21.4093333,71.5263672 L22.1476145,71.078125 L22.5343333,70.0410156 L23.3912669,70.0410156 L23.3912669,71.0869141 L24.7667551,71.0869141 L24.7667551,72.0932617 L23.3912669,72.0932617 L23.3912669,74.4619141 C23.3912669,74.6523447 23.4447331,74.7929683 23.5516673,74.8837891 C23.6586014,74.9746098 23.7999574,75.0200195 23.9757395,75.0200195 Z M29.1002652,76 L28.9200894,75.371582 L28.8497769,75.371582 C28.7062215,75.6000988 28.5026102,75.7766107 28.238937,75.901123 C27.9752638,76.0256354 27.6749739,76.0878906 27.3380581,76.0878906 C26.7609068,76.0878906 26.3258526,75.9333512 26.0328824,75.6242676 C25.7399121,75.315184 25.5934292,74.8706084 25.5934292,74.2905273 L25.5934292,71.0869141 L26.9337613,71.0869141 L26.9337613,73.956543 C26.9337613,74.3110369 26.9967489,74.5769034 27.1227261,74.7541504 C27.2487033,74.9313974 27.4493849,75.0200195 27.7247769,75.0200195 C28.0997788,75.0200195 28.3707721,74.8947766 28.5377652,74.6442871 C28.7047582,74.3937976 28.7882534,73.9785185 28.7882534,73.3984375 L28.7882534,71.0869141 L30.1285855,71.0869141 L30.1285855,76 L29.1002652,76 Z M32.8976424,76.0878906 C32.3204911,76.0878906 31.8671265,75.8637718 31.537535,75.4155273 C31.2079435,74.9672829 31.0431502,74.3461954 31.0431502,73.5522461 C31.0431502,72.746578 31.2108731,72.1188987 31.546324,71.6691895 C31.8817749,71.2194802 32.3439285,70.9946289 32.9327986,70.9946289 C33.5509658,70.9946289 34.0226408,71.2348609 34.3478377,71.715332 L34.391783,71.715332 C34.3243999,71.3491193 34.2907088,71.0224624 34.2907088,70.7353516 L34.2907088,69.1621094 L35.6354354,69.1621094 L35.6354354,76 L34.607115,76 L34.3478377,75.362793 L34.2907088,75.362793 C33.9860198,75.8461938 33.5216689,76.0878906 32.8976424,76.0878906 Z M33.3678572,75.0200195 C33.7106324,75.0200195 33.9618506,74.9204112 34.1215193,74.7211914 C34.2811881,74.5219717 34.3683454,74.1835961 34.3829939,73.7060547 L34.3829939,73.5610352 C34.3829939,73.0336888 34.3016959,72.6557629 34.1390975,72.4272461 C33.976499,72.1987293 33.7120973,72.0844727 33.3458846,72.0844727 C33.0470549,72.0844727 32.8148795,72.2111804 32.6493514,72.4645996 C32.4838232,72.7180188 32.4010604,73.0864234 32.4010604,73.5698242 C32.4010604,74.0532251 32.4845556,74.4157703 32.6515486,74.6574707 C32.8185417,74.8991711 33.0573088,75.0200195 33.3678572,75.0200195 Z M38.8791016,71.9482422 C38.5949205,71.9482422 38.3722665,72.0383292 38.2111329,72.2185059 C38.0499993,72.3986825 37.957715,72.6542952 37.9342774,72.9853516 L39.8151368,72.9853516 C39.8092774,72.6542952 39.7228525,72.3986825 39.5558594,72.2185059 C39.3888664,72.0383292 39.1632827,71.9482422 38.8791016,71.9482422 Z M39.0680665,76.0878906 C38.2770469,76.0878906 37.658889,75.8696311 37.2135743,75.4331055 C36.7682596,74.9965798 36.5456055,74.378422 36.5456055,73.5786133 C36.5456055,72.755367 36.751414,72.1188987 37.1630372,71.6691895 C37.5746603,71.2194802 38.1437464,70.9946289 38.8703126,70.9946289 C39.564652,70.9946289 40.1051739,71.1923808 40.4918946,71.5878906 C40.8786153,71.9834004 41.0719727,72.5297817 41.0719727,73.2270508 L41.0719727,73.8774414 L37.9035157,73.8774414 C37.9181642,74.2583027 38.030956,74.555663 38.2418946,74.7695312 C38.4528332,74.9833995 38.7487286,75.090332 39.1295899,75.090332 C39.4254898,75.090332 39.7052722,75.0595706 39.9689454,74.9980469 C40.2326186,74.9365231 40.5080064,74.8383796 40.7951173,74.7036133 L40.7951173,75.7407227 C40.5607411,75.8579107 40.3102553,75.9450681 40.0436524,76.0021973 C39.7770495,76.0593265 39.4518575,76.0878906 39.0680665,76.0878906 Z M46.5041156,76 L45.1637835,76 L45.1637835,73.1303711 C45.1637835,72.7758771 45.1007959,72.5100107 44.9748187,72.3327637 C44.8488415,72.1555167 44.6481599,72.0668945 44.3727679,72.0668945 C43.997766,72.0668945 43.7267726,72.1921374 43.5597796,72.442627 C43.3927866,72.6931165 43.3092913,73.1083955 43.3092913,73.6884766 L43.3092913,76 L41.9689593,76 L41.9689593,71.0869141 L42.9928851,71.0869141 L43.1730609,71.715332 L43.2477679,71.715332 C43.3971827,71.4780262 43.6029912,71.2985846 43.8651995,71.177002 C44.1274079,71.0554193 44.4255006,70.9946289 44.7594867,70.9946289 C45.3307786,70.9946289 45.764368,71.1491684 46.0602679,71.458252 C46.3561678,71.7673355 46.5041156,72.213376 46.5041156,72.7963867 L46.5041156,76 Z M49.7609654,75.0200195 C49.9953416,75.0200195 50.2765888,74.9687505 50.6047154,74.8662109 L50.6047154,75.8637695 C50.2707294,76.0131843 49.8605772,76.0878906 49.3742467,76.0878906 C48.8381112,76.0878906 48.4477342,75.9523939 48.2031041,75.6813965 C47.958474,75.410399 47.8361607,75.003909 47.8361607,74.4619141 L47.8361607,72.0932617 L47.1945592,72.0932617 L47.1945592,71.5263672 L47.9328404,71.078125 L48.3195592,70.0410156 L49.1764928,70.0410156 L49.1764928,71.0869141 L50.5519811,71.0869141 L50.5519811,72.0932617 L49.1764928,72.0932617 L49.1764928,74.4619141 C49.1764928,74.6523447 49.229959,74.7929683 49.3368932,74.8837891 C49.4438273,74.9746098 49.5851833,75.0200195 49.7609654,75.0200195 Z M53.6555245,76 L53.6555245,69.5751953 L55.0178292,69.5751953 L55.0178292,74.875 L57.6237863,74.875 L57.6237863,76 L53.6555245,76 Z M59.5095424,73.534668 C59.5095424,74.0209985 59.5893756,74.3886706 59.7490443,74.6376953 C59.9087131,74.88672 60.1687203,75.0112305 60.5290736,75.0112305 C60.8864973,75.0112305 61.1435748,74.8874524 61.3003139,74.6398926 C61.4570529,74.3923327 61.5354213,74.0239282 61.5354213,73.534668 C61.5354213,73.0483374 61.4563205,72.683595 61.2981166,72.4404297 C61.1399127,72.1972644 60.8806379,72.0756836 60.5202846,72.0756836 C60.1628609,72.0756836 59.905051,72.196532 59.7468471,72.4382324 C59.5886432,72.6799328 59.5095424,73.0454077 59.5095424,73.534668 Z M62.906515,73.534668 C62.906515,74.3344767 62.6955796,74.9599587 62.2737025,75.4111328 C61.8518254,75.8623069 61.264429,76.0878906 60.5114955,76.0878906 C60.0398135,76.0878906 59.623802,75.9846202 59.2634486,75.7780762 C58.9030953,75.5715322 58.6262426,75.2749043 58.4328822,74.8881836 C58.2395219,74.5014629 58.1428432,74.0502955 58.1428432,73.534668 C58.1428432,72.7319296 58.3523137,72.1079124 58.7712611,71.6625977 C59.1902085,71.2172829 59.7790698,70.9946289 60.5378627,70.9946289 C61.0095447,70.9946289 61.4255562,71.0971669 61.7859096,71.3022461 C62.1462629,71.5073252 62.4231156,71.8017559 62.616476,72.1855469 C62.8098363,72.5693379 62.906515,73.0190404 62.906515,73.534668 Z M66.9411969,76 L66.6819196,75.3320312 L66.6467633,75.3320312 C66.4211763,75.6162124 66.1890009,75.8132319 65.9502301,75.9230957 C65.7114594,76.0329595 65.4001832,76.0878906 65.0163923,76.0878906 C64.5447102,76.0878906 64.173376,75.9531263 63.9023786,75.6835938 C63.6313811,75.4140612 63.4958844,75.0302759 63.4958844,74.5322266 C63.4958844,74.0107396 63.6782557,73.6262219 64.0430036,73.3786621 C64.4077515,73.1311023 64.9577948,72.9941408 65.6931501,72.9677734 L66.5456891,72.9414062 L66.5456891,72.7260742 C66.5456891,72.2280249 66.2908089,71.9790039 65.7810407,71.9790039 C65.3884606,71.9790039 64.9270394,72.0976551 64.3967633,72.3349609 L63.9529157,71.4296875 C64.5183482,71.1337876 65.1452951,70.9858398 65.8337751,70.9858398 C66.492958,70.9858398 66.9983241,71.1293931 67.3498883,71.4165039 C67.7014526,71.7036147 67.8772321,72.1401338 67.8772321,72.7260742 L67.8772321,76 L66.9411969,76 Z M66.5456891,73.7236328 L66.0271344,73.7412109 C65.6374841,73.7529297 65.3474479,73.8232415 65.1570173,73.9521484 C64.9665866,74.0810553 64.8713727,74.2773424 64.8713727,74.5410156 C64.8713727,74.9189472 65.0881674,75.1079102 65.5217633,75.1079102 C65.8323118,75.1079102 66.0806003,75.0185556 66.2666364,74.8398438 C66.4526725,74.6611319 66.5456891,74.4238296 66.5456891,74.1279297 L66.5456891,73.7236328 Z M73.599414,76 L72.259082,76 L72.259082,73.1303711 C72.259082,72.7758771 72.1960943,72.5100107 72.0701171,72.3327637 C71.9441399,72.1555167 71.7434583,72.0668945 71.4680663,72.0668945 C71.0930645,72.0668945 70.8220711,72.1921374 70.6550781,72.442627 C70.488085,72.6931165 70.4045898,73.1083955 70.4045898,73.6884766 L70.4045898,76 L69.0642577,76 L69.0642577,71.0869141 L70.0881835,71.0869141 L70.2683593,71.715332 L70.3430663,71.715332 C70.4924812,71.4780262 70.6982896,71.2985846 70.960498,71.177002 C71.2227063,71.0554193 71.520799,70.9946289 71.8547851,70.9946289 C72.426077,70.9946289 72.8596664,71.1491684 73.1555663,71.458252 C73.4514663,71.7673355 73.599414,72.213376 73.599414,72.7963867 L73.599414,76 Z M78.214174,74.5410156 C78.214174,75.0449244 78.0391269,75.4287096 77.6890275,75.6923828 C77.3389281,75.956056 76.8152517,76.0878906 76.1179826,76.0878906 C75.760559,76.0878906 75.4558745,76.0637209 75.2039201,76.0153809 C74.9519657,75.9670408 74.7161282,75.8959966 74.4964006,75.8022461 L74.4964006,74.6948242 C74.7454253,74.8120123 75.02594,74.9101559 75.3379533,74.9892578 C75.6499666,75.0683598 75.9246221,75.1079102 76.1619279,75.1079102 C76.6482585,75.1079102 76.8914201,74.9672866 76.8914201,74.6860352 C76.8914201,74.5805659 76.8591939,74.4948734 76.7947404,74.4289551 C76.730287,74.3630368 76.61896,74.2883305 76.4607561,74.204834 C76.3025521,74.1213375 76.0916167,74.0239263 75.8279436,73.9125977 C75.450012,73.7543937 75.1724269,73.6079108 74.9951799,73.4731445 C74.8179329,73.3383782 74.6890279,73.1838388 74.6084611,73.0095215 C74.5278943,72.8352042 74.4876115,72.6206067 74.4876115,72.3657227 C74.4876115,71.929197 74.6567993,71.5915539 74.9951799,71.3527832 C75.3335605,71.1140125 75.813292,70.9946289 76.4343889,70.9946289 C77.0261887,70.9946289 77.6018665,71.1235339 78.1614396,71.3813477 L77.7571428,72.3481445 C77.5110478,72.2426753 77.2810696,72.1562503 77.0672014,72.0888672 C76.8533331,72.021484 76.6350736,71.987793 76.4124162,71.987793 C76.0169064,71.987793 75.8191545,72.0947255 75.8191545,72.3085938 C75.8191545,72.4287115 75.8828746,72.5327144 76.0103166,72.6206055 C76.1377586,72.7084965 76.4168086,72.8388663 76.8474748,73.0117188 C77.2312658,73.166993 77.512513,73.312011 77.6912248,73.4467773 C77.8699366,73.5815436 78.0017713,73.7368155 78.0867326,73.9125977 C78.171694,74.0883798 78.214174,74.2978503 78.214174,74.5410156 Z M84.4378347,68.5073242 L81.9768972,77.4897461 L80.82553,77.4897461 L83.2864675,68.5073242 L84.4378347,68.5073242 Z M38.5648926,87 L37.202588,87 L37.202588,81.7089844 L35.457959,81.7089844 L35.457959,80.5751953 L40.3095215,80.5751953 L40.3095215,81.7089844 L38.5648926,81.7089844 L38.5648926,87 Z M44.2607074,87 L44.0805316,86.371582 L44.0102191,86.371582 C43.8666637,86.6000988 43.6630524,86.7766107 43.3993792,86.901123 C43.135706,87.0256354 42.8354161,87.0878906 42.4985003,87.0878906 C41.921349,87.0878906 41.4862948,86.9333512 41.1933245,86.6242676 C40.9003543,86.315184 40.7538714,85.8706084 40.7538714,85.2905273 L40.7538714,82.0869141 L42.0942034,82.0869141 L42.0942034,84.956543 C42.0942034,85.3110369 42.1571911,85.5769034 42.2831683,85.7541504 C42.4091455,85.9313974 42.6098271,86.0200195 42.8852191,86.0200195 C43.2602209,86.0200195 43.5312143,85.8947766 43.6982074,85.6442871 C43.8652004,85.3937976 43.9486956,84.9785185 43.9486956,84.3984375 L43.9486956,82.0869141 L45.2890277,82.0869141 L45.2890277,87 L44.2607074,87 Z M46.4452916,80.8168945 C46.4452916,80.3803689 46.6884532,80.1621094 47.1747838,80.1621094 C47.6611143,80.1621094 47.904276,80.3803689 47.904276,80.8168945 C47.904276,81.0249034 47.8434856,81.186767 47.7219029,81.3024902 C47.6003203,81.4182135 47.4179491,81.4760742 47.1747838,81.4760742 C46.6884532,81.4760742 46.4452916,81.2563499 46.4452916,80.8168945 Z M47.8427525,87 L46.5024205,87 L46.5024205,82.0869141 L47.8427525,82.0869141 L47.8427525,87 Z M51.1259696,86.0200195 C51.3603458,86.0200195 51.641593,85.9687505 51.9697196,85.8662109 L51.9697196,86.8637695 C51.6357336,87.0131843 51.2255814,87.0878906 50.7392508,87.0878906 C50.2031154,87.0878906 49.8127384,86.9523939 49.5681083,86.6813965 C49.3234781,86.410399 49.2011649,86.003909 49.2011649,85.4619141 L49.2011649,83.0932617 L48.5595633,83.0932617 L48.5595633,82.5263672 L49.2978446,82.078125 L49.6845633,81.0410156 L50.5414969,81.0410156 L50.5414969,82.0869141 L51.9169852,82.0869141 L51.9169852,83.0932617 L50.5414969,83.0932617 L50.5414969,85.4619141 C50.5414969,85.6523447 50.5949632,85.7929683 50.7018973,85.8837891 C50.8088315,85.9746098 50.9501875,86.0200195 51.1259696,86.0200195 Z M52.7128976,80.8168945 C52.7128976,80.3803689 52.9560592,80.1621094 53.4423898,80.1621094 C53.9287203,80.1621094 54.171882,80.3803689 54.171882,80.8168945 C54.171882,81.0249034 54.1110916,81.186767 53.9895089,81.3024902 C53.8679263,81.4182135 53.6855551,81.4760742 53.4423898,81.4760742 C52.9560592,81.4760742 52.7128976,81.2563499 52.7128976,80.8168945 Z M54.1103585,87 L52.7700265,87 L52.7700265,82.0869141 L54.1103585,82.0869141 L54.1103585,87 Z M56.3916225,84.534668 C56.3916225,85.0209985 56.4714556,85.3886706 56.6311244,85.6376953 C56.7907932,85.88672 57.0508003,86.0112305 57.4111537,86.0112305 C57.7685774,86.0112305 58.0256549,85.8874524 58.1823939,85.6398926 C58.339133,85.3923327 58.4175014,85.0239282 58.4175014,84.534668 C58.4175014,84.0483374 58.3384006,83.683595 58.1801967,83.4404297 C58.0219928,83.1972644 57.762718,83.0756836 57.4023646,83.0756836 C57.044941,83.0756836 56.7871311,83.196532 56.6289271,83.4382324 C56.4707232,83.6799328 56.3916225,84.0454077 56.3916225,84.534668 Z M59.7885951,84.534668 C59.7885951,85.3344767 59.5776597,85.9599587 59.1557826,86.4111328 C58.7339055,86.8623069 58.146509,87.0878906 57.3935756,87.0878906 C56.9218935,87.0878906 56.5058821,86.9846202 56.1455287,86.7780762 C55.7851753,86.5715322 55.5083226,86.2749043 55.3149623,85.8881836 C55.121602,85.5014629 55.0249232,85.0502955 55.0249232,84.534668 C55.0249232,83.7319296 55.2343938,83.1079124 55.6533412,82.6625977 C56.0722886,82.2172829 56.6611499,81.9946289 57.4199428,81.9946289 C57.8916248,81.9946289 58.3076363,82.0971669 58.6679896,82.3022461 C59.028343,82.5073252 59.3051957,82.8017559 59.4985561,83.1855469 C59.6919164,83.5693379 59.7885951,84.0190404 59.7885951,84.534668 Z M65.2383161,87 L63.8979841,87 L63.8979841,84.1303711 C63.8979841,83.7758771 63.8349964,83.5100107 63.7090192,83.3327637 C63.583042,83.1555167 63.3823604,83.0668945 63.1069684,83.0668945 C62.7319666,83.0668945 62.4609732,83.1921374 62.2939801,83.442627 C62.1269871,83.6931165 62.0434919,84.1083955 62.0434919,84.6884766 L62.0434919,87 L60.7031598,87 L60.7031598,82.0869141 L61.7270856,82.0869141 L61.9072614,82.715332 L61.9819684,82.715332 C62.1313832,82.4780262 62.3371917,82.2985846 62.5994001,82.177002 C62.8616084,82.0554193 63.1597011,81.9946289 63.4936872,81.9946289 C64.0649791,81.9946289 64.4985685,82.1491684 64.7944684,82.458252 C65.0903683,82.7673355 65.2383161,83.213376 65.2383161,83.7963867 L65.2383161,87 Z" id="Student-Loans-/-Tuit" fill="#16A5AA"></path>
            <g id="Group-18" transform="translate(18.000000, 16.000000)">
                <path d="M10.6868263,19.3228937 L9.05191102,30.8615899 C8.9588178,31.5539443 9.28547034,32.2462987 9.89250424,32.5228051 L31.4256822,42.7230582 C31.7528856,42.9075772 32.1731822,43.0001089 32.5466568,43.0001089 L32.5466568,28.3692228 L10.6868263,19.3228937 Z" id="Fill-6" fill="#676868"></path>
                <path d="M55.9012669,30.8614266 L54.2663517,19.3227304 L32.4533432,28.3227937 L32.4533432,42.9999456 C32.8268178,42.9999456 33.2008432,42.9079582 33.5743178,42.7228949 L55.1069449,32.5231861 C55.7145297,32.1998696 55.994911,31.553781 55.9012669,30.8614266" id="Fill-8" fill="#333333"></path>
                <path d="M32.4532881,28.6460557 L0.550957627,15.4461443 C0.364220339,15.3998785 0.270576271,15.2153595 0.270576271,14.9845747 L0.270576271,13.6918532 L64.636,13.6918532 L64.636,14.7537899 C64.636,15.076562 64.4492627,15.3536127 64.1688814,15.4918658 L32.4532881,28.6460557 Z" id="Fill-10" fill="#333333"></path>
                <path d="M32.7335593,26.9844595 C32.546822,27.0307253 32.4063559,27.0307253 32.2196186,26.9844595 L0.270466102,13.7382823 L32.2664407,0.537826582 C32.453178,0.492105063 32.5936441,0.492105063 32.7803814,0.537826582 L64.7295339,13.7382823 L32.7335593,26.9844595 Z" id="Fill-12" fill="#676868"></path>
                <path d="M35.5361059,13.7382278 C35.5361059,14.7076329 34.181572,15.5382405 32.4998347,15.5382405 C30.8186483,15.5382405 29.4641144,14.7533544 29.4641144,13.7382278 C29.4641144,12.7688228 30.8186483,11.9382152 32.4998347,11.9382152 C34.13475,11.984481 35.5361059,12.7688228 35.5361059,13.7382278" id="Fill-14" fill="#242634"></path>
                <path d="M48.2876737,31.1845253 C47.9604703,31.1845253 47.726911,30.9074747 47.726911,30.4921709 C47.726911,30.1693987 48.0072924,29.7998165 48.2876737,29.7998165 C48.6148771,29.7998165 48.8484364,30.0768671 48.8484364,30.4921709 C48.9415297,30.9074747 48.6611483,31.1845253 48.2876737,31.1845253 M48.8484364,28.7384241 L48.8484364,20.4307152 C48.8484364,20.1536646 48.6611483,19.9228797 48.5212331,19.8766139 L34.087928,13.7842215 C34.087928,13.2769304 33.3409788,12.8153608 32.4530127,12.8153608 C31.5655975,12.8153608 30.8186483,13.2769304 30.8186483,13.7842215 C30.8186483,14.292057 31.5655975,14.7536266 32.4530127,14.7536266 C32.6403008,14.7536266 32.7802161,14.7536266 32.9669534,14.7073608 L47.726911,20.8922848 L47.726911,28.8304114 C47.0267839,29.107462 46.6059364,29.7998165 46.6059364,30.6304241 L46.6059364,32.5692342 C46.6059364,32.8920063 46.8394958,33.169057 47.1666992,33.169057 L49.5022924,33.169057 C49.7821229,33.169057 50.0625042,32.8920063 50.0625042,32.5692342 L50.0625042,30.6304241 C50.0625042,29.7078291 49.5022924,29.0154747 48.8484364,28.7384241" id="Fill-16" fill="#82BC41"></path>
            </g>
        </g>
    </g>
</svg>