<?xml version="1.0" encoding="UTF-8" standalone="no"?>
<svg width="101px" height="102px" viewBox="0 0 101 102" version="1.1" xmlns="http://www.w3.org/2000/svg" xmlns:xlink="http://www.w3.org/1999/xlink">
    <!-- Generator: Sketch 45.1 (43504) - http://www.bohemiancoding.com/sketch -->
    <title>btn-life-retirement-hover</title>
    <desc>Created with Sketch.</desc>
    <defs>
        <ellipse id="path-1" cx="50.5" cy="51" rx="48.5576923" ry="49.0384615"></ellipse>
        <path d="M0.272727273,34.4143899 C5.53002381,34.4087104 10.735763,33.4175985 13.6818182,31.3963964 C14.9545455,28.963964 15.6818182,26.0810811 15.6818182,22.7027027 C15.7272727,11.8018018 8.04545455,0.225225225 0.272727273,0.225225225 L0.272727273,34.41439 L0.272727273,34.4143899 Z" id="path-2"></path>
    </defs>
    <g id="Symbols" stroke="none" stroke-width="1" fill="none" fill-rule="evenodd">
        <g id="btn-life-retirement-hover">
            <g id="btn-life-retirement-static">
                <g id="Event-Circle-Hover">
                    <g id="Oval-3">
                        <use fill="#FFFFFF" fill-rule="evenodd" xlink:href="#path-1"></use>
                        <ellipse stroke="#545454" stroke-width="2" cx="50.5" cy="51" rx="49.5576923" ry="50.0384615"></ellipse>
                    </g>
                </g>
                <path d="M14.9158105,72.4272461 L15.3552637,72.4272461 C15.7859299,72.4272461 16.1037978,72.3554695 16.3088769,72.2119141 C16.5139561,72.0683587 16.6164941,71.842775 16.6164941,71.5351562 C16.6164941,71.2304672 16.5117588,71.0136725 16.3022851,70.8847656 C16.0928114,70.7558587 15.7683518,70.6914062 15.3288965,70.6914062 L14.9158105,70.6914062 L14.9158105,72.4272461 Z M14.9158105,73.534668 L14.9158105,76 L13.5535058,76 L13.5535058,69.5751953 L15.4255762,69.5751953 C16.2986274,69.5751953 16.944617,69.7341293 17.3635644,70.052002 C17.7825118,70.3698746 17.9919824,70.8525358 17.9919824,71.5 C17.9919824,71.8779316 17.8879795,72.2141099 17.6799707,72.5085449 C17.4719618,72.80298 17.1775312,73.0336906 16.7966699,73.2006836 L18.6863183,76 L17.1745996,76 L15.6409082,73.534668 L14.9158105,73.534668 Z M20.7341113,71.9482422 C20.4499302,71.9482422 20.2272762,72.0383292 20.0661426,72.2185059 C19.9050089,72.3986825 19.8127247,72.6542952 19.7892871,72.9853516 L21.6701465,72.9853516 C21.6642871,72.6542952 21.5778621,72.3986825 21.4108691,72.2185059 C21.2438761,72.0383292 21.0182924,71.9482422 20.7341113,71.9482422 Z M20.9230762,76.0878906 C20.1320566,76.0878906 19.5138987,75.8696311 19.068584,75.4331055 C18.6232692,74.9965798 18.4006152,74.378422 18.4006152,73.5786133 C18.4006152,72.755367 18.6064237,72.1188987 19.0180469,71.6691895 C19.42967,71.2194802 19.9987561,70.9946289 20.7253222,70.9946289 C21.4196617,70.9946289 21.9601836,71.1923808 22.3469043,71.5878906 C22.733625,71.9834004 22.9269824,72.5297817 22.9269824,73.2270508 L22.9269824,73.8774414 L19.7585254,73.8774414 C19.7731739,74.2583027 19.8859657,74.555663 20.0969043,74.7695312 C20.3078428,74.9833995 20.6037383,75.090332 20.9845996,75.090332 C21.2804995,75.090332 21.5602819,75.0595706 21.8239551,74.9980469 C22.0876283,74.9365231 22.3630161,74.8383796 22.6501269,74.7036133 L22.6501269,75.7407227 C22.4157508,75.8579107 22.165265,75.9450681 21.8986621,76.0021973 C21.6320592,76.0593265 21.3068671,76.0878906 20.9230762,76.0878906 Z M25.3219433,76.0878906 C23.7926388,76.0878906 23.027998,75.2485435 23.027998,73.5698242 C23.027998,72.7348591 23.2360038,72.096926 23.6520215,71.6560059 C24.0680392,71.2150857 24.6642246,70.9946289 25.4405957,70.9946289 C26.0089579,70.9946289 26.5187184,71.1059559 26.9698926,71.3286133 L26.5743847,72.3657227 C26.3634462,72.2807613 26.1671591,72.2111819 25.9855176,72.1569824 C25.803876,72.1027829 25.6222372,72.0756836 25.4405957,72.0756836 C24.7433266,72.0756836 24.3946972,72.5707958 24.3946972,73.5610352 C24.3946972,74.5219775 24.7433266,75.0024414 25.4405957,75.0024414 C25.6984095,75.0024414 25.9371766,74.9680179 26.1569043,74.8991699 C26.3766319,74.8303219 26.5963563,74.722657 26.816084,74.5761719 L26.816084,75.7231445 C26.599286,75.8608405 26.3802941,75.9560544 26.1591015,76.0087891 C25.937909,76.0615237 25.6588591,76.0878906 25.3219433,76.0878906 Z M29.2989355,71.9482422 C29.0147544,71.9482422 28.7921004,72.0383292 28.6309668,72.2185059 C28.4698332,72.3986825 28.3775489,72.6542952 28.3541113,72.9853516 L30.2349707,72.9853516 C30.2291113,72.6542952 30.1426864,72.3986825 29.9756933,72.2185059 C29.8087003,72.0383292 29.5831166,71.9482422 29.2989355,71.9482422 Z M29.4879004,76.0878906 C28.6968808,76.0878906 28.0787229,75.8696311 27.6334082,75.4331055 C27.1880935,74.9965798 26.9654394,74.378422 26.9654394,73.5786133 C26.9654394,72.755367 27.1712479,72.1188987 27.5828711,71.6691895 C27.9944942,71.2194802 28.5635803,70.9946289 29.2901465,70.9946289 C29.9844859,70.9946289 30.5250078,71.1923808 30.9117285,71.5878906 C31.2984492,71.9834004 31.4918066,72.5297817 31.4918066,73.2270508 L31.4918066,73.8774414 L28.3233496,73.8774414 C28.3379981,74.2583027 28.4507899,74.555663 28.6617285,74.7695312 C28.8726671,74.9833995 29.1685625,75.090332 29.5494238,75.090332 C29.8453237,75.090332 30.1251061,75.0595706 30.3887793,74.9980469 C30.6524525,74.9365231 30.9278403,74.8383796 31.2149512,74.7036133 L31.2149512,75.7407227 C30.980575,75.8579107 30.7300892,75.9450681 30.4634863,76.0021973 C30.1968834,76.0593265 29.8716914,76.0878906 29.4879004,76.0878906 Z M31.8345215,69.8168945 C31.8345215,69.3803689 32.0776831,69.1621094 32.5640137,69.1621094 C33.0503442,69.1621094 33.2935058,69.3803689 33.2935058,69.8168945 C33.2935058,70.0249034 33.2327154,70.186767 33.1111328,70.3024902 C32.9895502,70.4182135 32.8071789,70.4760742 32.5640137,70.4760742 C32.0776831,70.4760742 31.8345215,70.2563499 31.8345215,69.8168945 Z M33.2319824,76 L31.8916504,76 L31.8916504,71.0869141 L33.2319824,71.0869141 L33.2319824,76 Z M35.1171777,76 L33.2451074,71.0869141 L34.6469629,71.0869141 L35.5961816,73.8862305 C35.6928618,74.1909195 35.7558495,74.5263654 35.7851465,74.8925781 L35.8203027,74.8925781 C35.8378809,74.5615218 35.9037982,74.2260759 36.0180566,73.8862305 L36.9628808,71.0869141 L38.3647363,71.0869141 L36.492666,76 L35.1171777,76 Z M40.4125293,71.9482422 C40.1283482,71.9482422 39.9056942,72.0383292 39.7445605,72.2185059 C39.5834269,72.3986825 39.4911427,72.6542952 39.4677051,72.9853516 L41.3485644,72.9853516 C41.342705,72.6542952 41.2562801,72.3986825 41.0892871,72.2185059 C40.9222941,72.0383292 40.6967104,71.9482422 40.4125293,71.9482422 Z M40.6014941,76.0878906 C39.8104746,76.0878906 39.1923167,75.8696311 38.7470019,75.4331055 C38.3016872,74.9965798 38.0790332,74.378422 38.0790332,73.5786133 C38.0790332,72.755367 38.2848417,72.1188987 38.6964648,71.6691895 C39.108088,71.2194802 39.6771741,70.9946289 40.4037402,70.9946289 C41.0980796,70.9946289 41.6386016,71.1923808 42.0253223,71.5878906 C42.4120429,71.9834004 42.6054004,72.5297817 42.6054004,73.2270508 L42.6054004,73.8774414 L39.4369434,73.8774414 C39.4515919,74.2583027 39.5643837,74.555663 39.7753223,74.7695312 C39.9862608,74.9833995 40.2821563,75.090332 40.6630176,75.090332 C40.9589175,75.090332 41.2386998,75.0595706 41.502373,74.9980469 C41.7660462,74.9365231 42.0414341,74.8383796 42.3285449,74.7036133 L42.3285449,75.7407227 C42.0941687,75.8579107 41.843683,75.9450681 41.5770801,76.0021973 C41.3104772,76.0593265 40.9852851,76.0878906 40.6014941,76.0878906 Z M46.1209082,72.4272461 L46.5603613,72.4272461 C46.9910275,72.4272461 47.3088955,72.3554695 47.5139746,72.2119141 C47.7190538,72.0683587 47.8215918,71.842775 47.8215918,71.5351562 C47.8215918,71.2304672 47.7168565,71.0136725 47.5073828,70.8847656 C47.2979091,70.7558587 46.9734495,70.6914062 46.5339941,70.6914062 L46.1209082,70.6914062 L46.1209082,72.4272461 Z M46.1209082,73.534668 L46.1209082,76 L44.7586035,76 L44.7586035,69.5751953 L46.6306738,69.5751953 C47.5037251,69.5751953 48.1497147,69.7341293 48.5686621,70.052002 C48.9876095,70.3698746 49.1970801,70.8525358 49.1970801,71.5 C49.1970801,71.8779316 49.0930772,72.2141099 48.8850684,72.5085449 C48.6770595,72.80298 48.3826289,73.0336906 48.0017676,73.2006836 L49.891416,76 L48.3796973,76 L46.8460059,73.534668 L46.1209082,73.534668 Z M51.939209,71.9482422 C51.6550279,71.9482422 51.4323739,72.0383292 51.2712402,72.2185059 C51.1101066,72.3986825 51.0178224,72.6542952 50.9943848,72.9853516 L52.8752441,72.9853516 C52.8693847,72.6542952 52.7829598,72.3986825 52.6159668,72.2185059 C52.4489738,72.0383292 52.2233901,71.9482422 51.939209,71.9482422 Z M52.1281738,76.0878906 C51.3371542,76.0878906 50.7189964,75.8696311 50.2736816,75.4331055 C49.8283669,74.9965798 49.6057129,74.378422 49.6057129,73.5786133 C49.6057129,72.755367 49.8115214,72.1188987 50.2231445,71.6691895 C50.6347677,71.2194802 51.2038538,70.9946289 51.9304199,70.9946289 C52.6247593,70.9946289 53.1652813,71.1923808 53.552002,71.5878906 C53.9387226,71.9834004 54.1320801,72.5297817 54.1320801,73.2270508 L54.1320801,73.8774414 L50.963623,73.8774414 C50.9782716,74.2583027 51.0910634,74.555663 51.302002,74.7695312 C51.5129405,74.9833995 51.808836,75.090332 52.1896973,75.090332 C52.4855972,75.090332 52.7653795,75.0595706 53.0290527,74.9980469 C53.2927259,74.9365231 53.5681138,74.8383796 53.8552246,74.7036133 L53.8552246,75.7407227 C53.6208484,75.8579107 53.3703627,75.9450681 53.1037598,76.0021973 C52.8371569,76.0593265 52.5119648,76.0878906 52.1281738,76.0878906 Z M56.601748,75.0200195 C56.8361242,75.0200195 57.1173714,74.9687505 57.445498,74.8662109 L57.445498,75.8637695 C57.111512,76.0131843 56.7013599,76.0878906 56.2150293,76.0878906 C55.6788938,76.0878906 55.2885169,75.9523939 55.0438867,75.6813965 C54.7992566,75.410399 54.6769434,75.003909 54.6769434,74.4619141 L54.6769434,72.0932617 L54.0353418,72.0932617 L54.0353418,71.5263672 L54.773623,71.078125 L55.1603418,70.0410156 L56.0172754,70.0410156 L56.0172754,71.0869141 L57.3927637,71.0869141 L57.3927637,72.0932617 L56.0172754,72.0932617 L56.0172754,74.4619141 C56.0172754,74.6523447 56.0707417,74.7929683 56.1776758,74.8837891 C56.2846099,74.9746098 56.4259659,75.0200195 56.601748,75.0200195 Z M57.6915332,69.8168945 C57.6915332,69.3803689 57.9346948,69.1621094 58.4210254,69.1621094 C58.907356,69.1621094 59.1505176,69.3803689 59.1505176,69.8168945 C59.1505176,70.0249034 59.0897272,70.186767 58.9681445,70.3024902 C58.8465619,70.4182135 58.6641907,70.4760742 58.4210254,70.4760742 C57.9346948,70.4760742 57.6915332,70.2563499 57.6915332,69.8168945 Z M59.0889941,76 L57.7486621,76 L57.7486621,71.0869141 L59.0889941,71.0869141 L59.0889941,76 Z M62.5474316,70.9946289 C62.7290732,70.9946289 62.8799506,71.0078124 63.0000684,71.0341797 L62.8989941,72.2910156 C62.7905952,72.2617186 62.6587605,72.2470703 62.5034863,72.2470703 C62.0757498,72.2470703 61.7425012,72.3569325 61.5037305,72.5766602 C61.2649598,72.7963878 61.1455762,73.1040019 61.1455762,73.4995117 L61.1455762,76 L59.8052441,76 L59.8052441,71.0869141 L60.8203809,71.0869141 L61.0181348,71.9130859 L61.0840527,71.9130859 C61.2363973,71.6376939 61.4422057,71.4157723 61.7014844,71.2473145 C61.960763,71.0788566 62.2427426,70.9946289 62.5474316,70.9946289 Z M65.1489356,71.9482422 C64.8647544,71.9482422 64.6421004,72.0383292 64.4809668,72.2185059 C64.3198332,72.3986825 64.227549,72.6542952 64.2041113,72.9853516 L66.0849707,72.9853516 C66.0791113,72.6542952 65.9926864,72.3986825 65.8256934,72.2185059 C65.6587003,72.0383292 65.4331167,71.9482422 65.1489356,71.9482422 Z M65.3379004,76.0878906 C64.5468808,76.0878906 63.9287229,75.8696311 63.4834082,75.4331055 C63.0380935,74.9965798 62.8154395,74.378422 62.8154395,73.5786133 C62.8154395,72.755367 63.021248,72.1188987 63.4328711,71.6691895 C63.8444943,71.2194802 64.4135804,70.9946289 65.1401465,70.9946289 C65.8344859,70.9946289 66.3750078,71.1923808 66.7617285,71.5878906 C67.1484492,71.9834004 67.3418067,72.5297817 67.3418067,73.2270508 L67.3418067,73.8774414 L64.1733496,73.8774414 C64.1879981,74.2583027 64.30079,74.555663 64.5117285,74.7695312 C64.7226671,74.9833995 65.0185626,75.090332 65.3994238,75.090332 C65.6953238,75.090332 65.9751061,75.0595706 66.2387793,74.9980469 C66.5024525,74.9365231 66.7778404,74.8383796 67.0649512,74.7036133 L67.0649512,75.7407227 C66.830575,75.8579107 66.5800892,75.9450681 66.3134863,76.0021973 C66.0468834,76.0593265 65.7216914,76.0878906 65.3379004,76.0878906 Z M72.1405762,76 L70.8002442,76 L70.8002442,73.1303711 C70.8002442,72.7758771 70.7409186,72.5100107 70.6222656,72.3327637 C70.5036127,72.1555167 70.316847,72.0668945 70.0619629,72.0668945 C69.7191878,72.0668945 69.4701668,72.1928698 69.3148926,72.4448242 C69.1596184,72.6967786 69.0819824,73.1113252 69.0819824,73.6884766 L69.0819824,76 L67.7416504,76 L67.7416504,71.0869141 L68.7655762,71.0869141 L68.945752,71.715332 L69.020459,71.715332 C69.1522956,71.489745 69.3427234,71.3132331 69.5917481,71.185791 C69.8407727,71.058349 70.1264144,70.9946289 70.4486817,70.9946289 C71.1840369,70.9946289 71.6820788,71.2348609 71.9428223,71.715332 L72.0614746,71.715332 C72.1933112,71.4868153 72.3874011,71.3095709 72.64375,71.1835938 C72.9000989,71.0576166 73.1894027,70.9946289 73.5116699,70.9946289 C74.0683133,70.9946289 74.4894517,71.1374497 74.7750977,71.4230957 C75.0607436,71.7087417 75.2035645,72.1665008 75.2035645,72.7963867 L75.2035645,76 L73.8588379,76 L73.8588379,73.1303711 C73.8588379,72.7758771 73.7995123,72.5100107 73.6808594,72.3327637 C73.5622064,72.1555167 73.3754407,72.0668945 73.1205567,72.0668945 C72.79243,72.0668945 72.5470711,72.1840809 72.3844727,72.418457 C72.2218742,72.6528332 72.1405762,73.0248998 72.1405762,73.534668 L72.1405762,76 Z M77.9237207,71.9482422 C77.6395396,71.9482422 77.4168856,72.0383292 77.255752,72.2185059 C77.0946183,72.3986825 77.0023341,72.6542952 76.9788965,72.9853516 L78.8597559,72.9853516 C78.8538965,72.6542952 78.7674716,72.3986825 78.6004785,72.2185059 C78.4334855,72.0383292 78.2079018,71.9482422 77.9237207,71.9482422 Z M78.1126856,76.0878906 C77.321666,76.0878906 76.7035081,75.8696311 76.2581934,75.4331055 C75.8128786,74.9965798 75.5902246,74.378422 75.5902246,73.5786133 C75.5902246,72.755367 75.7960331,72.1188987 76.2076563,71.6691895 C76.6192794,71.2194802 77.1883655,70.9946289 77.9149317,70.9946289 C78.6092711,70.9946289 79.149793,71.1923808 79.5365137,71.5878906 C79.9232344,71.9834004 80.1165918,72.5297817 80.1165918,73.2270508 L80.1165918,73.8774414 L76.9481348,73.8774414 C76.9627833,74.2583027 77.0755751,74.555663 77.2865137,74.7695312 C77.4974522,74.9833995 77.7933477,75.090332 78.174209,75.090332 C78.4701089,75.090332 78.7498913,75.0595706 79.0135645,74.9980469 C79.2772377,74.9365231 79.5526255,74.8383796 79.8397363,74.7036133 L79.8397363,75.7407227 C79.6053602,75.8579107 79.3548744,75.9450681 79.0882715,76.0021973 C78.8216686,76.0593265 78.4964765,76.0878906 78.1126856,76.0878906 Z M85.0515918,76 L83.7112598,76 L83.7112598,73.1303711 C83.7112598,72.7758771 83.6482721,72.5100107 83.5222949,72.3327637 C83.3963177,72.1555167 83.1956362,72.0668945 82.9202442,72.0668945 C82.5452423,72.0668945 82.2742489,72.1921374 82.1072559,72.442627 C81.9402629,72.6931165 81.8567676,73.1083955 81.8567676,73.6884766 L81.8567676,76 L80.5164356,76 L80.5164356,71.0869141 L81.5403613,71.0869141 L81.7205371,71.715332 L81.7952442,71.715332 C81.944659,71.4780262 82.1504675,71.2985846 82.4126758,71.177002 C82.6748841,71.0554193 82.9729769,70.9946289 83.3069629,70.9946289 C83.8782548,70.9946289 84.3118442,71.1491684 84.6077442,71.458252 C84.9036441,71.7673355 85.0515918,72.213376 85.0515918,72.7963867 L85.0515918,76 Z M87.8112988,75.0200195 C88.045675,75.0200195 88.3269222,74.9687505 88.6550488,74.8662109 L88.6550488,75.8637695 C88.3210628,76.0131843 87.9109107,76.0878906 87.4245801,76.0878906 C86.8884446,76.0878906 86.4980676,75.9523939 86.2534375,75.6813965 C86.0088074,75.410399 85.8864942,75.003909 85.8864942,74.4619141 L85.8864942,72.0932617 L85.2448926,72.0932617 L85.2448926,71.5263672 L85.9831738,71.078125 L86.3698926,70.0410156 L87.2268262,70.0410156 L87.2268262,71.0869141 L88.6023145,71.0869141 L88.6023145,72.0932617 L87.2268262,72.0932617 L87.2268262,74.4619141 C87.2268262,74.6523447 87.2802925,74.7929683 87.3872266,74.8837891 C87.4941607,74.9746098 87.6355167,75.0200195 87.8112988,75.0200195 Z M38.6478446,87 L35.7254813,87 L35.7254813,86.2265625 L36.5077079,85.8662109 L36.5077079,81.7089844 L35.7254813,81.3486328 L35.7254813,80.5751953 L38.6478446,80.5751953 L38.6478446,81.3486328 L37.865618,81.7089844 L37.865618,85.8662109 L38.6478446,86.2265625 L38.6478446,87 Z M43.4861649,87 L42.1458329,87 L42.1458329,84.1303711 C42.1458329,83.7758771 42.0828452,83.5100107 41.956868,83.3327637 C41.8308908,83.1555167 41.6302093,83.0668945 41.3548172,83.0668945 C40.9798154,83.0668945 40.708822,83.1921374 40.541829,83.442627 C40.3748359,83.6931165 40.2913407,84.1083955 40.2913407,84.6884766 L40.2913407,87 L38.9510087,87 L38.9510087,82.0869141 L39.9749344,82.0869141 L40.1551102,82.715332 L40.2298172,82.715332 C40.3792321,82.4780262 40.5850405,82.2985846 40.8472489,82.177002 C41.1094572,82.0554193 41.40755,81.9946289 41.741536,81.9946289 C42.3128279,81.9946289 42.7464173,82.1491684 43.0423172,82.458252 C43.3382172,82.7673355 43.4861649,83.213376 43.4861649,83.7963867 L43.4861649,87 Z M46.1711649,87.0878906 C44.6418604,87.0878906 43.8772196,86.2485435 43.8772196,84.5698242 C43.8772196,83.7348591 44.0852253,83.096926 44.501243,82.6560059 C44.9172607,82.2150857 45.5134462,81.9946289 46.2898173,81.9946289 C46.8581795,81.9946289 47.36794,82.1059559 47.8191141,82.3286133 L47.4236063,83.3657227 C47.2126678,83.2807613 47.0163807,83.2111819 46.8347391,83.1569824 C46.6530976,83.1027829 46.4714588,83.0756836 46.2898173,83.0756836 C45.5925481,83.0756836 45.2439188,83.5707958 45.2439188,84.5610352 C45.2439188,85.5219775 45.5925481,86.0024414 46.2898173,86.0024414 C46.547631,86.0024414 46.7863982,85.9680179 47.0061258,85.8991699 C47.2258535,85.8303219 47.4455779,85.722657 47.6653055,85.5761719 L47.6653055,86.7231445 C47.4485076,86.8608405 47.2295156,86.9560544 47.0083231,87.0087891 C46.7871306,87.0615237 46.5080807,87.0878906 46.1711649,87.0878906 Z M49.1813602,84.534668 C49.1813602,85.0209985 49.2611934,85.3886706 49.4208622,85.6376953 C49.5805309,85.88672 49.8405381,86.0112305 50.2008915,86.0112305 C50.5583151,86.0112305 50.8153926,85.8874524 50.9721317,85.6398926 C51.1288708,85.3923327 51.2072391,85.0239282 51.2072391,84.534668 C51.2072391,84.0483374 51.1281384,83.683595 50.9699344,83.4404297 C50.8117305,83.1972644 50.5524558,83.0756836 50.1921024,83.0756836 C49.8346787,83.0756836 49.5768688,83.196532 49.4186649,83.4382324 C49.260461,83.6799328 49.1813602,84.0454077 49.1813602,84.534668 Z M52.5783329,84.534668 C52.5783329,85.3344767 52.3673975,85.9599587 51.9455204,86.4111328 C51.5236433,86.8623069 50.9362468,87.0878906 50.1833133,87.0878906 C49.7116313,87.0878906 49.2956198,86.9846202 48.9352665,86.7780762 C48.5749131,86.5715322 48.2980604,86.2749043 48.1047001,85.8881836 C47.9113397,85.5014629 47.814661,85.0502955 47.814661,84.534668 C47.814661,83.7319296 48.0241316,83.1079124 48.443079,82.6625977 C48.8620264,82.2172829 49.4508877,81.9946289 50.2096805,81.9946289 C50.6813626,81.9946289 51.097374,82.0971669 51.4577274,82.3022461 C51.8180808,82.5073252 52.0949335,82.8017559 52.2882938,83.1855469 C52.4816542,83.5693379 52.5783329,84.0190404 52.5783329,84.534668 Z M57.3946805,87 L56.0543485,87 L56.0543485,84.1303711 C56.0543485,83.7758771 55.9950229,83.5100107 55.87637,83.3327637 C55.7577171,83.1555167 55.5709513,83.0668945 55.3160673,83.0668945 C54.9732921,83.0668945 54.7242712,83.1928698 54.5689969,83.4448242 C54.4137227,83.6967786 54.3360868,84.1113252 54.3360868,84.6884766 L54.3360868,87 L52.9957548,87 L52.9957548,82.0869141 L54.0196805,82.0869141 L54.1998563,82.715332 L54.2745633,82.715332 C54.4063999,82.489745 54.5968277,82.3132331 54.8458524,82.185791 C55.0948771,82.058349 55.3805188,81.9946289 55.702786,81.9946289 C56.4381412,81.9946289 56.9361831,82.2348609 57.1969266,82.715332 L57.315579,82.715332 C57.4474156,82.4868153 57.6415054,82.3095709 57.8978544,82.1835938 C58.1542033,82.0576166 58.4435071,81.9946289 58.7657743,81.9946289 C59.3224177,81.9946289 59.7435561,82.1374497 60.029202,82.4230957 C60.314848,82.7087417 60.4576688,83.1665008 60.4576688,83.7963867 L60.4576688,87 L59.1129423,87 L59.1129423,84.1303711 C59.1129423,83.7758771 59.0536167,83.5100107 58.9349637,83.3327637 C58.8163108,83.1555167 58.6295451,83.0668945 58.374661,83.0668945 C58.0465344,83.0668945 57.8011755,83.1840809 57.638577,83.418457 C57.4759786,83.6528332 57.3946805,84.0248998 57.3946805,84.534668 L57.3946805,87 Z M63.1778251,82.9482422 C62.893644,82.9482422 62.6709899,83.0383292 62.5098563,83.2185059 C62.3487227,83.3986825 62.2564385,83.6542952 62.2330009,83.9853516 L64.1138602,83.9853516 C64.1080008,83.6542952 64.0215759,83.3986825 63.8545829,83.2185059 C63.6875899,83.0383292 63.4620062,82.9482422 63.1778251,82.9482422 Z M63.3667899,87.0878906 C62.5757703,87.0878906 61.9576125,86.8696311 61.5122977,86.4331055 C61.066983,85.9965798 60.844329,85.378422 60.844329,84.5786133 C60.844329,83.755367 61.0501375,83.1188987 61.4617606,82.6691895 C61.8733838,82.2194802 62.4424699,81.9946289 63.169036,81.9946289 C63.8633754,81.9946289 64.4038974,82.1923808 64.790618,82.5878906 C65.1773387,82.9834004 65.3706962,83.5297817 65.3706962,84.2270508 L65.3706962,84.8774414 L62.2022391,84.8774414 C62.2168876,85.2583027 62.3296795,85.555663 62.540618,85.7695312 C62.7515566,85.9833995 63.0474521,86.090332 63.4283134,86.090332 C63.7242133,86.090332 64.0039956,86.0595706 64.2676688,85.9980469 C64.531342,85.9365231 64.8067299,85.8383796 65.0938407,85.7036133 L65.0938407,86.7407227 C64.8594645,86.8579107 64.6089787,86.9450681 64.3423759,87.0021973 C64.075773,87.0593265 63.7505809,87.0878906 63.3667899,87.0878906 Z" id="Receive-Retirement-I" fill="#16A5AA"></path>
                <g id="Group-4" transform="translate(28.000000, 12.000000)">
                    <g id="Page-1">
                        <g id="Group-21">
                            <path d="M28.1818182,43.9189189 C29.7727273,44.7747748 34.5,45.990991 43.4090909,39.6846847 C44.2272727,37.9279279 44.7727273,36.1711712 44.9545455,34.7747748 C42.2727273,38.2882883 35.5,40.7207207 32.2727273,41.3963964 C31.8636364,41.4864865 31.3636364,41.2162162 31.2727273,40.7207207 C31.1818182,40.2252252 31.5,39.8198198 31.9545455,39.7297297 C36.5454545,38.7837838 43.4090909,35.5855856 44.3181818,32.4774775 C44.5454545,31.8018018 44.3636364,31.1261261 43.9090909,30.4054054 C42.9545455,29.2342342 41.4090909,28.4684685 39.1818182,27.9279279 C38.8181818,29.4594595 38.2727273,30.9009009 37.5909091,32.2072072 C37.5,32.4774775 37.2727273,32.7027027 37.0454545,32.8378378 C34,34.9099099 28.5909091,36.1261261 22.6363636,36.1261261 C16.6818182,36.1261261 11.2727273,34.9099099 8.22727273,32.8378378 C8,32.6576577 7.81818182,32.4774775 7.68181818,32.2072072 C7,30.9009009 6.45454545,29.4594595 6.09090909,27.9279279 C3.90909091,28.4684685 2.40909091,29.2342342 1.45454545,30.3603604 C0.818181818,31.2162162 0.636363636,32.2522523 1.09090909,33.3333333 C1.5,34.5045045 3.81818182,38.2882883 14.1818182,39.9099099 C14.1818182,40.4504505 14.2727273,41.036036 14.4090909,41.6666667 C5.59090909,40.3603604 1.86363636,37.6126126 0.318181818,35.5405405 C0.545454545,36.7117117 1.04545455,38.1981982 1.68181818,39.5945946 C3.27272727,41.7117117 8.95454545,44.3693694 15.6363636,44.9099099 C16,45.5405405 16.5,46.1261261 17,46.7117117 C12.4090909,46.5315315 8.04545455,45.3603604 4.81818182,43.8288288 C9.81818182,48.6036036 17.1818182,50 24.1818182,49.7297297 C20.7272727,47.7477477 18,43.6036036 17.8181818,40.3603604 C18.4090909,40.4054054 18.9545455,40.4054054 19.5,40.4504505 C19.8636364,43.8738739 23.6363636,48.8288288 28.0454545,49.3693694 C34.0454545,48.4684685 38.2272727,46.036036 40.8181818,43.3783784 C37.3181818,45.3153153 34.0454545,46.3513514 31.3181818,46.3513514 C29.8181818,46.3513514 28.5454545,46.0810811 27.3636364,45.4504505 C25.4090909,44.4594595 24.1818182,42.6576577 23.9545455,40.4504505 C24.5454545,40.4504505 25.1363636,40.4054054 25.7272727,40.3603604 C26,41.8918919 26.7727273,43.1981982 28.1818182,43.9189189" id="Fill-19" fill="#4F4F4F"></path>
                            <path d="M22.5454545,0.225225225 C14.7727273,0.225225225 7.04545455,11.8018018 7.04545455,22.7027027 C7.04545455,26.0810811 7.77272727,29.009009 9.04545455,31.3963964 C12.0454545,33.3783784 17.2272727,34.4144144 22.5,34.4144144 C27.7727273,34.4144144 33,33.4234234 35.9545455,31.3963964 C37.2272727,28.963964 37.9545455,26.0810811 37.9545455,22.7027027 C38,11.8018018 30.3181818,0.225225225 22.5454545,0.225225225" id="Fill-20" fill="#82BC41"></path>
                        </g>
                        <g id="Group-24" transform="translate(22.272727, 0.000000)">
                            <mask id="mask-3" fill="white">
                                <use xlink:href="#path-2"></use>
                            </mask>
                            <g id="Clip-23"></g>
                            <polygon id="Fill-22" fill="#82BC41" mask="url(#mask-3)" points="0.272727273 50.9459459 28.4090909 50.9459459 28.4090909 -2.61261261 0.272727273 -2.61261261"></polygon>
                        </g>
                        <path d="M23.4090909,19.009009 L23.4090909,22.2972973 C24.5454545,22.1171171 25.1818182,21.6216216 25.1818182,20.7207207 C25.1363636,19.9099099 24.7727273,19.4144144 23.4090909,19.009009 M22,16.5315315 L22,13.3783784 C20.8636364,13.4684685 20.3181818,14.0990991 20.3181818,14.9099099 C20.3181818,15.6306306 20.6363636,16.036036 22,16.5315315 M22.6818182,10.1801802 C23.0909091,10.1801802 23.4090909,10.4954955 23.4090909,10.990991 L23.4545455,11.6216216 C24.5,11.7117117 25.3636364,12.1171171 26.2272727,12.6126126 C26.5,12.7927928 26.7727273,13.018018 26.7727273,13.4684685 C26.7727273,14.0540541 26.3636364,14.4594595 25.7727273,14.4594595 C25.5909091,14.4594595 25.4090909,14.4144144 25.2272727,14.2792793 C24.5909091,13.9189189 24,13.6486486 23.4090909,13.4684685 L23.4090909,16.8918919 C26.1363636,17.5675676 27.2272727,18.6936937 27.2272727,20.5855856 C27.2272727,22.5225225 25.6818182,23.8738739 23.4545455,24.0540541 L23.4545455,25.0900901 C23.4545455,25.4954955 23.1363636,25.8108108 22.7272727,25.8108108 C22.3181818,25.8108108 21.9090909,25.4954955 21.9090909,25.0900901 L21.9090909,23.963964 C20.5909091,23.7837838 19.3636364,23.3333333 18.2727273,22.5225225 C17.9545455,22.2972973 17.7727273,22.027027 17.7727273,21.6666667 C17.7727273,21.1261261 18.1818182,20.6756757 18.7272727,20.6756757 C18.9545455,20.6756757 19.1363636,20.7207207 19.3181818,20.9009009 C20.1818182,21.4864865 20.9545455,21.8918919 21.9090909,22.1171171 L21.9090909,18.6936937 C19.3181818,18.018018 18.1363636,17.0720721 18.1363636,15 C18.1363636,13.1081081 19.6363636,11.8018018 21.8636364,11.5765766 L21.9090909,10.990991 C21.9545455,10.5405405 22.2727273,10.1801802 22.6818182,10.1801802" id="Fill-25" fill="#FFFFFF"></path>
                    </g>
                </g>
            </g>
        </g>
    </g>
</svg>