<?xml version="1.0" encoding="UTF-8" standalone="no"?>
<svg width="18px" height="26px" viewBox="0 0 18 26" version="1.1" xmlns="http://www.w3.org/2000/svg" xmlns:xlink="http://www.w3.org/1999/xlink">
    <!-- Generator: Sketch 44.1 (41455) - http://www.bohemiancoding.com/sketch -->
    <title>ic-award</title>
    <desc>Created with Sketch.</desc>
    <defs></defs>
    <g id="Desktop" stroke="none" stroke-width="1" fill="none" fill-rule="evenodd">
        <g id="ic-award" fill="#F0B230">
            <g id="Group-7">
                <g id="Group-3" transform="translate(0.000000, 0.158301)">
                    <g id="Imported-Layers-Copy-3">
                        <path d="M12.2296486,16.1315076 C12.6871209,15.3597457 13.3595263,14.964524 14.2514153,14.9539582 C15.1431526,14.9433924 15.5933442,14.484776 15.6079057,13.5823965 C15.6204953,12.6841514 16.0078906,12.0051847 16.7723669,11.5456495 C17.538815,11.0838174 17.7049066,10.462886 17.2683663,9.6764239 C16.8339497,8.89210558 16.8339497,8.10778726 17.2683663,7.32132516 C17.7049066,6.53700684 17.5398768,5.91699417 16.7723669,5.45531519 C16.0078906,4.99256432 15.6194335,4.31466952 15.6079057,3.41229001 C15.5933442,2.51404494 15.1431526,2.0554285 14.2514153,2.04486272 C13.3595263,2.03215315 12.6871209,1.63892209 12.2296486,0.867313346 C11.772328,0.0935608147 11.1572583,-0.0741136404 10.3803441,0.366586891 C9.6032782,0.805143639 8.82424047,0.805143639 8.04732628,0.366586891 C7.26935032,-0.0730417489 6.65428062,0.0935608147 6.19695999,0.867313346 C5.74054945,1.63999399 5.06693057,2.03322504 4.17625503,2.04486272 C3.28648959,2.0554285 2.83432614,2.51404494 2.82173655,3.41229001 C2.8071751,4.31466952 2.41977978,4.99149243 1.6553035,5.45531519 C0.888855355,5.91699417 0.720640238,6.53593495 1.15930401,7.32132516 C1.59584423,8.10778726 1.59584423,8.89210558 1.15930401,9.6764239 C0.720640238,10.462886 0.887793583,11.0848893 1.6553035,11.5456495 C2.41977978,12.0051847 2.80823687,12.6841514 2.82173655,13.5823965 C2.83432614,14.4837041 3.28648959,14.9433924 4.17625503,14.9539582 C5.06799234,14.964524 5.74054945,15.3597457 6.19787008,16.1315076 C6.65534239,16.9052601 7.2704121,17.0729346 8.04732628,16.6300903 C8.82424047,16.1958211 9.6032782,16.1958211 10.3803441,16.6300903 C11.1572583,17.0718627 11.7733897,16.9052601 12.2296486,16.1315076" id="Fill-1"></path>
                        <path d="M4.09783554,15.6761068 C3.16013865,15.6761068 3.03484948,15.2354063 3.03484948,15.2354063 L0.141822484,20.6821464 L3.07823047,20.3490944 L4.70213584,22.8159761 C4.70213584,22.8159761 7.31637168,17.5093476 7.31637168,17.556817 C5.56308174,17.5125632 6.26066635,15.7235763 4.09783554,15.6761068" id="Fill-2"></path>
                        <path d="M15.3447377,15.5200701 C12.6693741,15.80259 13.2134568,16.4731347 12.6014207,16.9939209 C11.8976171,17.7519013 11.0183177,17.6032146 11.0183177,17.6032146 L13.9938596,22.7951508 L15.009976,20.1385443 L17.8984525,20.5190657 L15.3447377,15.5200701" id="Fill-3"></path>
                    </g>
                </g>
            </g>
        </g>
    </g>
</svg>