<?xml version="1.0" encoding="UTF-8" standalone="no"?>
<svg width="72px" height="72px" viewBox="0 0 72 72" version="1.1" xmlns="http://www.w3.org/2000/svg" xmlns:xlink="http://www.w3.org/1999/xlink">
    <!-- Generator: Sketch 44.1 (41455) - http://www.bohemiancoding.com/sketch -->
    <title>ic-price</title>
    <desc>Created with Sketch.</desc>
    <defs>
        <polygon id="path-1" points="35.99995 0 0 0 0 72 35.99995 72 71.9999 72 71.9999 0"></polygon>
    </defs>
    <g id="Desktop" stroke="none" stroke-width="1" fill="none" fill-rule="evenodd">
        <g id="ic-price">
            <g id="Group-11">
                <mask id="mask-2" fill="white">
                    <use xlink:href="#path-1"></use>
                </mask>
                <g id="Clip-10"></g>
                <circle id="Oval" fill="#FFFFFF" mask="url(#mask-2)" cx="35.5" cy="36.5" r="33.5"></circle>
                <path d="M35.9999,0 C16.1179,0 -0.0001,16.118 -0.0001,36 C-0.0001,55.882 16.1179,72 35.9999,72 C55.8819,72 71.9999,55.882 71.9999,36 C71.9999,16.118 55.8819,0 35.9999,0 M35.9999,5 C53.0939,5 66.9999,18.906 66.9999,36 C66.9999,53.094 53.0939,67 35.9999,67 C18.9059,67 4.9999,53.094 4.9999,36 C4.9999,18.906 18.9059,5 35.9999,5" id="Fill-9" fill="#D2D2D2" mask="url(#mask-2)"></path>
            </g>
            <path d="M63.9999,36.001 C63.9999,51.465 51.4649,63.999 35.9999,63.999 C20.5359,63.999 7.9999,51.465 7.9999,36.001 C7.9999,20.536 20.5359,8.001 35.9999,8.001 C51.4649,8.001 63.9999,20.536 63.9999,36.001" id="Fill-1" fill="#82BC00"></path>
            <path d="M53.204,41.1318 C52.683,40.8688 51.671,40.6128 50.156,41.3398 C50.099,40.7808 49.858,40.3098 49.442,39.9778 C48.563,39.2718 47.149,39.4258 45.751,40.3798 C45.578,39.9978 45.325,39.7698 45.099,39.6348 C44.324,39.1718 43.159,39.3538 41.629,40.1638 L36.811,42.7268 C36.651,42.8118 36.541,42.9528 36.49,43.1128 C35.035,42.9488 33.925,42.4458 31.522,40.6648 L28.341,38.3088 C27.521,37.7048 25.633,37.5028 23.884,38.2118 L18.008,40.5998 C17.669,40.7378 17.505,41.1248 17.643,41.4658 C17.783,41.8048 18.166,41.9678 18.51,41.8308 L24.385,39.4438 C25.763,38.8808 27.178,39.1028 27.549,39.3758 L30.732,41.7328 C34.415,44.4618 35.508,44.4838 38.427,44.5368 C39.156,44.5508 40.012,44.5668 41.068,44.6278 C41.321,44.6438 41.559,44.8838 41.602,45.1638 C41.675,45.6238 41.174,45.8908 40.831,46.0238 C36.421,48.0408 33.768,47.3688 29.126,44.9948 C28.801,44.8248 28.399,44.9548 28.232,45.2828 C28.066,45.6108 28.194,46.0098 28.52,46.1778 C31.13,47.5128 33.421,48.5308 36.047,48.5308 C37.643,48.5308 39.36,48.1548 41.347,47.2458 C42.684,46.7328 43.034,45.7288 42.915,44.9598 C42.776,44.0688 42.017,43.3558 41.147,43.3038 C40.186,43.2468 39.407,43.2288 38.719,43.2148 L42.251,41.3358 C43.463,40.6938 44.176,40.6348 44.418,40.7748 C44.607,40.8868 44.637,41.2758 44.639,41.4948 C44.641,41.7408 44.777,41.9658 44.995,42.0798 C45.213,42.1968 45.475,42.1788 45.678,42.0398 L46.49,41.4838 C47.495,40.7928 48.283,40.7498 48.615,41.0148 C48.895,41.2368 48.915,41.7688 48.667,42.3978 C48.558,42.6728 48.644,42.9858 48.878,43.1668 C49.11,43.3468 49.433,43.3528 49.676,43.1798 C51.394,41.9298 52.299,42.1608 52.6,42.3148 C52.952,42.4948 53.078,42.8298 53.076,43.0838 C53.076,43.2228 53.037,43.5658 52.616,43.7808 L39.825,51.8618 C37.276,53.4748 34.019,53.4328 33.27,52.9848 C33.215,52.9518 33.156,52.9278 33.096,52.9118 C31.505,52.5018 30.232,52.0978 29.108,51.7398 C26.191,50.8118 24.266,50.1988 20.565,50.6708 C20.202,50.7178 19.944,51.0518 19.991,51.4148 C20.038,51.7778 20.354,52.0438 20.735,51.9888 C24.14,51.5518 25.859,52.0978 28.706,53.0058 C29.826,53.3608 31.094,53.7648 32.683,54.1778 C33.168,54.4288 33.962,54.5738 34.909,54.5738 C36.583,54.5738 38.741,54.1188 40.534,52.9858 L53.271,44.9368 C53.98,44.5758 54.404,43.8848 54.404,43.0878 C54.406,42.2598 53.946,41.5108 53.204,41.1318" id="Fill-3" fill="#FFFFFF"></path>
            <path d="M36.0009,18.7549 C40.8619,18.7549 44.8169,22.7109 44.8169,27.5729 C44.8169,32.4359 40.8619,36.3899 36.0009,36.3899 C31.1389,36.3899 27.1849,32.4359 27.1849,27.5729 C27.1849,22.7109 31.1389,18.7549 36.0009,18.7549 M36.0009,37.7179 C41.5939,37.7179 46.1449,33.1669 46.1449,27.5729 C46.1449,21.9779 41.5939,17.4269 36.0009,17.4269 C30.4069,17.4269 25.8559,21.9779 25.8559,27.5729 C25.8559,33.1669 30.4069,37.7179 36.0009,37.7179" id="Fill-5" fill="#FFFFFF"></path>
            <path d="M36.0057,28.2373 L36.0507,28.2373 C37.3127,28.2373 38.2657,28.6103 38.5997,29.2403 C38.7687,29.5563 38.7437,29.9023 38.5347,30.2103 C38.2027,30.6993 37.3167,31.1733 35.8057,30.9893 C35.0817,30.9083 34.3507,30.6663 33.5037,30.3843 L33.3107,30.3203 C32.9607,30.2083 32.5887,30.3943 32.4717,30.7443 C32.3577,31.0913 32.5457,31.4663 32.8957,31.5833 L33.0867,31.6453 C33.8567,31.9003 34.5897,32.1233 35.3367,32.2463 L35.3367,34.0473 C35.3367,34.4133 35.6337,34.7113 36.0007,34.7113 C36.3667,34.7113 36.6637,34.4133 36.6637,34.0473 L36.6637,32.3313 C37.9827,32.2723 39.0617,31.7983 39.6327,30.9573 C40.1187,30.2433 40.1707,29.3683 39.7717,28.6173 C39.1957,27.5303 37.8397,26.9093 36.0507,26.9093 L36.0057,26.9093 C34.7037,26.9093 33.7287,26.5373 33.3967,25.9113 C33.2347,25.6033 33.2587,25.2663 33.4657,24.9613 C33.8087,24.4593 34.7227,23.9833 36.2437,24.1553 C36.9597,24.2343 37.6887,24.4743 38.5297,24.7553 L38.7427,24.8263 C39.0907,24.9393 39.4657,24.7513 39.5807,24.4023 C39.6947,24.0543 39.5067,23.6793 39.1577,23.5633 L38.9467,23.4943 C38.1657,23.2353 37.4217,23.0083 36.6637,22.8883 L36.6637,21.0973 C36.6637,20.7313 36.3667,20.4333 36.0007,20.4333 C35.6337,20.4333 35.3367,20.7313 35.3367,21.0973 L35.3367,22.8213 C34.0167,22.8903 32.9437,23.3663 32.3677,24.2143 C31.8837,24.9253 31.8297,25.7943 32.2247,26.5343 C32.7987,27.6163 34.1767,28.2373 36.0057,28.2373" id="Fill-7" fill="#FFFFFF"></path>
        </g>
    </g>
</svg>